%FSLAX46Y46*%
%MOMM*%
%ADD12C,0.200000*%
%ADD11C,0.236220*%
%ADD14C,0.400000*%
%ADD16C,0.600000*%
%ADD15C,0.800000*%
%ADD13C,1.000000*%
%ADD10C,1.500000*%
%AMPS20*
1,1,3.316000,0.000000,0.000000*
%
%ADD20PS20*%
%AMPS21*
1,1,1.428000,0.000000,0.000000*
%
%ADD21PS21*%
%AMPS19*
21,1,0.800000,0.800000,0.000000,0.000000,0.000000*
%
%ADD19PS19*%
%AMPS31*
21,1,0.600000,1.450000,0.000000,0.000000,180.000000*
%
%ADD31PS31*%
%AMPS26*
21,1,0.600000,1.950000,0.000000,0.000000,0.000000*
%
%ADD26PS26*%
%AMPS27*
21,1,0.600000,1.950000,0.000000,0.000000,180.000000*
%
%ADD27PS27*%
%AMPS28*
21,1,0.300000,1.450000,0.000000,0.000000,180.000000*
%
%ADD28PS28*%
%AMPS17*
21,1,1.400000,1.200000,0.000000,0.000000,90.000000*
%
%ADD17PS17*%
%AMPS32*
1,1,0.600000,0.000000,0.000000*
%
%ADD32PS32*%
%AMPS35*
1,1,1.500000,0.000000,0.000000*
%
%ADD35PS35*%
%AMPS33*
1,1,0.500000,0.000000,0.000000*
%
%ADD33PS33*%
%AMPS30*
21,1,1.050000,1.050000,0.000000,0.000000,270.000000*
1,1,1.050000,0.000000,-0.525000*
1,1,1.050000,0.000000,0.525000*
%
%ADD30PS30*%
%AMPS29*
21,1,1.050000,1.050000,0.000000,0.000000,270.000000*
1,1,1.050000,0.000000,-0.525000*
1,1,1.050000,0.000000,0.525000*
%
%ADD29PS29*%
%AMPS34*
1,1,1.500000,0.000000,0.000000*
%
%ADD34PS34*%
%AMPS22*
1,1,0.360000,0.195000,0.220000*
1,1,0.360000,-0.195000,-0.220000*
1,1,0.360000,-0.195000,0.220000*
21,1,0.800000,0.390000,0.000000,0.000000,90.000000*
21,1,0.440000,0.750000,0.000000,0.000000,90.000000*
1,1,0.360000,0.195000,-0.220000*
%
%ADD22PS22*%
%AMPS18*
1,1,0.240000,0.130000,-0.330000*
1,1,0.240000,-0.130000,0.330000*
1,1,0.240000,0.130000,0.330000*
21,1,0.500000,0.660000,0.000000,0.000000,0.000000*
21,1,0.260000,0.900000,0.000000,0.000000,0.000000*
1,1,0.240000,-0.130000,-0.330000*
%
%ADD18PS18*%
%AMPS25*
1,1,0.240000,-0.330000,-0.130000*
1,1,0.240000,0.330000,0.130000*
1,1,0.240000,0.330000,-0.130000*
21,1,0.500000,0.660000,0.000000,0.000000,270.000000*
21,1,0.260000,0.900000,0.000000,0.000000,270.000000*
1,1,0.240000,-0.330000,0.130000*
%
%ADD25PS25*%
%AMPS23*
1,1,0.500000,1.500000,-1.000000*
1,1,0.500000,-1.500000,1.000000*
1,1,0.500000,1.500000,1.000000*
21,1,3.500000,2.000000,0.000000,0.000000,0.000000*
21,1,3.000000,2.500000,0.000000,0.000000,0.000000*
1,1,0.500000,-1.500000,-1.000000*
%
%ADD23PS23*%
%AMPS24*
1,1,0.500000,1.000000,1.500000*
1,1,0.500000,-1.000000,-1.500000*
1,1,0.500000,-1.000000,1.500000*
21,1,3.500000,2.000000,0.000000,0.000000,90.000000*
21,1,3.000000,2.500000,0.000000,0.000000,90.000000*
1,1,0.500000,1.000000,-1.500000*
%
%ADD24PS24*%
G01*
%LPD*%
G36*
X38997499Y310000D02*
X38998723Y310007D01*
X39015716Y310215D01*
X39018175Y310276D01*
X39032636Y310809D01*
X39035086Y310929D01*
X39049505Y311815D01*
X39051947Y311995D01*
X39066412Y313240D01*
X39068862Y313482D01*
X39083250Y315078D01*
X39085684Y315378D01*
X39100018Y317325D01*
X39102446Y317685D01*
X39116733Y319984D01*
X39119145Y320402D01*
X39133404Y323056D01*
X39135818Y323537D01*
X39149983Y326536D01*
X39152373Y327072D01*
X39166481Y330422D01*
X39168868Y331020D01*
X39182832Y334701D01*
X39185193Y335355D01*
X39199104Y339389D01*
X39201452Y340101D01*
X39215269Y344478D01*
X39217602Y345249D01*
X39231272Y349952D01*
X39233584Y350779D01*
X39247158Y355825D01*
X39249444Y356707D01*
X39262903Y362089D01*
X39265169Y363027D01*
X39278500Y368741D01*
X39280752Y369740D01*
X39293867Y375748D01*
X39296079Y376794D01*
X39309129Y383163D01*
X39311322Y384267D01*
X39324153Y390924D01*
X39326316Y392080D01*
X39339024Y399074D01*
X39341170Y400289D01*
X39353643Y407560D01*
X39355734Y408814D01*
X39368083Y416422D01*
X39370165Y417740D01*
X39382318Y425647D01*
X39384356Y427009D01*
X39396276Y435187D01*
X39398282Y436599D01*
X39410027Y445088D01*
X39411999Y446551D01*
X39423523Y455319D01*
X39425460Y456831D01*
X39436742Y465861D01*
X39438634Y467413D01*
X39449740Y476757D01*
X39451604Y478366D01*
X39462434Y487943D01*
X39464251Y489589D01*
X39474880Y499463D01*
X39476657Y501155D01*
X39487008Y511255D01*
X39488743Y512990D01*
X39498843Y523341D01*
X39500535Y525118D01*
X39510409Y535747D01*
X39512058Y537567D01*
X39521659Y548425D01*
X39523260Y550280D01*
X39532555Y561326D01*
X39534112Y563224D01*
X39543178Y574551D01*
X39544692Y576491D01*
X39553448Y588000D01*
X39554907Y589968D01*
X39563400Y601718D01*
X39564815Y603726D01*
X39572999Y615655D01*
X39574361Y617693D01*
X39582254Y629825D01*
X39583569Y631902D01*
X39591160Y644222D01*
X39592422Y646328D01*
X39599730Y658868D01*
X39600935Y660995D01*
X39607920Y673684D01*
X39609080Y675854D01*
X39615732Y688675D01*
X39616836Y690869D01*
X39623185Y703878D01*
X39624235Y706097D01*
X39630277Y719289D01*
X39631271Y721531D01*
X39636979Y734847D01*
X39637916Y737111D01*
X39643279Y750520D01*
X39644164Y752814D01*
X39649221Y766419D01*
X39650048Y768728D01*
X39654755Y782410D01*
X39655525Y784742D01*
X39659891Y798524D01*
X39660603Y800872D01*
X39664645Y814810D01*
X39665300Y817176D01*
X39668983Y831150D01*
X39669578Y833528D01*
X39672925Y847620D01*
X39673463Y850015D01*
X39676462Y864180D01*
X39676943Y866594D01*
X39679597Y880853D01*
X39680015Y883265D01*
X39682314Y897552D01*
X39682674Y899980D01*
X39684621Y914314D01*
X39684921Y916748D01*
X39686517Y931136D01*
X39686759Y933586D01*
X39688004Y948051D01*
X39688184Y950493D01*
X39689070Y964912D01*
X39689190Y967362D01*
X39689723Y981823D01*
X39689783Y984278D01*
X39689992Y1001297D01*
X39690000Y1002525D01*
X39690000Y43997474D01*
X39689992Y43998702D01*
X39689783Y44015720D01*
X39689723Y44018175D01*
X39689190Y44032636D01*
X39689070Y44035086D01*
X39688184Y44049505D01*
X39688004Y44051947D01*
X39686759Y44066412D01*
X39686517Y44068862D01*
X39684921Y44083250D01*
X39684621Y44085684D01*
X39682674Y44100018D01*
X39682314Y44102446D01*
X39680015Y44116733D01*
X39679597Y44119145D01*
X39676943Y44133404D01*
X39676462Y44135818D01*
X39673463Y44149983D01*
X39672927Y44152373D01*
X39669577Y44166481D01*
X39668979Y44168868D01*
X39665298Y44182832D01*
X39664644Y44185193D01*
X39660610Y44199104D01*
X39659898Y44201452D01*
X39655521Y44215269D01*
X39654751Y44217601D01*
X39650054Y44231254D01*
X39649227Y44233565D01*
X39644162Y44247191D01*
X39643279Y44249480D01*
X39637920Y44262881D01*
X39636977Y44265156D01*
X39631248Y44278518D01*
X39630258Y44280753D01*
X39624253Y44293864D01*
X39623204Y44296082D01*
X39616840Y44309122D01*
X39615737Y44311314D01*
X39609083Y44324140D01*
X39607922Y44326312D01*
X39600918Y44339036D01*
X39599712Y44341163D01*
X39592442Y44353638D01*
X39591178Y44355747D01*
X39583573Y44368089D01*
X39582259Y44370164D01*
X39574349Y44382322D01*
X39572988Y44384360D01*
X39564815Y44396273D01*
X39563399Y44398283D01*
X39554910Y44410027D01*
X39553451Y44411995D01*
X39544681Y44423522D01*
X39543171Y44425456D01*
X39534118Y44436768D01*
X39532556Y44438671D01*
X39523264Y44449713D01*
X39521664Y44451568D01*
X39512053Y44462437D01*
X39510406Y44464254D01*
X39500537Y44474878D01*
X39498848Y44476653D01*
X39488748Y44487005D01*
X39487005Y44488748D01*
X39476653Y44498848D01*
X39474878Y44500537D01*
X39464254Y44510406D01*
X39462437Y44512053D01*
X39451568Y44521664D01*
X39449713Y44523264D01*
X39438671Y44532556D01*
X39436768Y44534118D01*
X39425456Y44543171D01*
X39423522Y44544681D01*
X39411995Y44553451D01*
X39410027Y44554910D01*
X39398283Y44563399D01*
X39396273Y44564815D01*
X39384360Y44572988D01*
X39382322Y44574349D01*
X39370164Y44582259D01*
X39368089Y44583573D01*
X39355747Y44591178D01*
X39353638Y44592442D01*
X39341163Y44599712D01*
X39339036Y44600918D01*
X39326312Y44607922D01*
X39324140Y44609083D01*
X39311314Y44615737D01*
X39309122Y44616840D01*
X39296082Y44623204D01*
X39293864Y44624253D01*
X39280753Y44630258D01*
X39278518Y44631248D01*
X39265156Y44636977D01*
X39262881Y44637920D01*
X39249480Y44643279D01*
X39247191Y44644162D01*
X39233565Y44649227D01*
X39231254Y44650054D01*
X39217601Y44654751D01*
X39215269Y44655521D01*
X39201452Y44659898D01*
X39199104Y44660610D01*
X39185193Y44664644D01*
X39182832Y44665298D01*
X39168868Y44668979D01*
X39166481Y44669577D01*
X39152373Y44672927D01*
X39149983Y44673463D01*
X39135818Y44676462D01*
X39133404Y44676943D01*
X39119145Y44679597D01*
X39116733Y44680015D01*
X39102446Y44682314D01*
X39100018Y44682674D01*
X39085684Y44684621D01*
X39083250Y44684921D01*
X39068862Y44686517D01*
X39066412Y44686759D01*
X39051947Y44688004D01*
X39049505Y44688184D01*
X39035086Y44689070D01*
X39032636Y44689190D01*
X39018175Y44689723D01*
X39015720Y44689783D01*
X38998702Y44689992D01*
X38997474Y44690000D01*
X1002525Y44690000D01*
X1001297Y44689992D01*
X984278Y44689783D01*
X981823Y44689723D01*
X967362Y44689190D01*
X964912Y44689070D01*
X950493Y44688184D01*
X948051Y44688004D01*
X933586Y44686759D01*
X931136Y44686517D01*
X916748Y44684921D01*
X914314Y44684621D01*
X899980Y44682674D01*
X897552Y44682314D01*
X883265Y44680015D01*
X880853Y44679597D01*
X866594Y44676943D01*
X864180Y44676462D01*
X850015Y44673463D01*
X847620Y44672925D01*
X833528Y44669578D01*
X831150Y44668983D01*
X817176Y44665300D01*
X814810Y44664645D01*
X800872Y44660603D01*
X798524Y44659891D01*
X784742Y44655525D01*
X782410Y44654755D01*
X768728Y44650048D01*
X766419Y44649221D01*
X752814Y44644164D01*
X750520Y44643279D01*
X737111Y44637916D01*
X734847Y44636979D01*
X721531Y44631271D01*
X719289Y44630277D01*
X706097Y44624235D01*
X703878Y44623185D01*
X690869Y44616836D01*
X688675Y44615732D01*
X675854Y44609080D01*
X673684Y44607920D01*
X660995Y44600935D01*
X658868Y44599730D01*
X646328Y44592422D01*
X644222Y44591160D01*
X631902Y44583569D01*
X629825Y44582254D01*
X617693Y44574361D01*
X615655Y44572999D01*
X603726Y44564815D01*
X601718Y44563400D01*
X589968Y44554907D01*
X588000Y44553448D01*
X576491Y44544692D01*
X574551Y44543178D01*
X563224Y44534112D01*
X561326Y44532555D01*
X550280Y44523260D01*
X548425Y44521659D01*
X537567Y44512058D01*
X535747Y44510409D01*
X525118Y44500535D01*
X523341Y44498843D01*
X512990Y44488743D01*
X511255Y44487008D01*
X501155Y44476657D01*
X499463Y44474880D01*
X489589Y44464251D01*
X487943Y44462434D01*
X478366Y44451604D01*
X476757Y44449740D01*
X467413Y44438634D01*
X465861Y44436742D01*
X456831Y44425460D01*
X455319Y44423523D01*
X446551Y44411999D01*
X445088Y44410027D01*
X436599Y44398282D01*
X435187Y44396276D01*
X427009Y44384356D01*
X425647Y44382318D01*
X417740Y44370165D01*
X416422Y44368083D01*
X408814Y44355734D01*
X407560Y44353643D01*
X400289Y44341170D01*
X399074Y44339024D01*
X392080Y44326316D01*
X390924Y44324153D01*
X384267Y44311322D01*
X383163Y44309129D01*
X376794Y44296079D01*
X375748Y44293867D01*
X369740Y44280752D01*
X368741Y44278500D01*
X363027Y44265169D01*
X362089Y44262903D01*
X356707Y44249444D01*
X355825Y44247158D01*
X350779Y44233584D01*
X349952Y44231272D01*
X345249Y44217602D01*
X344478Y44215269D01*
X340101Y44201452D01*
X339389Y44199104D01*
X335355Y44185193D01*
X334701Y44182832D01*
X331020Y44168868D01*
X330422Y44166481D01*
X327072Y44152373D01*
X326536Y44149983D01*
X323537Y44135818D01*
X323056Y44133404D01*
X320402Y44119145D01*
X319984Y44116733D01*
X317685Y44102446D01*
X317325Y44100018D01*
X315378Y44085684D01*
X315078Y44083250D01*
X313482Y44068862D01*
X313240Y44066412D01*
X311995Y44051947D01*
X311815Y44049505D01*
X310929Y44035086D01*
X310809Y44032636D01*
X310276Y44018175D01*
X310215Y44015716D01*
X310007Y43998723D01*
X310000Y43997499D01*
X310000Y1002499D01*
X310007Y1001275D01*
X310215Y984282D01*
X310276Y981823D01*
X310809Y967362D01*
X310929Y964912D01*
X311815Y950493D01*
X311995Y948051D01*
X313240Y933586D01*
X313482Y931136D01*
X315078Y916748D01*
X315378Y914314D01*
X317325Y899980D01*
X317685Y897552D01*
X319984Y883265D01*
X320402Y880853D01*
X323056Y866594D01*
X323537Y864180D01*
X326538Y850006D01*
X327075Y847612D01*
X330412Y833561D01*
X331009Y831181D01*
X334712Y817132D01*
X335365Y814769D01*
X339388Y800895D01*
X340101Y798546D01*
X344478Y784729D01*
X345249Y782395D01*
X349947Y768740D01*
X350773Y766431D01*
X355835Y752813D01*
X356718Y750524D01*
X362085Y737103D01*
X363027Y734830D01*
X368742Y721500D01*
X369734Y719261D01*
X375747Y706133D01*
X376795Y703917D01*
X383155Y690885D01*
X384259Y688692D01*
X390932Y675830D01*
X392090Y673663D01*
X399074Y660974D01*
X400283Y658841D01*
X407555Y646363D01*
X408819Y644254D01*
X416433Y631898D01*
X417745Y629825D01*
X425638Y617693D01*
X427000Y615655D01*
X435184Y603726D01*
X436600Y601716D01*
X445089Y589972D01*
X446548Y588004D01*
X455318Y576477D01*
X456830Y574541D01*
X465874Y563241D01*
X467427Y561348D01*
X476749Y550268D01*
X478358Y548403D01*
X487950Y537556D01*
X489595Y535740D01*
X499465Y525115D01*
X501154Y523341D01*
X511250Y512993D01*
X512993Y511250D01*
X523341Y501154D01*
X525115Y499465D01*
X535740Y489595D01*
X537556Y487950D01*
X548403Y478358D01*
X550268Y476749D01*
X561348Y467427D01*
X563241Y465874D01*
X574541Y456830D01*
X576477Y455318D01*
X588004Y446548D01*
X589972Y445089D01*
X601716Y436600D01*
X603726Y435184D01*
X615655Y427000D01*
X617693Y425638D01*
X629825Y417745D01*
X631898Y416433D01*
X644254Y408819D01*
X646363Y407555D01*
X658841Y400283D01*
X660974Y399074D01*
X673663Y392090D01*
X675830Y390932D01*
X688692Y384259D01*
X690885Y383155D01*
X703917Y376795D01*
X706133Y375747D01*
X719261Y369734D01*
X721500Y368742D01*
X734830Y363027D01*
X737103Y362085D01*
X750524Y356718D01*
X752813Y355835D01*
X766431Y350773D01*
X768740Y349947D01*
X782395Y345249D01*
X784729Y344478D01*
X798546Y340101D01*
X800895Y339388D01*
X814769Y335365D01*
X817132Y334712D01*
X831181Y331009D01*
X833561Y330412D01*
X847612Y327075D01*
X850006Y326538D01*
X864180Y323537D01*
X866594Y323056D01*
X880853Y320402D01*
X883265Y319984D01*
X897552Y317685D01*
X899980Y317325D01*
X914314Y315378D01*
X916748Y315078D01*
X931136Y313482D01*
X933586Y313240D01*
X948051Y311995D01*
X950493Y311815D01*
X964912Y310929D01*
X967362Y310809D01*
X981823Y310276D01*
X984282Y310215D01*
X1001275Y310007D01*
X1002499Y310000D01*
X38997499Y310000D01*
D02*
G37*
%LPC*%
G36*
X23497535Y5595000D02*
X11752465Y5595000D01*
X11707843Y5597192D01*
X11568884Y5610879D01*
X11481410Y5628278D01*
X11350124Y5668103D01*
X11267737Y5702228D01*
X11146744Y5766900D01*
X11072594Y5816445D01*
X10966568Y5903459D01*
X10935079Y5934994D01*
X10924710Y5941874D01*
X6192623Y10673961D01*
X6184994Y10685079D01*
X6153459Y10716568D01*
X6066445Y10822594D01*
X6016900Y10896744D01*
X5952228Y11017737D01*
X5918103Y11100124D01*
X5878278Y11231410D01*
X5860879Y11318884D01*
X5847192Y11457843D01*
X5845000Y11502465D01*
X5845000Y17995000D01*
X5837080Y18034004D01*
X5814575Y18066829D01*
X5781048Y18088277D01*
X5745000Y18095000D01*
X5501230Y18095000D01*
X5478915Y18095547D01*
X5458055Y18096572D01*
X5413655Y18100946D01*
X5394215Y18103830D01*
X5350442Y18112537D01*
X5331419Y18117302D01*
X5288659Y18130273D01*
X5270182Y18136885D01*
X5228964Y18153958D01*
X5211234Y18162343D01*
X5171814Y18183413D01*
X5155000Y18193492D01*
X5117886Y18218291D01*
X5102118Y18229986D01*
X5067590Y18258322D01*
X5053065Y18271487D01*
X5021487Y18303065D01*
X5008322Y18317590D01*
X4979986Y18352118D01*
X4968291Y18367886D01*
X4943492Y18405000D01*
X4933413Y18421814D01*
X4912343Y18461234D01*
X4903958Y18478964D01*
X4886885Y18520182D01*
X4880273Y18538659D01*
X4867302Y18581419D01*
X4862537Y18600442D01*
X4853830Y18644215D01*
X4850946Y18663655D01*
X4846572Y18708055D01*
X4845547Y18728915D01*
X4845000Y18751230D01*
X4845000Y19005361D01*
X4837080Y19044365D01*
X4814575Y19077190D01*
X4781048Y19098638D01*
X4754801Y19104880D01*
X4693874Y19110880D01*
X4606410Y19128278D01*
X4475124Y19168103D01*
X4392737Y19202228D01*
X4271744Y19266900D01*
X4197594Y19316445D01*
X4091568Y19403459D01*
X4060079Y19434994D01*
X4049710Y19441874D01*
X2192623Y21298961D01*
X2184994Y21310079D01*
X2153459Y21341568D01*
X2066445Y21447594D01*
X2016900Y21521744D01*
X1952228Y21642737D01*
X1918103Y21725124D01*
X1878278Y21856410D01*
X1860879Y21943884D01*
X1847192Y22082843D01*
X1845000Y22127465D01*
X1845000Y30622535D01*
X1847192Y30667158D01*
X1860879Y30806116D01*
X1878278Y30893589D01*
X1918103Y31024875D01*
X1952228Y31107262D01*
X2016900Y31228255D01*
X2066445Y31302405D01*
X2153597Y31408600D01*
X2185150Y31440391D01*
X2191232Y31449648D01*
X4424597Y33683013D01*
X4434608Y33689849D01*
X4466399Y33721402D01*
X4572594Y33808554D01*
X4646744Y33858099D01*
X4767737Y33922771D01*
X4850124Y33956896D01*
X4981420Y33996724D01*
X5068870Y34014119D01*
X5207839Y34027808D01*
X5252464Y34030000D01*
X5870000Y34030000D01*
X5909004Y34037920D01*
X5941829Y34060425D01*
X5963277Y34093952D01*
X5970000Y34130000D01*
X5970000Y38622534D01*
X5972192Y38667139D01*
X5981076Y38757351D01*
X5998474Y38844816D01*
X6024075Y38929209D01*
X6058198Y39011592D01*
X6099768Y39089363D01*
X6149313Y39163514D01*
X6205375Y39231825D01*
X6236927Y39263616D01*
X6243005Y39272867D01*
X8233340Y41263202D01*
X8266419Y41293183D01*
X8336486Y41350686D01*
X8410631Y41400228D01*
X8488410Y41441802D01*
X8570791Y41475924D01*
X8655183Y41501525D01*
X8742648Y41518923D01*
X8830420Y41527567D01*
X8919578Y41527568D01*
X9007358Y41518923D01*
X9094808Y41501527D01*
X9179208Y41475924D01*
X9266129Y41439921D01*
X9266409Y41440597D01*
X9308717Y41430000D01*
X20316282Y41430000D01*
X20358590Y41440597D01*
X20358870Y41439921D01*
X20445791Y41475924D01*
X20530191Y41501527D01*
X20617641Y41518923D01*
X20705421Y41527568D01*
X20794579Y41527567D01*
X20882351Y41518923D01*
X20969816Y41501525D01*
X21054208Y41475924D01*
X21136589Y41441802D01*
X21214368Y41400228D01*
X21288503Y41350692D01*
X21358589Y41293175D01*
X21391661Y41263201D01*
X23013202Y39641660D01*
X23043183Y39608581D01*
X23100686Y39538514D01*
X23150231Y39464363D01*
X23191801Y39386592D01*
X23225924Y39304209D01*
X23251527Y39219808D01*
X23268924Y39132354D01*
X23277808Y39042161D01*
X23280000Y38997536D01*
X23280000Y36429972D01*
X23287920Y36390968D01*
X23310425Y36358143D01*
X23343952Y36336695D01*
X23383188Y36330023D01*
X23421919Y36339182D01*
X23463147Y36374415D01*
X23468295Y36382119D01*
X23479986Y36397882D01*
X23508322Y36432410D01*
X23521487Y36446935D01*
X23553065Y36478513D01*
X23567590Y36491678D01*
X23602118Y36520014D01*
X23617886Y36531709D01*
X23655000Y36556508D01*
X23671814Y36566587D01*
X23711234Y36587657D01*
X23728964Y36596042D01*
X23770182Y36613115D01*
X23788659Y36619727D01*
X23831419Y36632698D01*
X23850442Y36637463D01*
X23894215Y36646170D01*
X23913655Y36649054D01*
X23958055Y36653428D01*
X23978915Y36654453D01*
X24001230Y36655000D01*
X24795000Y36655000D01*
X24834004Y36662920D01*
X24866829Y36685425D01*
X24888277Y36718952D01*
X24895000Y36755000D01*
X24895000Y38497537D01*
X24897191Y38542133D01*
X24900310Y38573813D01*
X24917713Y38661303D01*
X24926238Y38689406D01*
X24960363Y38771788D01*
X24974208Y38797690D01*
X25023753Y38871841D01*
X25042505Y38894690D01*
X25074059Y38926482D01*
X25080141Y38935739D01*
X28313506Y42169104D01*
X28323517Y42175940D01*
X28355309Y42207494D01*
X28378158Y42226246D01*
X28452309Y42275791D01*
X28478211Y42289636D01*
X28560593Y42323761D01*
X28588705Y42332289D01*
X28676175Y42349689D01*
X28707843Y42352808D01*
X28752465Y42355000D01*
X32370169Y42355000D01*
X32409173Y42362920D01*
X32448490Y42393854D01*
X32448913Y42393507D01*
X32478821Y42429948D01*
X32483425Y42435027D01*
X32514973Y42466575D01*
X32520052Y42471179D01*
X32554588Y42499523D01*
X32560100Y42503612D01*
X32597243Y42528428D01*
X32603129Y42531956D01*
X32642472Y42552985D01*
X32648689Y42555926D01*
X32689975Y42573028D01*
X32696420Y42575334D01*
X32739123Y42588287D01*
X32745783Y42589955D01*
X32789595Y42598672D01*
X32796378Y42599678D01*
X32840813Y42604055D01*
X32848870Y42604450D01*
X32871235Y42605000D01*
X33128765Y42605000D01*
X33151130Y42604450D01*
X33159187Y42604055D01*
X33203622Y42599678D01*
X33210405Y42598672D01*
X33254217Y42589955D01*
X33260877Y42588287D01*
X33303580Y42575334D01*
X33310025Y42573028D01*
X33351311Y42555926D01*
X33357528Y42552985D01*
X33396871Y42531956D01*
X33402757Y42528428D01*
X33439900Y42503612D01*
X33445412Y42499523D01*
X33479948Y42471179D01*
X33485027Y42466575D01*
X33516575Y42435027D01*
X33521179Y42429948D01*
X33549523Y42395412D01*
X33553612Y42389900D01*
X33578428Y42352757D01*
X33581956Y42346871D01*
X33602985Y42307528D01*
X33605926Y42301311D01*
X33623028Y42260025D01*
X33625334Y42253580D01*
X33638287Y42210877D01*
X33639955Y42204217D01*
X33648672Y42160405D01*
X33649678Y42153623D01*
X33650482Y42145457D01*
X33662187Y42107418D01*
X33687802Y42076957D01*
X33723269Y42058899D01*
X33762970Y42056105D01*
X33800617Y42069017D01*
X33830246Y42095589D01*
X33849518Y42145457D01*
X33850322Y42153623D01*
X33851328Y42160405D01*
X33860045Y42204217D01*
X33861713Y42210877D01*
X33874666Y42253580D01*
X33876972Y42260025D01*
X33894074Y42301311D01*
X33897015Y42307528D01*
X33918044Y42346871D01*
X33921572Y42352757D01*
X33946388Y42389900D01*
X33950469Y42395401D01*
X33972299Y42422000D01*
X33990921Y42457174D01*
X33995000Y42485442D01*
X33995000Y43646345D01*
X33999535Y43708220D01*
X34016502Y43778965D01*
X34045406Y43844849D01*
X34085524Y43904575D01*
X34135582Y43956246D01*
X34194005Y43998237D01*
X34258946Y44029219D01*
X34328335Y44048205D01*
X34404455Y44055000D01*
X35196345Y44055000D01*
X35258220Y44050465D01*
X35328965Y44033498D01*
X35394849Y44004594D01*
X35454575Y43964476D01*
X35506246Y43914418D01*
X35548237Y43855995D01*
X35579219Y43791054D01*
X35598205Y43721665D01*
X35605000Y43645545D01*
X35605000Y42853655D01*
X35600465Y42791780D01*
X35583498Y42721035D01*
X35554594Y42655151D01*
X35514476Y42595425D01*
X35464418Y42543754D01*
X35405995Y42501763D01*
X35341054Y42470781D01*
X35271665Y42451795D01*
X35191109Y42444604D01*
X35191159Y42444041D01*
X35156880Y42437080D01*
X35124055Y42414575D01*
X35102607Y42381048D01*
X35095935Y42341812D01*
X35105146Y42303644D01*
X35104987Y42303578D01*
X35105406Y42302567D01*
X35105482Y42302251D01*
X35105923Y42301319D01*
X35123028Y42260025D01*
X35125334Y42253580D01*
X35138287Y42210877D01*
X35139955Y42204217D01*
X35148672Y42160405D01*
X35149678Y42153622D01*
X35154055Y42109187D01*
X35154450Y42101130D01*
X35155000Y42078765D01*
X35155000Y41421235D01*
X35154450Y41398870D01*
X35154055Y41390813D01*
X35149678Y41346378D01*
X35148672Y41339595D01*
X35139955Y41295783D01*
X35138287Y41289123D01*
X35125334Y41246420D01*
X35123028Y41239975D01*
X35105926Y41198689D01*
X35102985Y41192472D01*
X35081956Y41153129D01*
X35078428Y41147243D01*
X35053612Y41110100D01*
X35049523Y41104588D01*
X35021179Y41070052D01*
X35016575Y41064973D01*
X34985027Y41033425D01*
X34979948Y41028821D01*
X34945412Y41000477D01*
X34939900Y40996388D01*
X34902757Y40971572D01*
X34896871Y40968044D01*
X34857528Y40947015D01*
X34851311Y40944074D01*
X34810025Y40926972D01*
X34803580Y40924666D01*
X34760877Y40911713D01*
X34754217Y40910045D01*
X34710405Y40901328D01*
X34703622Y40900322D01*
X34659187Y40895945D01*
X34651130Y40895550D01*
X34628765Y40895000D01*
X34371235Y40895000D01*
X34348870Y40895550D01*
X34340813Y40895945D01*
X34296378Y40900322D01*
X34289595Y40901328D01*
X34245783Y40910045D01*
X34239123Y40911713D01*
X34196420Y40924666D01*
X34189975Y40926972D01*
X34148689Y40944074D01*
X34142472Y40947015D01*
X34103129Y40968044D01*
X34097243Y40971572D01*
X34060100Y40996388D01*
X34054588Y41000477D01*
X34020052Y41028821D01*
X34014973Y41033425D01*
X33983425Y41064973D01*
X33978821Y41070052D01*
X33950477Y41104588D01*
X33946388Y41110100D01*
X33921572Y41147243D01*
X33918044Y41153129D01*
X33897015Y41192472D01*
X33894074Y41198689D01*
X33876972Y41239975D01*
X33874666Y41246420D01*
X33861713Y41289123D01*
X33860045Y41295783D01*
X33851328Y41339595D01*
X33850322Y41346377D01*
X33849518Y41354543D01*
X33837813Y41392582D01*
X33812198Y41423043D01*
X33776731Y41441101D01*
X33737030Y41443895D01*
X33699383Y41430983D01*
X33669754Y41404411D01*
X33650482Y41354543D01*
X33649678Y41346377D01*
X33648672Y41339595D01*
X33639955Y41295783D01*
X33638287Y41289123D01*
X33625334Y41246420D01*
X33623028Y41239975D01*
X33605926Y41198689D01*
X33602985Y41192472D01*
X33581956Y41153129D01*
X33578428Y41147243D01*
X33553612Y41110100D01*
X33549523Y41104588D01*
X33521179Y41070052D01*
X33516575Y41064973D01*
X33485027Y41033425D01*
X33479948Y41028821D01*
X33445412Y41000477D01*
X33439900Y40996388D01*
X33402757Y40971572D01*
X33396871Y40968044D01*
X33357528Y40947015D01*
X33351311Y40944074D01*
X33310025Y40926972D01*
X33303580Y40924666D01*
X33260877Y40911713D01*
X33254217Y40910045D01*
X33210405Y40901328D01*
X33203622Y40900322D01*
X33159187Y40895945D01*
X33151130Y40895550D01*
X33128765Y40895000D01*
X32871235Y40895000D01*
X32848870Y40895550D01*
X32840813Y40895945D01*
X32796378Y40900322D01*
X32789595Y40901328D01*
X32745783Y40910045D01*
X32739123Y40911713D01*
X32696420Y40924666D01*
X32689975Y40926972D01*
X32648689Y40944074D01*
X32642472Y40947015D01*
X32603129Y40968044D01*
X32597243Y40971572D01*
X32560100Y40996388D01*
X32554588Y41000477D01*
X32520052Y41028821D01*
X32514973Y41033425D01*
X32483425Y41064973D01*
X32478821Y41070052D01*
X32448913Y41106493D01*
X32448621Y41106253D01*
X32420886Y41131184D01*
X32370169Y41145000D01*
X29042020Y41145000D01*
X29003016Y41137080D01*
X28971309Y41115711D01*
X26134289Y38278691D01*
X26112310Y38245511D01*
X26105000Y38207980D01*
X26105000Y36755000D01*
X26112920Y36715996D01*
X26135425Y36683171D01*
X26168952Y36661723D01*
X26205000Y36655000D01*
X26998770Y36655000D01*
X27021085Y36654453D01*
X27041945Y36653428D01*
X27086345Y36649054D01*
X27105785Y36646170D01*
X27149558Y36637463D01*
X27168581Y36632698D01*
X27211341Y36619727D01*
X27229818Y36613115D01*
X27271036Y36596042D01*
X27288766Y36587657D01*
X27328186Y36566587D01*
X27345000Y36556508D01*
X27382114Y36531709D01*
X27397882Y36520014D01*
X27432410Y36491678D01*
X27446935Y36478513D01*
X27478513Y36446935D01*
X27491678Y36432410D01*
X27520014Y36397882D01*
X27531709Y36382114D01*
X27556508Y36345000D01*
X27566587Y36328186D01*
X27587657Y36288766D01*
X27596042Y36271036D01*
X27613115Y36229818D01*
X27619727Y36211341D01*
X27632698Y36168581D01*
X27637463Y36149558D01*
X27646170Y36105785D01*
X27649054Y36086345D01*
X27653428Y36041945D01*
X27654453Y36021085D01*
X27655000Y35998770D01*
X27655000Y34001230D01*
X27654453Y33978915D01*
X27653428Y33958055D01*
X27649054Y33913655D01*
X27646170Y33894215D01*
X27637463Y33850442D01*
X27632698Y33831419D01*
X27619727Y33788659D01*
X27613115Y33770182D01*
X27596042Y33728964D01*
X27587657Y33711234D01*
X27566587Y33671814D01*
X27556508Y33655000D01*
X27531709Y33617886D01*
X27520014Y33602118D01*
X27491678Y33567590D01*
X27478513Y33553065D01*
X27446935Y33521487D01*
X27432410Y33508322D01*
X27397882Y33479986D01*
X27382114Y33468291D01*
X27345000Y33443492D01*
X27328186Y33433413D01*
X27288766Y33412343D01*
X27271036Y33403958D01*
X27229818Y33386885D01*
X27211341Y33380273D01*
X27168581Y33367302D01*
X27149558Y33362537D01*
X27105785Y33353830D01*
X27086345Y33350946D01*
X27041945Y33346572D01*
X27021085Y33345547D01*
X26998770Y33345000D01*
X26779838Y33345000D01*
X26740834Y33337080D01*
X26708009Y33314575D01*
X26686561Y33281048D01*
X26679889Y33241812D01*
X26689048Y33203081D01*
X26709127Y33174289D01*
X28189977Y31693439D01*
X28219961Y31660356D01*
X28308554Y31552405D01*
X28358099Y31478255D01*
X28422771Y31357262D01*
X28456896Y31274875D01*
X28496721Y31143589D01*
X28514120Y31056117D01*
X28524403Y30951717D01*
X28524403Y30951716D01*
X28527809Y30917145D01*
X28530000Y30872553D01*
X28530000Y24120156D01*
X28537920Y24081152D01*
X28560425Y24048327D01*
X28593952Y24026879D01*
X28644676Y24021239D01*
X28663642Y24024053D01*
X28708055Y24028428D01*
X28728915Y24029453D01*
X28751230Y24030000D01*
X30748770Y24030000D01*
X30771085Y24029453D01*
X30791945Y24028428D01*
X30836345Y24024054D01*
X30855785Y24021170D01*
X30899558Y24012463D01*
X30918581Y24007698D01*
X30961341Y23994727D01*
X30979818Y23988115D01*
X31021036Y23971042D01*
X31038766Y23962657D01*
X31078186Y23941587D01*
X31095000Y23931508D01*
X31132114Y23906709D01*
X31147882Y23895014D01*
X31182410Y23866678D01*
X31196935Y23853513D01*
X31228513Y23821935D01*
X31241678Y23807410D01*
X31270014Y23772882D01*
X31281709Y23757114D01*
X31306508Y23720000D01*
X31316587Y23703186D01*
X31337657Y23663766D01*
X31346042Y23646036D01*
X31363115Y23604818D01*
X31369727Y23586341D01*
X31382698Y23543581D01*
X31387463Y23524558D01*
X31396170Y23480785D01*
X31399054Y23461345D01*
X31403428Y23416945D01*
X31404453Y23396085D01*
X31405000Y23373770D01*
X31405000Y20376230D01*
X31404453Y20353915D01*
X31403428Y20333055D01*
X31399054Y20288655D01*
X31396170Y20269215D01*
X31387463Y20225442D01*
X31382698Y20206419D01*
X31369727Y20163659D01*
X31363115Y20145182D01*
X31346042Y20103964D01*
X31337657Y20086234D01*
X31316587Y20046814D01*
X31306508Y20030000D01*
X31281709Y19992886D01*
X31270014Y19977118D01*
X31241678Y19942590D01*
X31228513Y19928065D01*
X31196935Y19896487D01*
X31182410Y19883322D01*
X31147882Y19854986D01*
X31132114Y19843291D01*
X31095000Y19818492D01*
X31078186Y19808413D01*
X31038766Y19787343D01*
X31021036Y19778958D01*
X30979818Y19761885D01*
X30961341Y19755273D01*
X30918581Y19742302D01*
X30899558Y19737537D01*
X30855785Y19728830D01*
X30836345Y19725946D01*
X30791945Y19721572D01*
X30771085Y19720547D01*
X30748770Y19720000D01*
X28751230Y19720000D01*
X28728915Y19720547D01*
X28708055Y19721572D01*
X28663655Y19725946D01*
X28644215Y19728830D01*
X28600442Y19737537D01*
X28581419Y19742302D01*
X28538659Y19755273D01*
X28520182Y19761885D01*
X28478964Y19778958D01*
X28461234Y19787343D01*
X28421814Y19808413D01*
X28405000Y19818492D01*
X28367886Y19843291D01*
X28352118Y19854986D01*
X28317590Y19883322D01*
X28303065Y19896487D01*
X28271487Y19928065D01*
X28258322Y19942590D01*
X28229986Y19977118D01*
X28218291Y19992886D01*
X28193492Y20030000D01*
X28183413Y20046814D01*
X28162343Y20086234D01*
X28153958Y20103964D01*
X28136885Y20145182D01*
X28130273Y20163659D01*
X28117302Y20206419D01*
X28112537Y20225442D01*
X28103830Y20269215D01*
X28100946Y20288655D01*
X28096572Y20333055D01*
X28095547Y20353915D01*
X28095000Y20376230D01*
X28095000Y20620000D01*
X28087080Y20659004D01*
X28064575Y20691829D01*
X28031048Y20713277D01*
X27995000Y20720000D01*
X27377465Y20720000D01*
X27332843Y20722192D01*
X27193884Y20735879D01*
X27106410Y20753278D01*
X26975124Y20793103D01*
X26892737Y20827228D01*
X26771744Y20891900D01*
X26697594Y20941445D01*
X26591544Y21028478D01*
X26528478Y21091544D01*
X26441445Y21197594D01*
X26391900Y21271744D01*
X26327228Y21392737D01*
X26293103Y21475124D01*
X26253278Y21606410D01*
X26235879Y21693884D01*
X26222192Y21832843D01*
X26220000Y21877465D01*
X26220000Y30355162D01*
X26212080Y30394166D01*
X26190711Y30425873D01*
X24692623Y31923961D01*
X24684994Y31935079D01*
X24653459Y31966568D01*
X24566445Y32072594D01*
X24516900Y32146744D01*
X24452228Y32267737D01*
X24418103Y32350124D01*
X24378278Y32481410D01*
X24360879Y32568884D01*
X24347192Y32707843D01*
X24345000Y32752465D01*
X24345000Y33245000D01*
X24337080Y33284004D01*
X24314575Y33316829D01*
X24281048Y33338277D01*
X24245000Y33345000D01*
X24001230Y33345000D01*
X23978915Y33345547D01*
X23958055Y33346572D01*
X23913655Y33350946D01*
X23894215Y33353830D01*
X23850442Y33362537D01*
X23831419Y33367302D01*
X23788659Y33380273D01*
X23770182Y33386885D01*
X23728964Y33403958D01*
X23711234Y33412343D01*
X23671814Y33433413D01*
X23655000Y33443492D01*
X23617886Y33468291D01*
X23602118Y33479986D01*
X23567590Y33508322D01*
X23553065Y33521487D01*
X23521487Y33553065D01*
X23508322Y33567590D01*
X23479986Y33602118D01*
X23468291Y33617886D01*
X23443492Y33655000D01*
X23433413Y33671814D01*
X23412343Y33711234D01*
X23403958Y33728964D01*
X23386885Y33770182D01*
X23380273Y33788659D01*
X23367302Y33831419D01*
X23362537Y33850442D01*
X23353830Y33894215D01*
X23350946Y33913655D01*
X23346572Y33958055D01*
X23345547Y33978916D01*
X23345093Y33997451D01*
X23336219Y34036249D01*
X23312916Y34068512D01*
X23278875Y34089132D01*
X23245123Y34095000D01*
X23127463Y34095000D01*
X23082863Y34097191D01*
X22992641Y34106076D01*
X22905191Y34123472D01*
X22820790Y34149075D01*
X22738407Y34183198D01*
X22660636Y34224768D01*
X22586485Y34274313D01*
X22518344Y34330235D01*
X22486857Y34361770D01*
X22476487Y34368651D01*
X21829427Y35015711D01*
X21796247Y35037690D01*
X21758716Y35045000D01*
X17627463Y35045000D01*
X17582865Y35047191D01*
X17531659Y35052233D01*
X17444210Y35069628D01*
X17397326Y35083851D01*
X17314946Y35117973D01*
X17271744Y35141066D01*
X17197604Y35190604D01*
X17159767Y35221655D01*
X17128277Y35253192D01*
X17117908Y35260072D01*
X16710821Y35667159D01*
X16703192Y35678277D01*
X16674165Y35707261D01*
X16640969Y35729216D01*
X16601839Y35736484D01*
X16547950Y35719645D01*
X16492136Y35682351D01*
X16483525Y35677748D01*
X16401123Y35643618D01*
X16391762Y35640779D01*
X16304336Y35623388D01*
X16294606Y35622429D01*
X16205404Y35622429D01*
X16195677Y35623387D01*
X16166341Y35629223D01*
X16126541Y35629065D01*
X16089956Y35613397D01*
X16062379Y35584699D01*
X16048752Y35550655D01*
X16043457Y35524038D01*
X16038690Y35505006D01*
X16031423Y35481052D01*
X16024808Y35462565D01*
X16015242Y35439473D01*
X16006847Y35421721D01*
X15995052Y35399653D01*
X15984964Y35382822D01*
X15971068Y35362026D01*
X15959371Y35346254D01*
X15943494Y35326910D01*
X15930324Y35312379D01*
X15912621Y35294676D01*
X15898090Y35281506D01*
X15878746Y35265629D01*
X15862974Y35253932D01*
X15842178Y35240036D01*
X15825347Y35229948D01*
X15803275Y35218151D01*
X15786819Y35210368D01*
X15754947Y35186533D01*
X15734895Y35152154D01*
X15729840Y35112677D01*
X15740583Y35074355D01*
X15758863Y35049258D01*
X16219112Y34589009D01*
X16252292Y34567030D01*
X16289823Y34559720D01*
X20572761Y34559720D01*
X20590920Y34558828D01*
X20606614Y34557282D01*
X20642154Y34550212D01*
X20654914Y34546341D01*
X20688389Y34532475D01*
X20700153Y34526186D01*
X20730286Y34506053D01*
X20742483Y34496044D01*
X20755932Y34483854D01*
X24168854Y31070932D01*
X24181044Y31057483D01*
X24191053Y31045286D01*
X24211186Y31015153D01*
X24217475Y31003389D01*
X24231341Y30969914D01*
X24235212Y30957154D01*
X24242282Y30921614D01*
X24243828Y30905920D01*
X24244720Y30887761D01*
X24244720Y28730000D01*
X24252640Y28690996D01*
X24275145Y28658171D01*
X24308672Y28636723D01*
X24344720Y28630000D01*
X24740103Y28630000D01*
X24783952Y28625693D01*
X24829248Y28611164D01*
X24869335Y28587159D01*
X24902922Y28554675D01*
X24928251Y28515409D01*
X24943998Y28471418D01*
X24950000Y28419266D01*
X24950000Y26479897D01*
X24945693Y26436048D01*
X24931164Y26390752D01*
X24907159Y26350665D01*
X24874675Y26317078D01*
X24835409Y26291749D01*
X24791418Y26276002D01*
X24739266Y26270000D01*
X24149897Y26270000D01*
X24106048Y26274307D01*
X24060752Y26288836D01*
X24020665Y26312841D01*
X23987078Y26345325D01*
X23961749Y26384591D01*
X23946002Y26428582D01*
X23940000Y26480734D01*
X23940000Y28230628D01*
X23932080Y28269632D01*
X23910711Y28301339D01*
X23880711Y28331339D01*
X23847531Y28353318D01*
X23808406Y28360615D01*
X23769534Y28352075D01*
X23739289Y28331339D01*
X23709289Y28301339D01*
X23687310Y28268159D01*
X23680000Y28230628D01*
X23680000Y26479897D01*
X23675693Y26436048D01*
X23661164Y26390752D01*
X23637159Y26350665D01*
X23604675Y26317078D01*
X23565409Y26291749D01*
X23521418Y26276002D01*
X23469266Y26270000D01*
X22879897Y26270000D01*
X22836048Y26274307D01*
X22790752Y26288836D01*
X22750665Y26312841D01*
X22729924Y26332901D01*
X22696382Y26354324D01*
X22657141Y26360968D01*
X22618416Y26351780D01*
X22586342Y26328216D01*
X22568827Y26301197D01*
X22559593Y26280150D01*
X22519476Y26220425D01*
X22469418Y26168754D01*
X22410995Y26126763D01*
X22346054Y26095781D01*
X22276665Y26076795D01*
X22200545Y26070000D01*
X21608655Y26070000D01*
X21546780Y26074535D01*
X21476035Y26091502D01*
X21410151Y26120406D01*
X21350425Y26160524D01*
X21298754Y26210582D01*
X21256763Y26269005D01*
X21225781Y26333946D01*
X21206795Y26403335D01*
X21200000Y26479455D01*
X21200000Y28421345D01*
X21204535Y28483220D01*
X21221502Y28553965D01*
X21250406Y28619849D01*
X21283011Y28668389D01*
X21300000Y28724149D01*
X21300000Y29045000D01*
X21292080Y29084004D01*
X21269575Y29116829D01*
X21236048Y29138277D01*
X21200000Y29145000D01*
X21177874Y29145000D01*
X21138870Y29137080D01*
X21107163Y29115711D01*
X21092411Y29100959D01*
X21082981Y29092413D01*
X21048497Y29064114D01*
X21038224Y29056495D01*
X21001109Y29031694D01*
X20990159Y29025131D01*
X20950808Y29004097D01*
X20939277Y28998642D01*
X20898009Y28981548D01*
X20886002Y28977252D01*
X20843281Y28964293D01*
X20830901Y28961192D01*
X20787128Y28952485D01*
X20774499Y28950611D01*
X20730051Y28946234D01*
X20716130Y28945550D01*
X20693765Y28945000D01*
X20306235Y28945000D01*
X20283870Y28945550D01*
X20269949Y28946234D01*
X20225501Y28950611D01*
X20212872Y28952485D01*
X20169099Y28961192D01*
X20156719Y28964293D01*
X20113998Y28977252D01*
X20101991Y28981548D01*
X20060723Y28998642D01*
X20049192Y29004097D01*
X20009841Y29025131D01*
X19998891Y29031694D01*
X19961776Y29056495D01*
X19951502Y29064115D01*
X19938439Y29074835D01*
X19903265Y29093456D01*
X19863613Y29096884D01*
X19811561Y29074835D01*
X19798492Y29064109D01*
X19795433Y29061841D01*
X19768822Y29032246D01*
X19755000Y28981518D01*
X19755000Y28890922D01*
X19762920Y28851918D01*
X19785425Y28819093D01*
X19814824Y28799347D01*
X19859850Y28779593D01*
X19919575Y28739476D01*
X19971246Y28689418D01*
X20013237Y28630995D01*
X20044219Y28566054D01*
X20063205Y28496665D01*
X20070000Y28420545D01*
X20070000Y26478655D01*
X20065465Y26416780D01*
X20048498Y26346035D01*
X20019594Y26280151D01*
X19979476Y26220425D01*
X19929418Y26168754D01*
X19915574Y26158804D01*
X19888525Y26129609D01*
X19875005Y26092176D01*
X19875860Y26058087D01*
X19876608Y26054330D01*
X19877566Y26044602D01*
X19877566Y25955396D01*
X19876608Y25945670D01*
X19859216Y25858241D01*
X19856377Y25848880D01*
X19822247Y25766478D01*
X19817644Y25757867D01*
X19768093Y25683709D01*
X19761899Y25676161D01*
X19698846Y25613108D01*
X19691286Y25606904D01*
X19617132Y25557355D01*
X19608521Y25552752D01*
X19526119Y25518622D01*
X19516758Y25515783D01*
X19429332Y25498392D01*
X19419602Y25497433D01*
X19330400Y25497433D01*
X19320670Y25498391D01*
X19233241Y25515783D01*
X19223880Y25518622D01*
X19141478Y25552752D01*
X19132870Y25557353D01*
X19058697Y25606917D01*
X19049241Y25614678D01*
X19017062Y25643844D01*
X19009612Y25654701D01*
X18978080Y25686184D01*
X18971906Y25693708D01*
X18922355Y25767866D01*
X18917751Y25776479D01*
X18883626Y25858861D01*
X18880789Y25868215D01*
X18863389Y25955688D01*
X18862190Y25967870D01*
X18860000Y26012461D01*
X18860000Y26073930D01*
X18852080Y26112934D01*
X18815760Y26156941D01*
X18810426Y26160524D01*
X18800238Y26170394D01*
X18766714Y26191845D01*
X18727479Y26198521D01*
X18688747Y26189366D01*
X18666783Y26173790D01*
X18666661Y26173960D01*
X18663069Y26171378D01*
X18662467Y26170729D01*
X18658830Y26168149D01*
X18653201Y26162338D01*
X18653988Y26161576D01*
X18636021Y26142182D01*
X18622503Y26104748D01*
X18623357Y26070671D01*
X18626608Y26054327D01*
X18627566Y26044602D01*
X18627566Y25955396D01*
X18626608Y25945670D01*
X18609216Y25858241D01*
X18606377Y25848880D01*
X18572247Y25766478D01*
X18567644Y25757867D01*
X18518093Y25683709D01*
X18511899Y25676161D01*
X18448846Y25613108D01*
X18441286Y25606904D01*
X18367132Y25557355D01*
X18358521Y25552752D01*
X18276119Y25518622D01*
X18266758Y25515783D01*
X18179332Y25498392D01*
X18169602Y25497433D01*
X18080400Y25497433D01*
X18070670Y25498391D01*
X17983241Y25515783D01*
X17973880Y25518622D01*
X17891478Y25552752D01*
X17882870Y25557353D01*
X17808697Y25606917D01*
X17799241Y25614678D01*
X17766185Y25644639D01*
X17747241Y25663583D01*
X17739612Y25674701D01*
X17708080Y25706184D01*
X17701906Y25713708D01*
X17652355Y25787866D01*
X17647751Y25796479D01*
X17613626Y25878861D01*
X17610789Y25888215D01*
X17593389Y25975688D01*
X17592190Y25987870D01*
X17590000Y26032461D01*
X17590000Y26073930D01*
X17582080Y26112934D01*
X17545760Y26156941D01*
X17540426Y26160524D01*
X17530238Y26170394D01*
X17496714Y26191845D01*
X17457479Y26198521D01*
X17418747Y26189366D01*
X17396788Y26173792D01*
X17396665Y26173963D01*
X17371625Y26155966D01*
X17344576Y26126772D01*
X17330108Y26079671D01*
X17327807Y26032836D01*
X17326609Y26020674D01*
X17309209Y25933212D01*
X17306373Y25923861D01*
X17272248Y25841479D01*
X17267644Y25832866D01*
X17218093Y25758708D01*
X17211779Y25751014D01*
X17180230Y25719227D01*
X17174152Y25709976D01*
X16865777Y25401601D01*
X16855772Y25394769D01*
X16823985Y25363220D01*
X16816291Y25356906D01*
X16742133Y25307355D01*
X16733520Y25302751D01*
X16651138Y25268626D01*
X16641794Y25265792D01*
X16554304Y25248389D01*
X16542133Y25247191D01*
X16497537Y25245000D01*
X15750598Y25245000D01*
X15711594Y25237080D01*
X15679887Y25215711D01*
X15284289Y24820113D01*
X15262310Y24786933D01*
X15255000Y24749402D01*
X15255000Y24002446D01*
X15252809Y23957855D01*
X15251609Y23945674D01*
X15233251Y23853395D01*
X15233912Y23853264D01*
X15230714Y23819401D01*
X15242724Y23781456D01*
X15268582Y23751201D01*
X15304192Y23733428D01*
X15330151Y23730000D01*
X15850103Y23730000D01*
X15893952Y23725693D01*
X15939248Y23711164D01*
X15979335Y23687159D01*
X16012922Y23654675D01*
X16038251Y23615409D01*
X16053998Y23571418D01*
X16060000Y23519266D01*
X16060000Y21743760D01*
X16067920Y21704756D01*
X16089289Y21673049D01*
X16119289Y21643049D01*
X16152469Y21621070D01*
X16191594Y21613773D01*
X16230466Y21622313D01*
X16260711Y21643049D01*
X16290711Y21673049D01*
X16312690Y21706229D01*
X16320000Y21743760D01*
X16320000Y23520103D01*
X16324307Y23563952D01*
X16338836Y23609248D01*
X16362841Y23649335D01*
X16395325Y23682922D01*
X16434591Y23708251D01*
X16478582Y23723998D01*
X16530734Y23730000D01*
X17120103Y23730000D01*
X17163952Y23725693D01*
X17209248Y23711164D01*
X17249335Y23687159D01*
X17282922Y23654675D01*
X17308251Y23615409D01*
X17323998Y23571418D01*
X17330000Y23519266D01*
X17330000Y21579897D01*
X17325693Y21536048D01*
X17311164Y21490752D01*
X17287159Y21450665D01*
X17254675Y21417078D01*
X17215409Y21391749D01*
X17171418Y21376002D01*
X17119266Y21370000D01*
X16706610Y21370000D01*
X16667606Y21362080D01*
X16634781Y21339575D01*
X16613333Y21306048D01*
X16606610Y21270000D01*
X16606610Y20742239D01*
X16605718Y20724081D01*
X16604520Y20711921D01*
X16597447Y20676368D01*
X16594611Y20667019D01*
X16580738Y20633529D01*
X16576134Y20624915D01*
X16555992Y20594771D01*
X16549673Y20587071D01*
X16536769Y20574069D01*
X16533945Y20569771D01*
X16120578Y20156404D01*
X16115930Y20153230D01*
X16102928Y20140326D01*
X16095228Y20134007D01*
X16065084Y20113865D01*
X16056470Y20109261D01*
X16022980Y20095388D01*
X16013627Y20092551D01*
X15978081Y20085480D01*
X15965899Y20084281D01*
X15947764Y20083390D01*
X12588986Y20083390D01*
X12549982Y20075470D01*
X12518275Y20054101D01*
X10945899Y18481725D01*
X10923920Y18448545D01*
X10916610Y18411014D01*
X10916610Y16957150D01*
X10924530Y16918146D01*
X10945899Y16886439D01*
X10986296Y16846042D01*
X11019476Y16824063D01*
X11058601Y16816766D01*
X11099763Y16826354D01*
X11136899Y16843918D01*
X11160018Y16853494D01*
X11221357Y16875443D01*
X11245313Y16882710D01*
X11308506Y16898538D01*
X11333053Y16903421D01*
X11397506Y16912981D01*
X11422424Y16915435D01*
X11487476Y16918632D01*
X11512524Y16918632D01*
X11577576Y16915435D01*
X11602494Y16912981D01*
X11666947Y16903421D01*
X11691494Y16898538D01*
X11754687Y16882710D01*
X11778643Y16875443D01*
X11839982Y16853494D01*
X11863109Y16843915D01*
X11922001Y16816061D01*
X11944074Y16804263D01*
X11999961Y16770766D01*
X12020768Y16756863D01*
X12073107Y16718046D01*
X12092441Y16702179D01*
X12140717Y16658425D01*
X12158432Y16640710D01*
X12159293Y16639760D01*
X12159630Y16639512D01*
X12160155Y16638987D01*
X12160235Y16639067D01*
X12191353Y16616178D01*
X12230073Y16606968D01*
X12269317Y16613590D01*
X12302871Y16634994D01*
X12325419Y16667790D01*
X12333390Y16706913D01*
X12333390Y17822764D01*
X12334281Y17840899D01*
X12335480Y17853081D01*
X12342551Y17888627D01*
X12345388Y17897980D01*
X12359261Y17931470D01*
X12363865Y17940084D01*
X12384007Y17970228D01*
X12390326Y17977928D01*
X12403230Y17990930D01*
X12406054Y17995228D01*
X13504421Y19093595D01*
X13509069Y19096769D01*
X13522071Y19109673D01*
X13529771Y19115992D01*
X13559915Y19136134D01*
X13568529Y19140738D01*
X13602019Y19154611D01*
X13611368Y19157447D01*
X13646921Y19164520D01*
X13659081Y19165718D01*
X13677239Y19166610D01*
X17661014Y19166610D01*
X17700018Y19174530D01*
X17731725Y19195899D01*
X18284101Y19748275D01*
X18306080Y19781455D01*
X18313390Y19818986D01*
X18313390Y21270000D01*
X18305470Y21309004D01*
X18282965Y21341829D01*
X18249438Y21363277D01*
X18213390Y21370000D01*
X17799897Y21370000D01*
X17756048Y21374307D01*
X17710752Y21388836D01*
X17670665Y21412841D01*
X17637078Y21445325D01*
X17611749Y21484591D01*
X17596002Y21528582D01*
X17590000Y21580734D01*
X17590000Y23520103D01*
X17594307Y23563952D01*
X17608836Y23609248D01*
X17632841Y23649335D01*
X17665325Y23682922D01*
X17704591Y23708251D01*
X17748582Y23723998D01*
X17800734Y23730000D01*
X18390103Y23730000D01*
X18433952Y23725693D01*
X18479248Y23711164D01*
X18519335Y23687159D01*
X18552922Y23654675D01*
X18578251Y23615409D01*
X18593998Y23571418D01*
X18600000Y23519266D01*
X18600000Y21743760D01*
X18607920Y21704756D01*
X18629289Y21673049D01*
X18659289Y21643049D01*
X18692469Y21621070D01*
X18731594Y21613773D01*
X18770466Y21622313D01*
X18800711Y21643049D01*
X18830711Y21673049D01*
X18852690Y21706229D01*
X18860000Y21743760D01*
X18860000Y23520103D01*
X18864307Y23563952D01*
X18878836Y23609248D01*
X18902841Y23649335D01*
X18935325Y23682922D01*
X18974591Y23708251D01*
X19018582Y23723998D01*
X19070734Y23730000D01*
X19660103Y23730000D01*
X19703952Y23725693D01*
X19749248Y23711164D01*
X19789335Y23687159D01*
X19822922Y23654675D01*
X19848251Y23615409D01*
X19863998Y23571418D01*
X19870000Y23519266D01*
X19870000Y21579897D01*
X19865693Y21536048D01*
X19851164Y21490752D01*
X19827159Y21450665D01*
X19794675Y21417078D01*
X19755409Y21391749D01*
X19711418Y21376002D01*
X19659266Y21370000D01*
X19246610Y21370000D01*
X19207606Y21362080D01*
X19174781Y21339575D01*
X19153333Y21306048D01*
X19146610Y21270000D01*
X19146610Y19532239D01*
X19145718Y19514081D01*
X19144520Y19501921D01*
X19137447Y19466368D01*
X19134611Y19457019D01*
X19120738Y19423529D01*
X19116134Y19414915D01*
X19095992Y19384771D01*
X19089673Y19377071D01*
X19076769Y19364069D01*
X19073945Y19359771D01*
X18120578Y18406404D01*
X18115930Y18403230D01*
X18102928Y18390326D01*
X18095228Y18384007D01*
X18065084Y18363865D01*
X18056470Y18359261D01*
X18022980Y18345388D01*
X18013627Y18342551D01*
X17978081Y18335480D01*
X17965899Y18334281D01*
X17947764Y18333390D01*
X13963986Y18333390D01*
X13924982Y18325470D01*
X13893275Y18304101D01*
X13195899Y17606725D01*
X13173920Y17573545D01*
X13166610Y17536014D01*
X13166610Y15052239D01*
X13165718Y15034081D01*
X13164520Y15021921D01*
X13157447Y14986368D01*
X13154611Y14977019D01*
X13140738Y14943529D01*
X13136134Y14934915D01*
X13115992Y14904771D01*
X13109673Y14897071D01*
X13096769Y14884069D01*
X13093945Y14879771D01*
X12620578Y14406404D01*
X12615930Y14403230D01*
X12602928Y14390326D01*
X12595228Y14384007D01*
X12565084Y14363865D01*
X12556470Y14359261D01*
X12522980Y14345388D01*
X12513627Y14342551D01*
X12478081Y14335480D01*
X12465899Y14334281D01*
X12447764Y14333390D01*
X12056301Y14333390D01*
X12017297Y14325470D01*
X11984472Y14302965D01*
X11963024Y14269438D01*
X11956352Y14230202D01*
X11965511Y14191471D01*
X12000744Y14150243D01*
X12020768Y14136863D01*
X12073107Y14098046D01*
X12092441Y14082179D01*
X12140717Y14038425D01*
X12158425Y14020717D01*
X12202179Y13972441D01*
X12218046Y13953107D01*
X12256863Y13900768D01*
X12270766Y13879961D01*
X12304263Y13824074D01*
X12316061Y13802001D01*
X12343915Y13743109D01*
X12353494Y13719982D01*
X12375443Y13658643D01*
X12382710Y13634687D01*
X12398538Y13571494D01*
X12403421Y13546947D01*
X12412981Y13482494D01*
X12415435Y13457576D01*
X12418632Y13392524D01*
X12418632Y13367476D01*
X12415435Y13302424D01*
X12412981Y13277506D01*
X12403421Y13213053D01*
X12398538Y13188506D01*
X12382710Y13125313D01*
X12375443Y13101357D01*
X12353494Y13040018D01*
X12343915Y13016891D01*
X12316061Y12957999D01*
X12304263Y12935926D01*
X12270766Y12880039D01*
X12256863Y12859232D01*
X12218046Y12806893D01*
X12202179Y12787559D01*
X12158425Y12739283D01*
X12140717Y12721575D01*
X12092441Y12677821D01*
X12073107Y12661954D01*
X12020768Y12623137D01*
X11999961Y12609234D01*
X11944074Y12575737D01*
X11922001Y12563939D01*
X11863109Y12536085D01*
X11839982Y12526506D01*
X11778643Y12504557D01*
X11754687Y12497290D01*
X11691494Y12481462D01*
X11666947Y12476579D01*
X11602494Y12467019D01*
X11577576Y12464565D01*
X11512524Y12461368D01*
X11487476Y12461368D01*
X11422424Y12464565D01*
X11397506Y12467019D01*
X11333053Y12476579D01*
X11308506Y12481462D01*
X11245313Y12497290D01*
X11221357Y12504557D01*
X11160018Y12526506D01*
X11136891Y12536085D01*
X11077999Y12563939D01*
X11055926Y12575737D01*
X11000039Y12609234D01*
X10979232Y12623137D01*
X10926893Y12661954D01*
X10907559Y12677821D01*
X10859283Y12721575D01*
X10841575Y12739283D01*
X10797821Y12787559D01*
X10781954Y12806893D01*
X10743137Y12859232D01*
X10729234Y12880039D01*
X10695737Y12935926D01*
X10683939Y12957999D01*
X10656085Y13016891D01*
X10646506Y13040018D01*
X10624557Y13101357D01*
X10617290Y13125313D01*
X10601462Y13188503D01*
X10598079Y13205513D01*
X10582702Y13242222D01*
X10554225Y13270026D01*
X10517159Y13284521D01*
X10477375Y13283411D01*
X10441175Y13266872D01*
X10414292Y13237523D01*
X10401921Y13205513D01*
X10398538Y13188503D01*
X10382710Y13125313D01*
X10375443Y13101357D01*
X10353494Y13040018D01*
X10343915Y13016891D01*
X10316061Y12957999D01*
X10304263Y12935926D01*
X10270766Y12880039D01*
X10256863Y12859232D01*
X10218046Y12806893D01*
X10202179Y12787559D01*
X10158425Y12739283D01*
X10140717Y12721575D01*
X10092441Y12677821D01*
X10073107Y12661954D01*
X10020768Y12623137D01*
X9999961Y12609234D01*
X9944074Y12575737D01*
X9922001Y12563939D01*
X9863109Y12536085D01*
X9839982Y12526506D01*
X9778643Y12504557D01*
X9754687Y12497290D01*
X9691494Y12481462D01*
X9666947Y12476579D01*
X9602494Y12467019D01*
X9577576Y12464565D01*
X9512524Y12461368D01*
X9487476Y12461368D01*
X9422424Y12464565D01*
X9397506Y12467019D01*
X9333053Y12476579D01*
X9308506Y12481462D01*
X9245313Y12497290D01*
X9221357Y12504557D01*
X9160018Y12526506D01*
X9136891Y12536085D01*
X9077999Y12563939D01*
X9055926Y12575737D01*
X9000039Y12609234D01*
X8979232Y12623137D01*
X8926893Y12661954D01*
X8907559Y12677821D01*
X8859283Y12721575D01*
X8841575Y12739283D01*
X8797821Y12787559D01*
X8781954Y12806893D01*
X8743137Y12859232D01*
X8729234Y12880039D01*
X8695737Y12935926D01*
X8683939Y12957999D01*
X8656085Y13016891D01*
X8646506Y13040018D01*
X8624557Y13101357D01*
X8617290Y13125313D01*
X8601462Y13188506D01*
X8596579Y13213053D01*
X8587019Y13277506D01*
X8584565Y13302424D01*
X8581368Y13367476D01*
X8581368Y13392524D01*
X8584565Y13457576D01*
X8587019Y13482494D01*
X8596579Y13546947D01*
X8601462Y13571494D01*
X8617290Y13634687D01*
X8624557Y13658643D01*
X8646506Y13719982D01*
X8656085Y13743109D01*
X8683939Y13802001D01*
X8695737Y13824074D01*
X8729234Y13879961D01*
X8743137Y13900768D01*
X8781954Y13953107D01*
X8797821Y13972441D01*
X8841575Y14020717D01*
X8859283Y14038425D01*
X8907559Y14082179D01*
X8926893Y14098046D01*
X8979232Y14136863D01*
X9000039Y14150766D01*
X9055926Y14184263D01*
X9077999Y14196061D01*
X9136891Y14223915D01*
X9160018Y14233494D01*
X9221357Y14255443D01*
X9245313Y14262710D01*
X9308506Y14278538D01*
X9333053Y14283421D01*
X9397506Y14292981D01*
X9422424Y14295435D01*
X9487476Y14298632D01*
X9512524Y14298632D01*
X9577576Y14295435D01*
X9602494Y14292981D01*
X9666947Y14283421D01*
X9691494Y14278538D01*
X9754687Y14262710D01*
X9778643Y14255443D01*
X9839982Y14233494D01*
X9863101Y14223918D01*
X9900237Y14206354D01*
X9938882Y14196838D01*
X9978179Y14203148D01*
X10013704Y14226042D01*
X10054101Y14266439D01*
X10076080Y14299619D01*
X10083390Y14337150D01*
X10083390Y14572764D01*
X10084281Y14590899D01*
X10085480Y14603081D01*
X10092551Y14638627D01*
X10095388Y14647980D01*
X10109261Y14681470D01*
X10113865Y14690084D01*
X10134007Y14720228D01*
X10140326Y14727928D01*
X10153230Y14740930D01*
X10156054Y14745228D01*
X10504421Y15093595D01*
X10509069Y15096769D01*
X10522071Y15109673D01*
X10529771Y15115992D01*
X10559915Y15136134D01*
X10568529Y15140738D01*
X10602019Y15154611D01*
X10611368Y15157447D01*
X10646921Y15164520D01*
X10659081Y15165718D01*
X10677239Y15166610D01*
X10793087Y15166610D01*
X10832091Y15174530D01*
X10864916Y15197035D01*
X10886364Y15230562D01*
X10893036Y15269798D01*
X10883877Y15308529D01*
X10860932Y15339764D01*
X10861013Y15339845D01*
X10860486Y15340372D01*
X10860240Y15340707D01*
X10859290Y15341568D01*
X10841575Y15359283D01*
X10797821Y15407559D01*
X10781954Y15426893D01*
X10743137Y15479232D01*
X10729234Y15500039D01*
X10695737Y15555926D01*
X10683939Y15577999D01*
X10656085Y15636891D01*
X10646506Y15660018D01*
X10624557Y15721357D01*
X10617290Y15745313D01*
X10601462Y15808503D01*
X10598079Y15825513D01*
X10582702Y15862222D01*
X10554225Y15890026D01*
X10517159Y15904521D01*
X10477375Y15903411D01*
X10441175Y15886872D01*
X10414292Y15857523D01*
X10401921Y15825513D01*
X10398538Y15808503D01*
X10382710Y15745313D01*
X10375443Y15721357D01*
X10353494Y15660018D01*
X10343915Y15636891D01*
X10316061Y15577999D01*
X10304263Y15555926D01*
X10270766Y15500039D01*
X10256863Y15479232D01*
X10218046Y15426893D01*
X10202179Y15407559D01*
X10158425Y15359283D01*
X10140717Y15341575D01*
X10092441Y15297821D01*
X10073107Y15281954D01*
X10020768Y15243137D01*
X9999961Y15229234D01*
X9944074Y15195737D01*
X9922001Y15183939D01*
X9863109Y15156085D01*
X9839982Y15146506D01*
X9778643Y15124557D01*
X9754687Y15117290D01*
X9691494Y15101462D01*
X9666947Y15096579D01*
X9602494Y15087019D01*
X9577576Y15084565D01*
X9512524Y15081368D01*
X9487476Y15081368D01*
X9422424Y15084565D01*
X9397506Y15087019D01*
X9333053Y15096579D01*
X9308506Y15101462D01*
X9245313Y15117290D01*
X9221357Y15124557D01*
X9160018Y15146506D01*
X9136891Y15156085D01*
X9077999Y15183939D01*
X9055926Y15195737D01*
X9000039Y15229234D01*
X8979232Y15243137D01*
X8926893Y15281954D01*
X8907559Y15297821D01*
X8859283Y15341575D01*
X8841575Y15359283D01*
X8797821Y15407559D01*
X8781954Y15426893D01*
X8743137Y15479232D01*
X8729234Y15500039D01*
X8695737Y15555926D01*
X8683939Y15577999D01*
X8656085Y15636891D01*
X8646506Y15660018D01*
X8624557Y15721357D01*
X8617290Y15745313D01*
X8601462Y15808506D01*
X8596579Y15833053D01*
X8587019Y15897506D01*
X8584565Y15922424D01*
X8581368Y15987476D01*
X8581368Y16012524D01*
X8584565Y16077576D01*
X8587019Y16102494D01*
X8596579Y16166947D01*
X8601462Y16191494D01*
X8617290Y16254687D01*
X8624557Y16278643D01*
X8646506Y16339982D01*
X8656085Y16363109D01*
X8683939Y16422001D01*
X8695737Y16444074D01*
X8729234Y16499961D01*
X8743137Y16520768D01*
X8781954Y16573107D01*
X8797821Y16592441D01*
X8841575Y16640717D01*
X8859283Y16658425D01*
X8907559Y16702179D01*
X8926893Y16718046D01*
X8979232Y16756863D01*
X9000039Y16770766D01*
X9055926Y16804263D01*
X9077999Y16816061D01*
X9136891Y16843915D01*
X9160018Y16853494D01*
X9221357Y16875443D01*
X9245313Y16882710D01*
X9308506Y16898538D01*
X9333053Y16903421D01*
X9397506Y16912981D01*
X9422424Y16915435D01*
X9487476Y16918632D01*
X9512524Y16918632D01*
X9577576Y16915435D01*
X9602494Y16912981D01*
X9666947Y16903421D01*
X9691494Y16898538D01*
X9754687Y16882710D01*
X9778643Y16875443D01*
X9839982Y16853494D01*
X9863101Y16843918D01*
X9900237Y16826354D01*
X9938882Y16816838D01*
X9978179Y16823148D01*
X10013704Y16846042D01*
X10054101Y16886439D01*
X10076080Y16919619D01*
X10083390Y16957150D01*
X10083390Y18697764D01*
X10084281Y18715899D01*
X10085480Y18728081D01*
X10092551Y18763627D01*
X10095388Y18772980D01*
X10109261Y18806470D01*
X10113865Y18815084D01*
X10134007Y18845228D01*
X10140326Y18852928D01*
X10153230Y18865930D01*
X10156054Y18870228D01*
X12129421Y20843595D01*
X12134069Y20846769D01*
X12147071Y20859673D01*
X12154771Y20865992D01*
X12184915Y20886134D01*
X12193529Y20890738D01*
X12227019Y20904611D01*
X12236368Y20907447D01*
X12271921Y20914520D01*
X12284081Y20915718D01*
X12302239Y20916610D01*
X15661014Y20916610D01*
X15700018Y20924530D01*
X15731725Y20945899D01*
X15744101Y20958275D01*
X15766080Y20991455D01*
X15773390Y21028986D01*
X15773390Y21270000D01*
X15765470Y21309004D01*
X15742965Y21341829D01*
X15709438Y21363277D01*
X15673390Y21370000D01*
X15259897Y21370000D01*
X15216048Y21374307D01*
X15170752Y21388836D01*
X15130665Y21412841D01*
X15097078Y21445325D01*
X15071749Y21484591D01*
X15056002Y21528582D01*
X15050000Y21580734D01*
X15050000Y23344402D01*
X15042080Y23383406D01*
X15019575Y23416231D01*
X14986048Y23437679D01*
X14946812Y23444351D01*
X14908081Y23435192D01*
X14879289Y23415113D01*
X14865777Y23401601D01*
X14855772Y23394769D01*
X14823985Y23363220D01*
X14816291Y23356906D01*
X14742133Y23307355D01*
X14733520Y23302751D01*
X14651138Y23268626D01*
X14641785Y23265789D01*
X14635490Y23264537D01*
X14598781Y23249160D01*
X14570978Y23220683D01*
X14555000Y23166459D01*
X14555000Y21953655D01*
X14550465Y21891780D01*
X14533498Y21821035D01*
X14504594Y21755151D01*
X14464476Y21695425D01*
X14414418Y21643754D01*
X14355995Y21601763D01*
X14291054Y21570781D01*
X14221665Y21551795D01*
X14145545Y21545000D01*
X12953655Y21545000D01*
X12891780Y21549535D01*
X12821035Y21566502D01*
X12755151Y21595406D01*
X12695425Y21635524D01*
X12643754Y21685582D01*
X12601763Y21744005D01*
X12570781Y21808946D01*
X12551795Y21878335D01*
X12545000Y21954455D01*
X12545000Y23346345D01*
X12549535Y23408220D01*
X12566502Y23478965D01*
X12595406Y23544849D01*
X12625224Y23589240D01*
X12640398Y23626034D01*
X12640019Y23665832D01*
X12624148Y23702330D01*
X12595298Y23729747D01*
X12542213Y23745000D01*
X11353655Y23745000D01*
X11291780Y23749535D01*
X11221035Y23766502D01*
X11155151Y23795406D01*
X11095425Y23835524D01*
X11043754Y23885582D01*
X11001763Y23944005D01*
X10970781Y24008946D01*
X10951795Y24078335D01*
X10945000Y24154455D01*
X10945000Y25546345D01*
X10949535Y25608220D01*
X10966502Y25678965D01*
X10995406Y25744849D01*
X11035524Y25804575D01*
X11085582Y25856246D01*
X11144005Y25898237D01*
X11208946Y25929219D01*
X11278335Y25948205D01*
X11354455Y25955000D01*
X11462501Y25955000D01*
X11501505Y25962920D01*
X11545648Y25999443D01*
X11556906Y26016291D01*
X11563220Y26023985D01*
X11594769Y26055772D01*
X11600847Y26065023D01*
X12134222Y26598398D01*
X12144227Y26605230D01*
X12176014Y26636779D01*
X12183708Y26643093D01*
X12257866Y26692644D01*
X12266479Y26697248D01*
X12348861Y26731373D01*
X12358212Y26734209D01*
X12445674Y26751609D01*
X12457855Y26752809D01*
X12502446Y26755000D01*
X13499402Y26755000D01*
X13538406Y26762920D01*
X13570113Y26784289D01*
X14584222Y27798398D01*
X14594227Y27805230D01*
X14626014Y27836779D01*
X14633708Y27843093D01*
X14707866Y27892644D01*
X14716479Y27897248D01*
X14788269Y27926985D01*
X14821273Y27949229D01*
X14842987Y27982583D01*
X14850000Y28019373D01*
X14850000Y28421345D01*
X14854535Y28483220D01*
X14871502Y28553965D01*
X14900406Y28619849D01*
X14940524Y28679575D01*
X14990582Y28731246D01*
X15049005Y28773237D01*
X15113946Y28804219D01*
X15183335Y28823205D01*
X15259455Y28830000D01*
X15851345Y28830000D01*
X15913220Y28825465D01*
X15983965Y28808498D01*
X16049849Y28779594D01*
X16109574Y28739476D01*
X16119762Y28729606D01*
X16153286Y28708155D01*
X16192521Y28701479D01*
X16231253Y28710634D01*
X16253212Y28726208D01*
X16253335Y28726037D01*
X16319005Y28773237D01*
X16383946Y28804219D01*
X16453335Y28823205D01*
X16529455Y28830000D01*
X17121345Y28830000D01*
X17183220Y28825465D01*
X17253965Y28808498D01*
X17319847Y28779595D01*
X17339241Y28766568D01*
X17376034Y28751395D01*
X17415832Y28751774D01*
X17452330Y28767645D01*
X17479747Y28796495D01*
X17495000Y28849580D01*
X17495000Y28981518D01*
X17487080Y29020522D01*
X17454567Y29061841D01*
X17451510Y29064108D01*
X17417019Y29092413D01*
X17407589Y29100959D01*
X17375959Y29132589D01*
X17367413Y29142019D01*
X17339114Y29176503D01*
X17331495Y29186776D01*
X17306694Y29223891D01*
X17300131Y29234841D01*
X17279097Y29274192D01*
X17273642Y29285723D01*
X17256548Y29326991D01*
X17252252Y29338998D01*
X17239293Y29381719D01*
X17236192Y29394099D01*
X17227485Y29437872D01*
X17225611Y29450501D01*
X17221234Y29494949D01*
X17220550Y29508870D01*
X17220000Y29531235D01*
X17220000Y29968765D01*
X17220550Y29991130D01*
X17221234Y30005051D01*
X17225611Y30049499D01*
X17227485Y30062128D01*
X17236192Y30105901D01*
X17239293Y30118281D01*
X17252252Y30161002D01*
X17256548Y30173009D01*
X17273642Y30214277D01*
X17279097Y30225808D01*
X17300131Y30265159D01*
X17306694Y30276109D01*
X17331495Y30313224D01*
X17339114Y30323497D01*
X17367413Y30357981D01*
X17375959Y30367411D01*
X17407589Y30399041D01*
X17417019Y30407587D01*
X17451503Y30435886D01*
X17461776Y30443505D01*
X17498891Y30468306D01*
X17509841Y30474869D01*
X17549192Y30495903D01*
X17560723Y30501358D01*
X17601991Y30518452D01*
X17613998Y30522748D01*
X17656719Y30535707D01*
X17669099Y30538808D01*
X17712872Y30547515D01*
X17725501Y30549389D01*
X17769949Y30553766D01*
X17783870Y30554450D01*
X17806235Y30555000D01*
X18193765Y30555000D01*
X18216130Y30554450D01*
X18230051Y30553766D01*
X18274499Y30549389D01*
X18287128Y30547515D01*
X18330901Y30538808D01*
X18343281Y30535707D01*
X18386002Y30522748D01*
X18398009Y30518452D01*
X18439277Y30501358D01*
X18450808Y30495903D01*
X18490159Y30474869D01*
X18501109Y30468306D01*
X18538224Y30443505D01*
X18548498Y30435885D01*
X18561561Y30425165D01*
X18596735Y30406544D01*
X18636387Y30403116D01*
X18688439Y30425165D01*
X18701502Y30435885D01*
X18711776Y30443505D01*
X18748891Y30468306D01*
X18759841Y30474869D01*
X18799192Y30495903D01*
X18810723Y30501358D01*
X18851991Y30518452D01*
X18863998Y30522748D01*
X18906719Y30535707D01*
X18919099Y30538808D01*
X18962872Y30547515D01*
X18975501Y30549389D01*
X19019949Y30553766D01*
X19033870Y30554450D01*
X19056235Y30555000D01*
X19443765Y30555000D01*
X19466130Y30554450D01*
X19480051Y30553766D01*
X19524499Y30549389D01*
X19537128Y30547515D01*
X19580901Y30538808D01*
X19593281Y30535707D01*
X19636002Y30522748D01*
X19648009Y30518452D01*
X19689277Y30501358D01*
X19700808Y30495903D01*
X19740159Y30474869D01*
X19751109Y30468306D01*
X19788224Y30443505D01*
X19798498Y30435885D01*
X19811561Y30425165D01*
X19846735Y30406544D01*
X19886387Y30403116D01*
X19938439Y30425165D01*
X19951502Y30435885D01*
X19961776Y30443505D01*
X19998891Y30468306D01*
X20009841Y30474869D01*
X20049192Y30495903D01*
X20060723Y30501358D01*
X20101991Y30518452D01*
X20113998Y30522748D01*
X20156719Y30535707D01*
X20169099Y30538808D01*
X20212872Y30547515D01*
X20225501Y30549389D01*
X20269949Y30553766D01*
X20283870Y30554450D01*
X20306235Y30555000D01*
X20693765Y30555000D01*
X20716130Y30554450D01*
X20730051Y30553766D01*
X20774499Y30549389D01*
X20787128Y30547515D01*
X20830901Y30538808D01*
X20843281Y30535707D01*
X20886002Y30522748D01*
X20898009Y30518452D01*
X20939277Y30501358D01*
X20950808Y30495903D01*
X20990159Y30474869D01*
X21001109Y30468306D01*
X21038224Y30443505D01*
X21048497Y30435886D01*
X21082981Y30407587D01*
X21092411Y30399041D01*
X21107163Y30384289D01*
X21140343Y30362310D01*
X21177874Y30355000D01*
X21872535Y30355000D01*
X21917158Y30352808D01*
X21948824Y30349689D01*
X22036294Y30332289D01*
X22064406Y30323761D01*
X22146788Y30289636D01*
X22172690Y30275791D01*
X22246841Y30226246D01*
X22271446Y30206053D01*
X22304530Y30176068D01*
X22331083Y30149515D01*
X22360911Y30116619D01*
X22381252Y30091834D01*
X22430788Y30017696D01*
X22444636Y29991788D01*
X22478761Y29909406D01*
X22487289Y29881294D01*
X22504689Y29793824D01*
X22507808Y29762158D01*
X22510000Y29717535D01*
X22510000Y28723360D01*
X22517920Y28684356D01*
X22528798Y28664997D01*
X22553239Y28630992D01*
X22570037Y28595783D01*
X22593980Y28563991D01*
X22628426Y28544056D01*
X22667920Y28539134D01*
X22706206Y28550007D01*
X22732172Y28569322D01*
X22745325Y28582922D01*
X22784591Y28608251D01*
X22828582Y28623998D01*
X22880734Y28630000D01*
X23275280Y28630000D01*
X23314284Y28637920D01*
X23347109Y28660425D01*
X23368557Y28693952D01*
X23375280Y28730000D01*
X23375280Y30593512D01*
X23367360Y30632516D01*
X23345991Y30664223D01*
X20349223Y33660991D01*
X20316043Y33682970D01*
X20278512Y33690280D01*
X15995572Y33690280D01*
X15977436Y33691171D01*
X15961727Y33692717D01*
X15926176Y33699789D01*
X15913421Y33703658D01*
X15879946Y33717524D01*
X15868182Y33723813D01*
X15838049Y33743946D01*
X15827782Y33752372D01*
X15814986Y33765186D01*
X15810167Y33768383D01*
X14893732Y34684818D01*
X14890186Y34689986D01*
X14877372Y34702782D01*
X14868946Y34713049D01*
X14848813Y34743182D01*
X14842524Y34754946D01*
X14828658Y34788421D01*
X14824789Y34801176D01*
X14817717Y34836727D01*
X14816171Y34852436D01*
X14815280Y34870572D01*
X14815280Y35101957D01*
X14807360Y35140961D01*
X14784855Y35173786D01*
X14748971Y35196111D01*
X14737559Y35200195D01*
X14714473Y35209758D01*
X14696725Y35218151D01*
X14674653Y35229948D01*
X14657822Y35240036D01*
X14637026Y35253932D01*
X14621254Y35265629D01*
X14601910Y35281506D01*
X14587379Y35294676D01*
X14569676Y35312379D01*
X14556506Y35326910D01*
X14540629Y35346254D01*
X14528932Y35362026D01*
X14515036Y35382822D01*
X14504948Y35399653D01*
X14493153Y35421721D01*
X14484758Y35439473D01*
X14475192Y35462565D01*
X14468577Y35481052D01*
X14461310Y35505006D01*
X14456546Y35524023D01*
X14451663Y35548574D01*
X14448783Y35567989D01*
X14446332Y35592881D01*
X14445368Y35612498D01*
X14445368Y35637502D01*
X14446332Y35657119D01*
X14448783Y35682011D01*
X14451663Y35701426D01*
X14456546Y35725977D01*
X14461310Y35744994D01*
X14468577Y35768948D01*
X14475192Y35787435D01*
X14484758Y35810527D01*
X14493153Y35828279D01*
X14504948Y35850347D01*
X14515036Y35867178D01*
X14528932Y35887974D01*
X14540629Y35903746D01*
X14556506Y35923090D01*
X14569676Y35937621D01*
X14587379Y35955324D01*
X14601910Y35968494D01*
X14621254Y35984371D01*
X14637026Y35996068D01*
X14657822Y36009964D01*
X14674653Y36020052D01*
X14696710Y36031841D01*
X14697752Y36032334D01*
X14698053Y36032559D01*
X14698893Y36033008D01*
X14698825Y36033136D01*
X14729626Y36056168D01*
X14749679Y36090546D01*
X14753081Y36142243D01*
X14749328Y36161114D01*
X14747781Y36176825D01*
X14746890Y36194961D01*
X14746890Y36250000D01*
X14738970Y36289004D01*
X14716465Y36321829D01*
X14682938Y36343277D01*
X14646890Y36350000D01*
X14354897Y36350000D01*
X14311050Y36354306D01*
X14280400Y36364138D01*
X14240841Y36368510D01*
X14216153Y36363067D01*
X14196416Y36356002D01*
X14144266Y36350000D01*
X14051070Y36350000D01*
X14012066Y36342080D01*
X13968059Y36305760D01*
X13964476Y36300425D01*
X13914418Y36248754D01*
X13855995Y36206763D01*
X13791054Y36175781D01*
X13721665Y36156795D01*
X13645545Y36150000D01*
X13605000Y36150000D01*
X13565996Y36142080D01*
X13533171Y36119575D01*
X13511723Y36086048D01*
X13505000Y36050000D01*
X13505000Y34375598D01*
X13512920Y34336594D01*
X13534289Y34304887D01*
X15480350Y32358826D01*
X15510348Y32325729D01*
X15518093Y32316291D01*
X15561853Y32250800D01*
X15590107Y32222770D01*
X15627057Y32207980D01*
X15666848Y32208773D01*
X15703179Y32225023D01*
X15730294Y32254157D01*
X15745000Y32306357D01*
X15745000Y32497537D01*
X15747191Y32542133D01*
X15748389Y32554304D01*
X15765792Y32641794D01*
X15768626Y32651138D01*
X15802751Y32733520D01*
X15807355Y32742133D01*
X15856906Y32816291D01*
X15863100Y32823839D01*
X15926160Y32886899D01*
X15933708Y32893093D01*
X16007866Y32942644D01*
X16016479Y32947248D01*
X16098861Y32981373D01*
X16108212Y32984209D01*
X16195674Y33001609D01*
X16205401Y33002567D01*
X16294600Y33002567D01*
X16304324Y33001609D01*
X16391788Y32984209D01*
X16401138Y32981373D01*
X16483520Y32947248D01*
X16492133Y32942644D01*
X16566291Y32893093D01*
X16573839Y32886899D01*
X16636899Y32823839D01*
X16643093Y32816291D01*
X16692644Y32742133D01*
X16697248Y32733520D01*
X16731373Y32651138D01*
X16734209Y32641788D01*
X16751609Y32554324D01*
X16752809Y32542147D01*
X16755000Y32497554D01*
X16755000Y32375598D01*
X16762920Y32336594D01*
X16784289Y32304887D01*
X16980350Y32108826D01*
X17010348Y32075729D01*
X17018093Y32066291D01*
X17025573Y32055097D01*
X17053827Y32027067D01*
X17083541Y32014038D01*
X17083529Y32013999D01*
X17083854Y32013900D01*
X17084425Y32013650D01*
X17085885Y32013284D01*
X17128580Y32000334D01*
X17135025Y31998028D01*
X17176311Y31980926D01*
X17182528Y31977985D01*
X17221871Y31956956D01*
X17227757Y31953428D01*
X17264900Y31928612D01*
X17270412Y31924523D01*
X17304948Y31896179D01*
X17310027Y31891575D01*
X17341575Y31860027D01*
X17346179Y31854948D01*
X17374523Y31820412D01*
X17378612Y31814900D01*
X17403428Y31777757D01*
X17406956Y31771871D01*
X17427985Y31732528D01*
X17430926Y31726311D01*
X17448028Y31685025D01*
X17450334Y31678580D01*
X17463287Y31635877D01*
X17464955Y31629217D01*
X17473672Y31585405D01*
X17474678Y31578622D01*
X17479054Y31534186D01*
X17479450Y31526127D01*
X17480000Y31503764D01*
X17480000Y31246235D01*
X17479450Y31223870D01*
X17479055Y31215813D01*
X17474678Y31171378D01*
X17473672Y31164595D01*
X17464955Y31120783D01*
X17463287Y31114123D01*
X17450334Y31071420D01*
X17448028Y31064975D01*
X17430926Y31023689D01*
X17427985Y31017472D01*
X17406956Y30978129D01*
X17403428Y30972243D01*
X17378612Y30935100D01*
X17374523Y30929588D01*
X17346179Y30895052D01*
X17341575Y30889973D01*
X17310027Y30858425D01*
X17304948Y30853821D01*
X17270412Y30825477D01*
X17264900Y30821388D01*
X17227757Y30796572D01*
X17221871Y30793044D01*
X17182528Y30772015D01*
X17176311Y30769074D01*
X17135025Y30751972D01*
X17128580Y30749666D01*
X17085877Y30736713D01*
X17079217Y30735045D01*
X17035405Y30726328D01*
X17028622Y30725322D01*
X16984187Y30720945D01*
X16976130Y30720550D01*
X16953765Y30720000D01*
X16296235Y30720000D01*
X16273870Y30720550D01*
X16265813Y30720945D01*
X16221378Y30725322D01*
X16214595Y30726328D01*
X16170783Y30735045D01*
X16164123Y30736713D01*
X16121420Y30749666D01*
X16114975Y30751972D01*
X16073689Y30769074D01*
X16067472Y30772015D01*
X16028129Y30793044D01*
X16022243Y30796572D01*
X15985100Y30821388D01*
X15979588Y30825477D01*
X15945061Y30853814D01*
X15942165Y30856439D01*
X15907949Y30876768D01*
X15868513Y30882141D01*
X15830106Y30871708D01*
X15807835Y30856439D01*
X15804939Y30853814D01*
X15770412Y30825477D01*
X15764900Y30821388D01*
X15727757Y30796572D01*
X15721871Y30793044D01*
X15682528Y30772015D01*
X15676311Y30769074D01*
X15635025Y30751972D01*
X15628580Y30749666D01*
X15585877Y30736713D01*
X15579217Y30735045D01*
X15535405Y30726328D01*
X15528622Y30725322D01*
X15484187Y30720945D01*
X15476130Y30720550D01*
X15453765Y30720000D01*
X14796235Y30720000D01*
X14773870Y30720550D01*
X14765813Y30720945D01*
X14721378Y30725322D01*
X14714595Y30726328D01*
X14670783Y30735045D01*
X14664123Y30736713D01*
X14621420Y30749666D01*
X14614975Y30751972D01*
X14573689Y30769074D01*
X14567472Y30772015D01*
X14528129Y30793044D01*
X14522243Y30796572D01*
X14485100Y30821388D01*
X14479588Y30825477D01*
X14445052Y30853821D01*
X14439973Y30858425D01*
X14408425Y30889973D01*
X14403821Y30895052D01*
X14375477Y30929588D01*
X14371388Y30935100D01*
X14346572Y30972243D01*
X14343044Y30978129D01*
X14322015Y31017472D01*
X14319074Y31023689D01*
X14301972Y31064975D01*
X14299666Y31071420D01*
X14286713Y31114123D01*
X14285045Y31120783D01*
X14276328Y31164595D01*
X14275322Y31171378D01*
X14270945Y31215813D01*
X14270550Y31223870D01*
X14270000Y31246235D01*
X14270000Y31503765D01*
X14270550Y31526130D01*
X14270945Y31534187D01*
X14275322Y31578622D01*
X14276328Y31585405D01*
X14285045Y31629217D01*
X14286713Y31635877D01*
X14299666Y31678580D01*
X14301972Y31685025D01*
X14319074Y31726311D01*
X14322015Y31732528D01*
X14343044Y31771871D01*
X14346572Y31777757D01*
X14371388Y31814900D01*
X14375477Y31820412D01*
X14403821Y31854948D01*
X14408425Y31860027D01*
X14408900Y31860502D01*
X14409021Y31860684D01*
X14410082Y31861855D01*
X14409903Y31862017D01*
X14430879Y31893682D01*
X14438176Y31932807D01*
X14429636Y31971679D01*
X14408900Y32001924D01*
X12652241Y33758583D01*
X12644612Y33769701D01*
X12613080Y33801184D01*
X12606906Y33808708D01*
X12557355Y33882866D01*
X12552751Y33891479D01*
X12518626Y33973861D01*
X12515789Y33983215D01*
X12498389Y34070688D01*
X12497190Y34082870D01*
X12495000Y34127461D01*
X12495000Y34388064D01*
X12487080Y34427068D01*
X12464575Y34459893D01*
X12431048Y34481341D01*
X12391812Y34488013D01*
X12353081Y34478854D01*
X12331561Y34465365D01*
X12302405Y34441437D01*
X12228255Y34391892D01*
X12107262Y34327220D01*
X12024875Y34293095D01*
X11893589Y34253270D01*
X11806116Y34235871D01*
X11667158Y34222184D01*
X11622535Y34219992D01*
X9894830Y34219992D01*
X9855826Y34212072D01*
X9824119Y34190703D01*
X7700402Y32066986D01*
X7690391Y32060150D01*
X7658600Y32028597D01*
X7552405Y31941445D01*
X7478255Y31891900D01*
X7357262Y31827228D01*
X7274875Y31793103D01*
X7143589Y31753278D01*
X7056116Y31735879D01*
X6917158Y31722192D01*
X6872535Y31720000D01*
X5769838Y31720000D01*
X5730834Y31712080D01*
X5699127Y31690711D01*
X4184289Y30175873D01*
X4162310Y30142693D01*
X4155000Y30105162D01*
X4155000Y22644838D01*
X4162920Y22605834D01*
X4184289Y22574127D01*
X4750069Y22008347D01*
X4783249Y21986368D01*
X4822374Y21979071D01*
X4861246Y21987611D01*
X4893709Y22010637D01*
X4911184Y22036313D01*
X4912347Y22038773D01*
X4933413Y22078186D01*
X4943492Y22095000D01*
X4968291Y22132114D01*
X4979986Y22147882D01*
X5008322Y22182410D01*
X5021487Y22196935D01*
X5053065Y22228513D01*
X5067590Y22241678D01*
X5102118Y22270014D01*
X5117886Y22281709D01*
X5155000Y22306508D01*
X5171814Y22316587D01*
X5211234Y22337657D01*
X5228964Y22346042D01*
X5270182Y22363115D01*
X5288659Y22369727D01*
X5331419Y22382698D01*
X5350442Y22387463D01*
X5394215Y22396170D01*
X5413655Y22399054D01*
X5458055Y22403428D01*
X5478915Y22404453D01*
X5501230Y22405000D01*
X7498770Y22405000D01*
X7521085Y22404453D01*
X7541945Y22403428D01*
X7586345Y22399054D01*
X7605785Y22396170D01*
X7649558Y22387463D01*
X7668581Y22382698D01*
X7711341Y22369727D01*
X7729818Y22363115D01*
X7771036Y22346042D01*
X7788766Y22337657D01*
X7828186Y22316587D01*
X7845000Y22306508D01*
X7882114Y22281709D01*
X7897882Y22270014D01*
X7932410Y22241678D01*
X7946935Y22228513D01*
X7978513Y22196935D01*
X7991678Y22182410D01*
X8020014Y22147882D01*
X8031709Y22132114D01*
X8056508Y22095000D01*
X8066587Y22078186D01*
X8087657Y22038766D01*
X8096042Y22021036D01*
X8113115Y21979818D01*
X8119727Y21961341D01*
X8132698Y21918581D01*
X8137463Y21899558D01*
X8146170Y21855785D01*
X8149054Y21836345D01*
X8153428Y21791945D01*
X8154453Y21771085D01*
X8155000Y21748770D01*
X8155000Y12019838D01*
X8162920Y11980834D01*
X8184289Y11949127D01*
X12199127Y7934289D01*
X12232307Y7912310D01*
X12269838Y7905000D01*
X22980162Y7905000D01*
X23019166Y7912920D01*
X23050873Y7934289D01*
X24815711Y9699127D01*
X24837690Y9732307D01*
X24845000Y9769838D01*
X24845000Y15997535D01*
X24847192Y16042158D01*
X24860879Y16181116D01*
X24878278Y16268589D01*
X24918103Y16399875D01*
X24952228Y16482262D01*
X25016900Y16603255D01*
X25066445Y16677405D01*
X25153478Y16783455D01*
X25216544Y16846521D01*
X25322594Y16933554D01*
X25396744Y16983099D01*
X25517737Y17047771D01*
X25600124Y17081896D01*
X25731420Y17121724D01*
X25818870Y17139119D01*
X25955406Y17152568D01*
X26044593Y17152568D01*
X26181129Y17139119D01*
X26268579Y17121724D01*
X26399875Y17081896D01*
X26482262Y17047771D01*
X26603255Y16983099D01*
X26677405Y16933554D01*
X26783455Y16846521D01*
X26846521Y16783455D01*
X26933554Y16677405D01*
X26983099Y16603255D01*
X27047771Y16482262D01*
X27081896Y16399875D01*
X27121724Y16268579D01*
X27139119Y16181129D01*
X27152808Y16042161D01*
X27155000Y15997536D01*
X27155000Y9252464D01*
X27152808Y9207839D01*
X27139119Y9068870D01*
X27121724Y8981420D01*
X27081896Y8850124D01*
X27047771Y8767737D01*
X26983099Y8646744D01*
X26933554Y8572594D01*
X26846402Y8466399D01*
X26814849Y8434608D01*
X26808767Y8425351D01*
X24325402Y5941986D01*
X24315391Y5935150D01*
X24283600Y5903597D01*
X24177405Y5816445D01*
X24103255Y5766900D01*
X23982262Y5702228D01*
X23899875Y5668103D01*
X23768589Y5628278D01*
X23681116Y5610879D01*
X23542158Y5597192D01*
X23497535Y5595000D01*
D02*
G37*
%LPC*%
G36*
X30512524Y12461368D02*
X30487476Y12461368D01*
X30422424Y12464565D01*
X30397506Y12467019D01*
X30333053Y12476579D01*
X30308506Y12481462D01*
X30245313Y12497290D01*
X30221357Y12504557D01*
X30160018Y12526506D01*
X30136891Y12536085D01*
X30077999Y12563939D01*
X30055926Y12575737D01*
X30000039Y12609234D01*
X29979232Y12623137D01*
X29926893Y12661954D01*
X29907559Y12677821D01*
X29859283Y12721575D01*
X29841575Y12739283D01*
X29797821Y12787559D01*
X29781954Y12806893D01*
X29743137Y12859232D01*
X29729234Y12880039D01*
X29695737Y12935926D01*
X29683939Y12957999D01*
X29656085Y13016891D01*
X29646506Y13040018D01*
X29624557Y13101357D01*
X29617290Y13125313D01*
X29601462Y13188503D01*
X29598079Y13205513D01*
X29582702Y13242222D01*
X29554225Y13270026D01*
X29517159Y13284521D01*
X29477375Y13283411D01*
X29441175Y13266872D01*
X29414292Y13237523D01*
X29401921Y13205513D01*
X29398538Y13188503D01*
X29382710Y13125313D01*
X29375443Y13101357D01*
X29353494Y13040018D01*
X29343915Y13016891D01*
X29316061Y12957999D01*
X29304263Y12935926D01*
X29270766Y12880039D01*
X29256863Y12859232D01*
X29218046Y12806893D01*
X29202179Y12787559D01*
X29158425Y12739283D01*
X29140717Y12721575D01*
X29092441Y12677821D01*
X29073107Y12661954D01*
X29020768Y12623137D01*
X28999961Y12609234D01*
X28944074Y12575737D01*
X28922001Y12563939D01*
X28863109Y12536085D01*
X28839982Y12526506D01*
X28778643Y12504557D01*
X28754687Y12497290D01*
X28691494Y12481462D01*
X28666947Y12476579D01*
X28602494Y12467019D01*
X28577576Y12464565D01*
X28512524Y12461368D01*
X28487476Y12461368D01*
X28422424Y12464565D01*
X28397506Y12467019D01*
X28333053Y12476579D01*
X28308506Y12481462D01*
X28245313Y12497290D01*
X28221357Y12504557D01*
X28160018Y12526506D01*
X28136891Y12536085D01*
X28077999Y12563939D01*
X28055926Y12575737D01*
X28000039Y12609234D01*
X27979232Y12623137D01*
X27926893Y12661954D01*
X27907559Y12677821D01*
X27859283Y12721575D01*
X27841575Y12739283D01*
X27797821Y12787559D01*
X27781954Y12806893D01*
X27743137Y12859232D01*
X27729234Y12880039D01*
X27695737Y12935926D01*
X27683939Y12957999D01*
X27656085Y13016891D01*
X27646506Y13040018D01*
X27624557Y13101357D01*
X27617290Y13125313D01*
X27601462Y13188506D01*
X27596579Y13213053D01*
X27587019Y13277506D01*
X27584565Y13302424D01*
X27581368Y13367476D01*
X27581368Y13392524D01*
X27584565Y13457576D01*
X27587019Y13482494D01*
X27596579Y13546947D01*
X27601462Y13571494D01*
X27617290Y13634687D01*
X27624557Y13658643D01*
X27646506Y13719982D01*
X27656085Y13743109D01*
X27683939Y13802001D01*
X27695737Y13824074D01*
X27729234Y13879961D01*
X27743137Y13900768D01*
X27781954Y13953107D01*
X27797821Y13972441D01*
X27841575Y14020717D01*
X27859283Y14038425D01*
X27907559Y14082179D01*
X27926893Y14098046D01*
X27979232Y14136863D01*
X28000039Y14150766D01*
X28055926Y14184263D01*
X28077999Y14196061D01*
X28136891Y14223915D01*
X28160018Y14233494D01*
X28221357Y14255443D01*
X28245313Y14262710D01*
X28308506Y14278538D01*
X28333053Y14283421D01*
X28397506Y14292981D01*
X28422424Y14295435D01*
X28487476Y14298632D01*
X28512524Y14298632D01*
X28577576Y14295435D01*
X28602494Y14292981D01*
X28666947Y14283421D01*
X28691494Y14278538D01*
X28754687Y14262710D01*
X28778643Y14255443D01*
X28839982Y14233494D01*
X28863109Y14223915D01*
X28882850Y14214578D01*
X28921495Y14205062D01*
X28960791Y14211372D01*
X28996316Y14234266D01*
X29035991Y14273941D01*
X29057970Y14307121D01*
X29065280Y14344652D01*
X29065280Y14572765D01*
X29066171Y14590899D01*
X29067717Y14606607D01*
X29074789Y14642161D01*
X29078658Y14654914D01*
X29092524Y14688389D01*
X29098813Y14700153D01*
X29118946Y14730286D01*
X29127518Y14740731D01*
X29140423Y14753733D01*
X29143251Y14758037D01*
X29491612Y15106398D01*
X29496266Y15109576D01*
X29509268Y15122481D01*
X29519713Y15131053D01*
X29549846Y15151186D01*
X29561610Y15157475D01*
X29595085Y15171341D01*
X29607846Y15175212D01*
X29643383Y15182281D01*
X29659081Y15183828D01*
X29677239Y15184720D01*
X29774716Y15184720D01*
X29813720Y15192640D01*
X29846545Y15215145D01*
X29867993Y15248672D01*
X29874665Y15287908D01*
X29865506Y15326639D01*
X29845427Y15355431D01*
X29841575Y15359283D01*
X29797821Y15407559D01*
X29781954Y15426893D01*
X29743137Y15479232D01*
X29729234Y15500039D01*
X29695737Y15555926D01*
X29683939Y15577999D01*
X29656085Y15636891D01*
X29646506Y15660018D01*
X29624557Y15721357D01*
X29617290Y15745313D01*
X29601462Y15808503D01*
X29598079Y15825513D01*
X29582702Y15862222D01*
X29554225Y15890026D01*
X29517159Y15904521D01*
X29477375Y15903411D01*
X29441175Y15886872D01*
X29414292Y15857523D01*
X29401921Y15825513D01*
X29398538Y15808503D01*
X29382710Y15745313D01*
X29375443Y15721357D01*
X29353494Y15660018D01*
X29343915Y15636891D01*
X29316061Y15577999D01*
X29304263Y15555926D01*
X29270766Y15500039D01*
X29256863Y15479232D01*
X29218046Y15426893D01*
X29202179Y15407559D01*
X29158425Y15359283D01*
X29140717Y15341575D01*
X29092441Y15297821D01*
X29073107Y15281954D01*
X29020768Y15243137D01*
X28999961Y15229234D01*
X28944074Y15195737D01*
X28922001Y15183939D01*
X28863109Y15156085D01*
X28839982Y15146506D01*
X28778643Y15124557D01*
X28754687Y15117290D01*
X28691494Y15101462D01*
X28666947Y15096579D01*
X28602494Y15087019D01*
X28577576Y15084565D01*
X28512524Y15081368D01*
X28487476Y15081368D01*
X28422424Y15084565D01*
X28397506Y15087019D01*
X28333053Y15096579D01*
X28308506Y15101462D01*
X28245313Y15117290D01*
X28221357Y15124557D01*
X28160018Y15146506D01*
X28136891Y15156085D01*
X28077999Y15183939D01*
X28055926Y15195737D01*
X28000039Y15229234D01*
X27979232Y15243137D01*
X27926893Y15281954D01*
X27907559Y15297821D01*
X27859283Y15341575D01*
X27841575Y15359283D01*
X27797821Y15407559D01*
X27781954Y15426893D01*
X27743137Y15479232D01*
X27729234Y15500039D01*
X27695737Y15555926D01*
X27683939Y15577999D01*
X27656085Y15636891D01*
X27646506Y15660018D01*
X27624557Y15721357D01*
X27617290Y15745313D01*
X27601462Y15808506D01*
X27596579Y15833053D01*
X27587019Y15897506D01*
X27584565Y15922424D01*
X27581368Y15987476D01*
X27581368Y16012524D01*
X27584565Y16077576D01*
X27587019Y16102494D01*
X27596579Y16166947D01*
X27601462Y16191494D01*
X27617290Y16254687D01*
X27624557Y16278643D01*
X27646506Y16339982D01*
X27656085Y16363109D01*
X27683939Y16422001D01*
X27695737Y16444074D01*
X27729234Y16499961D01*
X27743137Y16520768D01*
X27781954Y16573107D01*
X27797821Y16592441D01*
X27841575Y16640717D01*
X27859283Y16658425D01*
X27907559Y16702179D01*
X27926893Y16718046D01*
X27979232Y16756863D01*
X28000039Y16770766D01*
X28055926Y16804263D01*
X28077999Y16816061D01*
X28136891Y16843915D01*
X28160018Y16853494D01*
X28221357Y16875443D01*
X28245313Y16882710D01*
X28308506Y16898538D01*
X28333053Y16903421D01*
X28397506Y16912981D01*
X28422424Y16915435D01*
X28487476Y16918632D01*
X28512524Y16918632D01*
X28577576Y16915435D01*
X28602494Y16912981D01*
X28666947Y16903421D01*
X28691494Y16898538D01*
X28754687Y16882710D01*
X28778643Y16875443D01*
X28839982Y16853494D01*
X28863109Y16843915D01*
X28882850Y16834578D01*
X28921495Y16825062D01*
X28960791Y16831372D01*
X28996316Y16854266D01*
X29035991Y16893941D01*
X29057970Y16927121D01*
X29065280Y16964652D01*
X29065280Y17153512D01*
X29057360Y17192516D01*
X29035991Y17224223D01*
X28849223Y17410991D01*
X28816043Y17432970D01*
X28778512Y17440280D01*
X24802236Y17440280D01*
X24784100Y17441171D01*
X24768391Y17442717D01*
X24732840Y17449789D01*
X24720085Y17453658D01*
X24686610Y17467524D01*
X24674846Y17473813D01*
X24644713Y17493946D01*
X24634446Y17502372D01*
X24621650Y17515186D01*
X24616831Y17518383D01*
X23849223Y18285991D01*
X23816043Y18307970D01*
X23778512Y18315280D01*
X22427236Y18315280D01*
X22409100Y18316171D01*
X22393391Y18317717D01*
X22357840Y18324789D01*
X22345085Y18328658D01*
X22311610Y18342524D01*
X22299846Y18348813D01*
X22269713Y18368946D01*
X22259446Y18377372D01*
X22246650Y18390186D01*
X22241831Y18393383D01*
X20913732Y19721482D01*
X20910186Y19726650D01*
X20897372Y19739446D01*
X20888946Y19749713D01*
X20868813Y19779846D01*
X20862524Y19791610D01*
X20848658Y19825085D01*
X20844789Y19837840D01*
X20837717Y19873391D01*
X20836171Y19889100D01*
X20835280Y19907236D01*
X20835280Y21270000D01*
X20827360Y21309004D01*
X20804855Y21341829D01*
X20771328Y21363277D01*
X20735280Y21370000D01*
X20339897Y21370000D01*
X20296048Y21374307D01*
X20250752Y21388836D01*
X20210665Y21412841D01*
X20177078Y21445325D01*
X20151749Y21484591D01*
X20136002Y21528582D01*
X20130000Y21580734D01*
X20130000Y23520103D01*
X20134307Y23563952D01*
X20148836Y23609248D01*
X20172841Y23649335D01*
X20205325Y23682922D01*
X20244591Y23708251D01*
X20288582Y23723998D01*
X20340734Y23730000D01*
X20930103Y23730000D01*
X20973952Y23725693D01*
X21019248Y23711164D01*
X21059335Y23687159D01*
X21092922Y23654675D01*
X21118251Y23615409D01*
X21133998Y23571418D01*
X21140000Y23519266D01*
X21140000Y21769372D01*
X21147920Y21730368D01*
X21169289Y21698661D01*
X21199289Y21668661D01*
X21232469Y21646682D01*
X21271594Y21639385D01*
X21310466Y21647925D01*
X21340711Y21668661D01*
X21370711Y21698661D01*
X21392690Y21731841D01*
X21400000Y21769372D01*
X21400000Y23520103D01*
X21404307Y23563952D01*
X21418836Y23609248D01*
X21442841Y23649335D01*
X21475325Y23682922D01*
X21514591Y23708251D01*
X21558582Y23723998D01*
X21610734Y23730000D01*
X22200103Y23730000D01*
X22243952Y23725693D01*
X22289248Y23711164D01*
X22329335Y23687159D01*
X22362922Y23654675D01*
X22388251Y23615409D01*
X22403998Y23571418D01*
X22410000Y23519266D01*
X22410000Y21579897D01*
X22405693Y21536048D01*
X22391164Y21490752D01*
X22367159Y21450665D01*
X22334675Y21417078D01*
X22295409Y21391749D01*
X22251418Y21376002D01*
X22199266Y21370000D01*
X21804720Y21370000D01*
X21765716Y21362080D01*
X21732891Y21339575D01*
X21711443Y21306048D01*
X21704720Y21270000D01*
X21704720Y20201488D01*
X21712640Y20162484D01*
X21734009Y20130777D01*
X22650777Y19214009D01*
X22683957Y19192030D01*
X22721488Y19184720D01*
X24072761Y19184720D01*
X24090920Y19183828D01*
X24106614Y19182282D01*
X24142154Y19175212D01*
X24154914Y19171341D01*
X24188389Y19157475D01*
X24200153Y19151186D01*
X24230286Y19131053D01*
X24242483Y19121044D01*
X24255932Y19108854D01*
X25025777Y18339009D01*
X25058957Y18317030D01*
X25096488Y18309720D01*
X29072761Y18309720D01*
X29090920Y18308828D01*
X29106614Y18307282D01*
X29142154Y18300212D01*
X29154914Y18296341D01*
X29188389Y18282475D01*
X29200153Y18276186D01*
X29230286Y18256053D01*
X29242483Y18246044D01*
X29255932Y18233854D01*
X29858854Y17630932D01*
X29871044Y17617483D01*
X29881053Y17605286D01*
X29901186Y17575153D01*
X29907475Y17563389D01*
X29921341Y17529914D01*
X29925212Y17517154D01*
X29932282Y17481614D01*
X29933828Y17465920D01*
X29934720Y17447761D01*
X29934720Y16964652D01*
X29942640Y16925648D01*
X29964009Y16893941D01*
X30003684Y16854266D01*
X30036864Y16832287D01*
X30075989Y16824990D01*
X30117150Y16834578D01*
X30136891Y16843915D01*
X30160018Y16853494D01*
X30221357Y16875443D01*
X30245313Y16882710D01*
X30308506Y16898538D01*
X30333053Y16903421D01*
X30397506Y16912981D01*
X30422424Y16915435D01*
X30487476Y16918632D01*
X30512524Y16918632D01*
X30577576Y16915435D01*
X30602494Y16912981D01*
X30666947Y16903421D01*
X30691494Y16898538D01*
X30754687Y16882710D01*
X30778643Y16875443D01*
X30839982Y16853494D01*
X30863109Y16843915D01*
X30922001Y16816061D01*
X30944074Y16804263D01*
X30999961Y16770766D01*
X31020768Y16756863D01*
X31073107Y16718046D01*
X31092441Y16702179D01*
X31140717Y16658425D01*
X31144569Y16654573D01*
X31177749Y16632594D01*
X31216874Y16625297D01*
X31255746Y16633837D01*
X31288209Y16656863D01*
X31309119Y16690727D01*
X31315280Y16725284D01*
X31315280Y17028512D01*
X31307360Y17067516D01*
X31285991Y17099223D01*
X29849223Y18535991D01*
X29816043Y18557970D01*
X29778512Y18565280D01*
X27177236Y18565280D01*
X27159100Y18566171D01*
X27143391Y18567717D01*
X27107840Y18574789D01*
X27095085Y18578658D01*
X27061610Y18592524D01*
X27049846Y18598813D01*
X27019713Y18618946D01*
X27009446Y18627372D01*
X26996650Y18640186D01*
X26991831Y18643383D01*
X25724223Y19910991D01*
X25691043Y19932970D01*
X25653512Y19940280D01*
X24427236Y19940280D01*
X24409100Y19941171D01*
X24393391Y19942717D01*
X24357840Y19949789D01*
X24345085Y19953658D01*
X24311610Y19967524D01*
X24299846Y19973813D01*
X24269713Y19993946D01*
X24259446Y20002372D01*
X24246650Y20015186D01*
X24241831Y20018383D01*
X23453732Y20806482D01*
X23450186Y20811650D01*
X23437372Y20824446D01*
X23428946Y20834713D01*
X23408813Y20864846D01*
X23402524Y20876610D01*
X23388658Y20910085D01*
X23384789Y20922840D01*
X23377717Y20958391D01*
X23376171Y20974100D01*
X23375280Y20992236D01*
X23375280Y21270000D01*
X23367360Y21309004D01*
X23344855Y21341829D01*
X23311328Y21363277D01*
X23275280Y21370000D01*
X22879897Y21370000D01*
X22836048Y21374307D01*
X22790752Y21388836D01*
X22750665Y21412841D01*
X22717078Y21445325D01*
X22691749Y21484591D01*
X22676002Y21528582D01*
X22670000Y21580734D01*
X22670000Y23520103D01*
X22674307Y23563952D01*
X22688836Y23609248D01*
X22712841Y23649335D01*
X22745325Y23682922D01*
X22784591Y23708251D01*
X22828582Y23723998D01*
X22880734Y23730000D01*
X23470103Y23730000D01*
X23513952Y23725693D01*
X23559248Y23711164D01*
X23599335Y23687159D01*
X23632922Y23654675D01*
X23658251Y23615409D01*
X23673998Y23571418D01*
X23680000Y23519266D01*
X23680000Y21769372D01*
X23687920Y21730368D01*
X23709289Y21698661D01*
X23739289Y21668661D01*
X23772469Y21646682D01*
X23811594Y21639385D01*
X23850466Y21647925D01*
X23880711Y21668661D01*
X23910711Y21698661D01*
X23932690Y21731841D01*
X23940000Y21769372D01*
X23940000Y23520103D01*
X23944307Y23563952D01*
X23958836Y23609248D01*
X23982841Y23649335D01*
X24015325Y23682922D01*
X24054591Y23708251D01*
X24098582Y23723998D01*
X24150734Y23730000D01*
X24740103Y23730000D01*
X24783952Y23725693D01*
X24829248Y23711164D01*
X24869335Y23687159D01*
X24902922Y23654675D01*
X24928251Y23615409D01*
X24943998Y23571418D01*
X24950000Y23519266D01*
X24950000Y21579897D01*
X24945693Y21536048D01*
X24931164Y21490752D01*
X24907159Y21450665D01*
X24874675Y21417078D01*
X24835409Y21391749D01*
X24791418Y21376002D01*
X24739266Y21370000D01*
X24361208Y21370000D01*
X24322204Y21362080D01*
X24289379Y21339575D01*
X24267931Y21306048D01*
X24261259Y21266812D01*
X24270418Y21228081D01*
X24290497Y21199289D01*
X24650777Y20839009D01*
X24683957Y20817030D01*
X24721488Y20809720D01*
X25947761Y20809720D01*
X25965920Y20808828D01*
X25981614Y20807282D01*
X26017154Y20800212D01*
X26029914Y20796341D01*
X26063389Y20782475D01*
X26075153Y20776186D01*
X26105286Y20756053D01*
X26117483Y20746044D01*
X26130932Y20733854D01*
X27400777Y19464009D01*
X27433957Y19442030D01*
X27471488Y19434720D01*
X30072761Y19434720D01*
X30090920Y19433828D01*
X30106614Y19432282D01*
X30142154Y19425212D01*
X30154914Y19421341D01*
X30188389Y19407475D01*
X30200153Y19401186D01*
X30230286Y19381053D01*
X30242483Y19371044D01*
X30255932Y19358854D01*
X32108854Y17505932D01*
X32121044Y17492483D01*
X32131053Y17480286D01*
X32151186Y17450153D01*
X32157475Y17438389D01*
X32171341Y17404914D01*
X32175212Y17392154D01*
X32182282Y17356614D01*
X32183828Y17340920D01*
X32184720Y17322761D01*
X32184720Y15177239D01*
X32183828Y15159081D01*
X32182281Y15143383D01*
X32175212Y15107846D01*
X32171341Y15095085D01*
X32157475Y15061610D01*
X32151186Y15049846D01*
X32131053Y15019713D01*
X32122481Y15009268D01*
X32109576Y14996266D01*
X32106748Y14991962D01*
X31508387Y14393601D01*
X31503733Y14390423D01*
X31490731Y14377518D01*
X31480286Y14368946D01*
X31450153Y14348813D01*
X31438389Y14342524D01*
X31404914Y14328658D01*
X31392161Y14324789D01*
X31356607Y14317717D01*
X31340899Y14316171D01*
X31322765Y14315280D01*
X31082905Y14315280D01*
X31043901Y14307360D01*
X31011076Y14284855D01*
X30989628Y14251328D01*
X30982956Y14212092D01*
X30992115Y14173361D01*
X31023335Y14134959D01*
X31073110Y14098043D01*
X31092441Y14082179D01*
X31140717Y14038425D01*
X31158425Y14020717D01*
X31202179Y13972441D01*
X31218046Y13953107D01*
X31256863Y13900768D01*
X31270766Y13879961D01*
X31304263Y13824074D01*
X31316061Y13802001D01*
X31343915Y13743109D01*
X31353494Y13719982D01*
X31375443Y13658643D01*
X31382710Y13634687D01*
X31398538Y13571494D01*
X31403421Y13546947D01*
X31412981Y13482494D01*
X31415435Y13457576D01*
X31418632Y13392524D01*
X31418632Y13367476D01*
X31415435Y13302424D01*
X31412981Y13277506D01*
X31403421Y13213053D01*
X31398538Y13188506D01*
X31382710Y13125313D01*
X31375443Y13101357D01*
X31353494Y13040018D01*
X31343915Y13016891D01*
X31316061Y12957999D01*
X31304263Y12935926D01*
X31270766Y12880039D01*
X31256863Y12859232D01*
X31218046Y12806893D01*
X31202179Y12787559D01*
X31158425Y12739283D01*
X31140717Y12721575D01*
X31092441Y12677821D01*
X31073107Y12661954D01*
X31020768Y12623137D01*
X30999961Y12609234D01*
X30944074Y12575737D01*
X30922001Y12563939D01*
X30863109Y12536085D01*
X30839982Y12526506D01*
X30778643Y12504557D01*
X30754687Y12497290D01*
X30691494Y12481462D01*
X30666947Y12476579D01*
X30602494Y12467019D01*
X30577576Y12464565D01*
X30512524Y12461368D01*
D02*
G37*
%LPD*%
G36*
X21370000Y36455000D02*
X21409004Y36462920D01*
X21441829Y36485425D01*
X21463277Y36518952D01*
X21470000Y36555000D01*
X21470000Y38583716D01*
X21462080Y38622720D01*
X21440711Y38654427D01*
X20304427Y39790711D01*
X20271247Y39812690D01*
X20233716Y39820000D01*
X17330000Y39820000D01*
X17290996Y39812080D01*
X17258171Y39789575D01*
X17236723Y39756048D01*
X17230000Y39720000D01*
X17230000Y39301581D01*
X17237920Y39262577D01*
X17260425Y39229752D01*
X17293952Y39208304D01*
X17333188Y39201632D01*
X17377139Y39213389D01*
X17389577Y39220037D01*
X17416192Y39232625D01*
X17439305Y39242199D01*
X17467021Y39252116D01*
X17490972Y39259382D01*
X17519549Y39266539D01*
X17544049Y39271413D01*
X17573183Y39275734D01*
X17598100Y39278188D01*
X17627475Y39279632D01*
X17652525Y39279632D01*
X17681900Y39278188D01*
X17706817Y39275734D01*
X17735951Y39271413D01*
X17760451Y39266539D01*
X17789028Y39259382D01*
X17812979Y39252116D01*
X17840695Y39242199D01*
X17863808Y39232625D01*
X17890414Y39220041D01*
X17912485Y39208244D01*
X17937733Y39193111D01*
X17958540Y39179208D01*
X17982179Y39161676D01*
X18001528Y39145797D01*
X18023330Y39126037D01*
X18041037Y39108330D01*
X18060797Y39086528D01*
X18076676Y39067179D01*
X18094208Y39043540D01*
X18108111Y39022733D01*
X18123244Y38997485D01*
X18135041Y38975414D01*
X18147625Y38948808D01*
X18157199Y38925695D01*
X18167116Y38897979D01*
X18174382Y38874028D01*
X18181539Y38845451D01*
X18186413Y38820951D01*
X18190734Y38791817D01*
X18193188Y38766900D01*
X18194632Y38737525D01*
X18194632Y38712475D01*
X18193188Y38683100D01*
X18190734Y38658183D01*
X18186413Y38629049D01*
X18181539Y38604549D01*
X18174382Y38575972D01*
X18167116Y38552021D01*
X18157199Y38524305D01*
X18147625Y38501192D01*
X18135041Y38474586D01*
X18123244Y38452515D01*
X18108111Y38427267D01*
X18094208Y38406460D01*
X18076676Y38382821D01*
X18060797Y38363472D01*
X18041037Y38341670D01*
X18023330Y38323963D01*
X18001528Y38304203D01*
X17982179Y38288324D01*
X17958540Y38270792D01*
X17937735Y38256890D01*
X17926472Y38250139D01*
X17897090Y38223293D01*
X17880505Y38187114D01*
X17881429Y38137976D01*
X17898206Y38076661D01*
X17905000Y38000545D01*
X17905000Y36555000D01*
X17912920Y36515996D01*
X17935425Y36483171D01*
X17968952Y36461723D01*
X18005000Y36455000D01*
X21370000Y36455000D01*
D02*
G37*
%LPD*%
G36*
X15259159Y38191490D02*
X15283847Y38196933D01*
X15303584Y38203998D01*
X15355734Y38210000D01*
X15448930Y38210000D01*
X15487934Y38217920D01*
X15531941Y38254240D01*
X15535524Y38259575D01*
X15585582Y38311246D01*
X15644005Y38353237D01*
X15708946Y38384219D01*
X15778335Y38403205D01*
X15854455Y38410000D01*
X15928283Y38410000D01*
X15967287Y38417920D01*
X16000112Y38440425D01*
X16021560Y38473952D01*
X16026362Y38529509D01*
X16025309Y38534801D01*
X16022190Y38566483D01*
X16020000Y38611075D01*
X16020000Y39720000D01*
X16012080Y39759004D01*
X15989575Y39791829D01*
X15956048Y39813277D01*
X15920000Y39820000D01*
X13365010Y39820000D01*
X13326006Y39812080D01*
X13293181Y39789575D01*
X13271733Y39756048D01*
X13265010Y39720000D01*
X13265010Y39272025D01*
X13272930Y39233021D01*
X13295435Y39200196D01*
X13328962Y39178748D01*
X13368198Y39172076D01*
X13406929Y39181235D01*
X13439020Y39204776D01*
X13460704Y39242995D01*
X13468581Y39268961D01*
X13475192Y39287435D01*
X13484758Y39310527D01*
X13493153Y39328279D01*
X13504948Y39350347D01*
X13515036Y39367178D01*
X13528932Y39387974D01*
X13540629Y39403746D01*
X13556506Y39423090D01*
X13569676Y39437621D01*
X13587379Y39455324D01*
X13601910Y39468494D01*
X13621254Y39484371D01*
X13637026Y39496068D01*
X13657822Y39509964D01*
X13674653Y39520052D01*
X13696721Y39531847D01*
X13714473Y39540242D01*
X13737565Y39549808D01*
X13756052Y39556423D01*
X13780006Y39563690D01*
X13799023Y39568454D01*
X13823574Y39573337D01*
X13842989Y39576217D01*
X13867881Y39578668D01*
X13887498Y39579632D01*
X13912502Y39579632D01*
X13932119Y39578668D01*
X13957011Y39576217D01*
X13976426Y39573337D01*
X14000977Y39568454D01*
X14019994Y39563690D01*
X14043948Y39556423D01*
X14062435Y39549808D01*
X14085527Y39540242D01*
X14103279Y39531847D01*
X14125347Y39520052D01*
X14142178Y39509964D01*
X14162974Y39496068D01*
X14178748Y39484370D01*
X14186557Y39477960D01*
X14221731Y39459337D01*
X14261382Y39455908D01*
X14313443Y39477960D01*
X14321252Y39484370D01*
X14337026Y39496068D01*
X14357822Y39509964D01*
X14374653Y39520052D01*
X14396721Y39531847D01*
X14414473Y39540242D01*
X14437565Y39549808D01*
X14456052Y39556423D01*
X14480006Y39563690D01*
X14499023Y39568454D01*
X14523574Y39573337D01*
X14542989Y39576217D01*
X14567881Y39578668D01*
X14587498Y39579632D01*
X14612502Y39579632D01*
X14632119Y39578668D01*
X14657011Y39576217D01*
X14676426Y39573337D01*
X14700977Y39568454D01*
X14719994Y39563690D01*
X14743948Y39556423D01*
X14762435Y39549808D01*
X14785527Y39540242D01*
X14803279Y39531847D01*
X14825347Y39520052D01*
X14842178Y39509964D01*
X14862974Y39496068D01*
X14878746Y39484371D01*
X14898090Y39468494D01*
X14912621Y39455324D01*
X14930324Y39437621D01*
X14943494Y39423090D01*
X14959371Y39403746D01*
X14971068Y39387974D01*
X14984964Y39367178D01*
X14995052Y39350347D01*
X15006847Y39328279D01*
X15015242Y39310527D01*
X15024808Y39287435D01*
X15031423Y39268948D01*
X15038690Y39244994D01*
X15043454Y39225977D01*
X15048337Y39201426D01*
X15051217Y39182011D01*
X15053668Y39157119D01*
X15054632Y39137502D01*
X15054632Y39112498D01*
X15053668Y39092881D01*
X15051217Y39067989D01*
X15048337Y39048574D01*
X15043454Y39024023D01*
X15038690Y39005006D01*
X15031423Y38981052D01*
X15024808Y38962565D01*
X15015242Y38939473D01*
X15006847Y38921721D01*
X14995052Y38899653D01*
X14984964Y38882822D01*
X14971068Y38862026D01*
X14959371Y38846254D01*
X14943494Y38826910D01*
X14930324Y38812379D01*
X14912621Y38794676D01*
X14898090Y38781506D01*
X14878746Y38765629D01*
X14862974Y38753932D01*
X14842178Y38740036D01*
X14825347Y38729948D01*
X14803279Y38718153D01*
X14785527Y38709758D01*
X14762441Y38700195D01*
X14751029Y38696111D01*
X14716974Y38675513D01*
X14693650Y38643264D01*
X14684720Y38601957D01*
X14684720Y38302487D01*
X14692640Y38263483D01*
X14715145Y38230658D01*
X14748672Y38209210D01*
X14796153Y38203143D01*
X14855733Y38210000D01*
X15145103Y38210000D01*
X15188950Y38205694D01*
X15219600Y38195862D01*
X15259159Y38191490D01*
D02*
G37*
%LPD*%
G36*
X7883188Y35554889D02*
X7921919Y35564048D01*
X7950711Y35584127D01*
X8549589Y36183005D01*
X8559600Y36189841D01*
X8591391Y36221394D01*
X8697586Y36308546D01*
X8771736Y36358091D01*
X8892729Y36422763D01*
X8975116Y36456888D01*
X9106412Y36496716D01*
X9193862Y36514111D01*
X9332831Y36527800D01*
X9377456Y36529992D01*
X11495000Y36529992D01*
X11534004Y36537912D01*
X11566829Y36560417D01*
X11588277Y36593944D01*
X11595000Y36629992D01*
X11595000Y38001345D01*
X11599535Y38063219D01*
X11618346Y38141654D01*
X11619740Y38181429D01*
X11605510Y38218598D01*
X11572511Y38250749D01*
X11562269Y38256887D01*
X11541460Y38270792D01*
X11517821Y38288324D01*
X11498472Y38304203D01*
X11476670Y38323963D01*
X11458963Y38341670D01*
X11439203Y38363472D01*
X11423324Y38382821D01*
X11405792Y38406460D01*
X11391889Y38427267D01*
X11376756Y38452515D01*
X11364959Y38474586D01*
X11352375Y38501192D01*
X11342801Y38524305D01*
X11332884Y38552021D01*
X11325618Y38575972D01*
X11318461Y38604549D01*
X11313587Y38629049D01*
X11309266Y38658183D01*
X11306812Y38683100D01*
X11305368Y38712475D01*
X11305368Y38737525D01*
X11306812Y38766900D01*
X11309266Y38791817D01*
X11313587Y38820951D01*
X11318461Y38845451D01*
X11325618Y38874028D01*
X11332884Y38897979D01*
X11342801Y38925695D01*
X11352375Y38948808D01*
X11364959Y38975414D01*
X11376756Y38997485D01*
X11391889Y39022733D01*
X11405792Y39043540D01*
X11423324Y39067179D01*
X11439203Y39086528D01*
X11458963Y39108330D01*
X11476670Y39126037D01*
X11498472Y39145797D01*
X11517821Y39161676D01*
X11541460Y39179208D01*
X11562267Y39193111D01*
X11587515Y39208244D01*
X11609586Y39220041D01*
X11636192Y39232625D01*
X11659305Y39242199D01*
X11687021Y39252116D01*
X11710972Y39259382D01*
X11739549Y39266539D01*
X11764049Y39271413D01*
X11793183Y39275734D01*
X11818100Y39278188D01*
X11847475Y39279632D01*
X11872525Y39279632D01*
X11901900Y39278188D01*
X11926820Y39275734D01*
X11940338Y39273729D01*
X11980081Y39275841D01*
X12015853Y39293286D01*
X12041988Y39323303D01*
X12055010Y39372647D01*
X12055010Y39720000D01*
X12047090Y39759004D01*
X12024585Y39791829D01*
X11991058Y39813277D01*
X11955010Y39820000D01*
X9391284Y39820000D01*
X9352280Y39812080D01*
X9320573Y39790711D01*
X7809289Y38279427D01*
X7787310Y38246247D01*
X7780000Y38208716D01*
X7780000Y35654838D01*
X7787920Y35615834D01*
X7810425Y35583009D01*
X7843952Y35561561D01*
X7883188Y35554889D01*
D02*
G37*
%LPD*%
G36*
X13707970Y38405483D02*
X13747448Y38410530D01*
X13781831Y38430576D01*
X13805672Y38462444D01*
X13815280Y38505215D01*
X13815280Y38601957D01*
X13807360Y38640961D01*
X13784855Y38673786D01*
X13748971Y38696111D01*
X13737559Y38700195D01*
X13714473Y38709758D01*
X13696721Y38718153D01*
X13674653Y38729948D01*
X13657822Y38740036D01*
X13637026Y38753932D01*
X13621254Y38765629D01*
X13601910Y38781506D01*
X13587379Y38794676D01*
X13569676Y38812379D01*
X13556506Y38826910D01*
X13540629Y38846254D01*
X13528932Y38862026D01*
X13515036Y38882822D01*
X13504948Y38899653D01*
X13493153Y38921721D01*
X13484758Y38939473D01*
X13475192Y38962565D01*
X13468581Y38981039D01*
X13460704Y39007005D01*
X13441802Y39042030D01*
X13410736Y39066908D01*
X13372428Y39077700D01*
X13332944Y39072694D01*
X13298540Y39052686D01*
X13274664Y39020843D01*
X13265010Y38977975D01*
X13265010Y38510000D01*
X13272930Y38470996D01*
X13295435Y38438171D01*
X13328962Y38416723D01*
X13365010Y38410000D01*
X13646346Y38410000D01*
X13707970Y38405483D01*
D02*
G37*
%LPD*%
G36*
X13029093Y23755000D02*
X13068097Y23762920D01*
X13112240Y23799443D01*
X13156906Y23866290D01*
X13163220Y23873984D01*
X13194769Y23905771D01*
X13200847Y23915022D01*
X13384223Y24098398D01*
X13394228Y24105230D01*
X13426015Y24136779D01*
X13433709Y24143093D01*
X13507867Y24192644D01*
X13516480Y24197248D01*
X13598862Y24231373D01*
X13608213Y24234209D01*
X13695675Y24251609D01*
X13707856Y24252809D01*
X13752447Y24255000D01*
X14145000Y24255000D01*
X14184004Y24262920D01*
X14216829Y24285425D01*
X14238277Y24318952D01*
X14245000Y24355000D01*
X14245000Y24997537D01*
X14247191Y25042133D01*
X14248389Y25054304D01*
X14265792Y25141794D01*
X14268626Y25151138D01*
X14302751Y25233520D01*
X14307355Y25242133D01*
X14356906Y25316291D01*
X14363220Y25323985D01*
X14394769Y25355772D01*
X14400847Y25365023D01*
X15031677Y25995853D01*
X15053656Y26029033D01*
X15060953Y26068158D01*
X15052413Y26107030D01*
X15016726Y26149575D01*
X15000425Y26160524D01*
X14948754Y26210582D01*
X14906763Y26269005D01*
X14875781Y26333946D01*
X14856795Y26403335D01*
X14856209Y26409897D01*
X14844853Y26448042D01*
X14819519Y26478736D01*
X14784219Y26497119D01*
X14744545Y26500277D01*
X14706781Y26487711D01*
X14685894Y26471718D01*
X14115777Y25901601D01*
X14105772Y25894769D01*
X14073985Y25863220D01*
X14066291Y25856906D01*
X13992133Y25807355D01*
X13983520Y25802751D01*
X13901138Y25768626D01*
X13891794Y25765792D01*
X13804304Y25748389D01*
X13792133Y25747191D01*
X13747537Y25745000D01*
X13045496Y25745000D01*
X13006492Y25737080D01*
X12973667Y25714575D01*
X12952219Y25681048D01*
X12945547Y25641812D01*
X12947659Y25627782D01*
X12955000Y25545545D01*
X12955000Y24153655D01*
X12950465Y24091780D01*
X12933498Y24021035D01*
X12904594Y23955151D01*
X12874776Y23910760D01*
X12859602Y23873966D01*
X12859981Y23834168D01*
X12875852Y23797670D01*
X12904702Y23770253D01*
X12957787Y23755000D01*
X13029093Y23755000D01*
D02*
G37*
G01*
%LPD*%
D10*
X7000000Y13380000D02*
X7000000Y11500000D01*
D11*
X31931610Y17325226D02*
X31931610Y15174774D01*
D11*
X15000000Y36192499D02*
X15068390Y36124109D01*
D12*
X10681610Y14424774D02*
X10681610Y14198390D01*
D11*
X23991610Y30890226D02*
X20575226Y34306610D01*
D12*
X18000000Y31250000D02*
X18000000Y32125000D01*
D12*
X11950000Y24850000D02*
X11950000Y25700000D01*
D12*
X14950000Y27450000D02*
X15555000Y27450000D01*
D13*
X6875000Y32875000D02*
X6875000Y38625000D01*
D11*
X31568390Y17174774D02*
X31568390Y15325226D01*
D11*
X20575226Y34306610D02*
X16143561Y34306610D01*
D11*
X29318390Y17299774D02*
X28924774Y17693390D01*
D11*
X28500000Y16000000D02*
X29318390Y16818390D01*
D13*
X22375000Y39000000D02*
X22375000Y35750000D01*
D11*
X29674774Y14931610D02*
X29318390Y14575226D01*
D12*
X15799774Y20681610D02*
X12299774Y20681610D01*
D11*
X24445000Y28125000D02*
X23991610Y28578390D01*
D11*
X29825226Y14568390D02*
X29681610Y14424774D01*
D12*
X11950000Y25700000D02*
X12500000Y26250000D01*
D12*
X16008390Y21421610D02*
X16008390Y20890226D01*
D13*
X20750000Y40625000D02*
X22375000Y39000000D01*
D11*
X15431610Y35456610D02*
X15600000Y35625000D01*
D11*
X21451610Y20055226D02*
X21451610Y21421610D01*
D10*
X4875000Y20250000D02*
X3000000Y22125000D01*
D12*
X18911610Y21421610D02*
X18911610Y19529774D01*
D10*
X26250000Y32000000D02*
X25500000Y32750000D01*
D10*
X27375000Y23750000D02*
X27375000Y30875000D01*
D11*
X20424774Y33943390D02*
X15993110Y33943390D01*
D11*
X24075226Y18931610D02*
X22575226Y18931610D01*
D11*
X29318390Y14575226D02*
X29318390Y14198390D01*
D11*
X29075226Y18056610D02*
X24950226Y18056610D01*
D14*
X33000000Y41750000D02*
X28750000Y41750000D01*
D12*
X34500000Y41750000D02*
X34500000Y42950000D01*
D12*
X18095000Y26030000D02*
X18125000Y26000000D01*
D12*
X18095000Y21875000D02*
X18548390Y21421610D01*
D12*
X13550000Y23549999D02*
X13750001Y23750000D01*
D11*
X21451610Y21421610D02*
X21905000Y21875000D01*
D12*
X13550000Y22650000D02*
X13550000Y23549999D01*
D14*
X17200000Y38033614D02*
X16625000Y38608614D01*
D12*
X19365000Y27450000D02*
X19250000Y27565000D01*
D11*
X14431610Y37923390D02*
X14431610Y38956610D01*
D11*
X22575226Y18931610D02*
X21451610Y20055226D01*
D10*
X7000000Y11500000D02*
X11750000Y6750000D01*
D11*
X14500000Y37280000D02*
X14500000Y37855000D01*
D14*
X20500000Y29750000D02*
X21875000Y29750000D01*
D15*
X8875000Y40625000D02*
X12750000Y40625000D01*
D11*
X29681610Y16818390D02*
X29681610Y17450226D01*
D14*
X20635000Y26135000D02*
X20500000Y26000000D01*
D12*
X12299774Y14931610D02*
X10674774Y14931610D01*
D10*
X26000000Y9250000D02*
X26000000Y13380000D01*
D14*
X6875000Y35375000D02*
X6875000Y34625000D01*
D12*
X19365000Y27450000D02*
X19365000Y26010000D01*
D10*
X3000000Y30625000D02*
X5250000Y32875000D01*
D12*
X16500000Y25750000D02*
X16825000Y26075000D01*
D12*
X13750000Y26250000D02*
X14950000Y27450000D01*
D12*
X10318390Y14198390D02*
X9500000Y13380000D01*
D16*
X12300000Y36049992D02*
X11625000Y35374992D01*
D11*
X28924774Y17693390D02*
X24799774Y17693390D01*
D11*
X23991610Y28578390D02*
X23991610Y30890226D01*
D11*
X29681610Y14198390D02*
X30500000Y13380000D01*
D12*
X12568390Y15200226D02*
X12568390Y17825226D01*
D11*
X15431610Y35018561D02*
X15431610Y35456610D01*
D12*
X15555000Y21875000D02*
X16008390Y21421610D01*
D10*
X5250000Y32875000D02*
X6875000Y32875000D01*
D11*
X29681610Y17450226D02*
X29075226Y18056610D01*
D11*
X15431610Y36124109D02*
X15431610Y35793390D01*
D11*
X31325226Y14568390D02*
X29825226Y14568390D01*
D11*
X21088390Y21421610D02*
X20635000Y21875000D01*
D10*
X11271447Y35374992D02*
X11625000Y35374992D01*
D10*
X26000000Y13380000D02*
X26000000Y16000000D01*
D10*
X6875000Y32875000D02*
X9374992Y35374992D01*
D11*
X22424774Y18568390D02*
X21088390Y19904774D01*
D16*
X17200000Y37280000D02*
X17200000Y36175000D01*
D12*
X19250000Y31250000D02*
X19250000Y32125000D01*
D11*
X23628390Y20989774D02*
X24424774Y20193390D01*
D14*
X6875000Y34625000D02*
X6875000Y33750000D01*
D10*
X23500000Y6750000D02*
X26000000Y9250000D01*
D12*
X10681610Y14198390D02*
X11500000Y13380000D01*
D12*
X18000000Y29750000D02*
X18000000Y27545000D01*
D11*
X15500000Y37280000D02*
X15500000Y36192499D01*
D12*
X12450226Y14568390D02*
X12931610Y15049774D01*
D12*
X12931610Y15049774D02*
X12931610Y17674774D01*
D10*
X9374992Y35374992D02*
X11271447Y35374992D01*
D10*
X11750000Y6750000D02*
X23500000Y6750000D01*
D12*
X13000000Y37280000D02*
X13000000Y34125000D01*
D12*
X13000000Y34125000D02*
X15125000Y32000000D01*
D12*
X12568390Y17825226D02*
X13674774Y18931610D01*
D12*
X16625000Y31750000D02*
X16625000Y31375000D01*
D11*
X23175000Y27450000D02*
X23175000Y28125000D01*
D10*
X6500000Y20250000D02*
X4875000Y20250000D01*
D14*
X21905000Y29720000D02*
X21875000Y29750000D01*
D12*
X15500000Y25750000D02*
X16500000Y25750000D01*
D12*
X16000000Y37280000D02*
X16000000Y36375000D01*
D12*
X16008390Y20890226D02*
X15799774Y20681610D01*
D11*
X23175000Y28125000D02*
X23628390Y28578390D01*
D12*
X12931610Y17674774D02*
X13825226Y18568390D01*
D12*
X10674774Y14931610D02*
X10318390Y14575226D01*
D12*
X10318390Y16818390D02*
X9500000Y16000000D01*
D12*
X16250000Y32500000D02*
X16250000Y32125000D01*
D11*
X30075226Y19181610D02*
X31931610Y17325226D01*
D15*
X12750000Y40625000D02*
X16625000Y40625000D01*
D12*
X19250000Y27565000D02*
X19250000Y29750000D01*
D12*
X10318390Y14575226D02*
X10318390Y14198390D01*
D11*
X14431610Y38956610D02*
X14600000Y39125000D01*
D11*
X15068390Y36124109D02*
X15068390Y35793390D01*
D12*
X18548390Y21421610D02*
X18548390Y19680226D01*
D14*
X20635000Y28760034D02*
X20749966Y28875000D01*
D12*
X17799774Y18931610D02*
X13674774Y18931610D01*
D11*
X31568390Y15325226D02*
X31174774Y14931610D01*
D11*
X15068390Y35456610D02*
X14900000Y35625000D01*
D11*
X14000000Y37280000D02*
X14000000Y37855000D01*
D11*
X24799774Y17693390D02*
X23924774Y18568390D01*
D12*
X14500000Y23750000D02*
X14750000Y24000000D01*
D11*
X27174774Y18818390D02*
X29924774Y18818390D01*
D14*
X21905000Y27450000D02*
X21905000Y29720000D01*
D16*
X12300000Y37280000D02*
X12300000Y36049992D01*
D12*
X12450226Y14568390D02*
X10825226Y14568390D01*
D11*
X23175000Y22550000D02*
X23175000Y21875000D01*
D11*
X25950226Y20556610D02*
X27325226Y19181610D01*
D11*
X16143561Y34306610D02*
X15431610Y35018561D01*
D14*
X17200000Y37280000D02*
X17200000Y38033614D01*
D12*
X20500000Y31250000D02*
X20500000Y32125000D01*
D11*
X31174774Y14931610D02*
X29674774Y14931610D01*
D12*
X16825000Y26075000D02*
X16825000Y27450000D01*
D14*
X12300000Y37280000D02*
X12300000Y38033614D01*
D12*
X19365000Y21875000D02*
X18911610Y21421610D01*
D11*
X29681610Y14424774D02*
X29681610Y14198390D01*
D12*
X18911610Y19529774D02*
X17950226Y18568390D01*
D11*
X15000000Y37280000D02*
X15000000Y36192499D01*
D11*
X14068390Y37923390D02*
X14068390Y38956610D01*
D14*
X28750000Y41750000D02*
X25500000Y38500000D01*
D11*
X15068390Y34868110D02*
X15068390Y35456610D01*
D11*
X23175000Y21875000D02*
X23628390Y21421610D01*
D11*
X23628390Y30739774D02*
X20424774Y33943390D01*
D12*
X19365000Y26010000D02*
X19375000Y26000000D01*
D11*
X23628390Y21421610D02*
X23628390Y20989774D01*
D14*
X12660010Y40535010D02*
X12750000Y40625000D01*
D13*
X22375000Y35750000D02*
X23125000Y35000000D01*
D12*
X15125000Y32000000D02*
X15125000Y31375000D01*
D11*
X30500000Y16000000D02*
X29681610Y16818390D01*
D11*
X15993110Y33943390D02*
X15068390Y34868110D01*
D12*
X13750001Y23750000D02*
X14500000Y23750000D01*
D14*
X20635000Y27450000D02*
X20635000Y26135000D01*
D11*
X14068390Y38956610D02*
X13900000Y39125000D01*
D11*
X23628390Y28578390D02*
X23628390Y30739774D01*
D11*
X24950226Y18056610D02*
X24075226Y18931610D01*
D11*
X25799774Y20193390D02*
X27174774Y18818390D01*
D12*
X34500000Y42950000D02*
X34800000Y43250000D01*
D11*
X14000000Y37855000D02*
X14068390Y37923390D01*
D11*
X24445000Y27450000D02*
X24445000Y28125000D01*
D11*
X29318390Y16818390D02*
X29318390Y17299774D01*
D11*
X24445000Y21875000D02*
X23991610Y21421610D01*
D12*
X18548390Y19680226D02*
X17799774Y18931610D01*
D15*
X16625000Y40625000D02*
X20750000Y40625000D01*
D10*
X25500000Y32750000D02*
X25500000Y35000000D01*
D12*
X16000000Y36375000D02*
X16250004Y36124996D01*
D10*
X7000000Y19750000D02*
X6500000Y20250000D01*
D11*
X31931610Y15174774D02*
X31325226Y14568390D01*
D16*
X17625000Y35750000D02*
X22375000Y35750000D01*
D11*
X24424774Y20193390D02*
X25799774Y20193390D01*
D11*
X23924774Y18568390D02*
X22424774Y18568390D01*
D11*
X27325226Y19181610D02*
X30075226Y19181610D01*
D12*
X16825000Y22550000D02*
X16825000Y21875000D01*
D12*
X15950226Y20318390D02*
X12450226Y20318390D01*
D14*
X20635000Y27450000D02*
X20635000Y28760034D01*
D12*
X16250000Y32125000D02*
X16625000Y31750000D01*
D11*
X21905000Y21875000D02*
X21905000Y22550000D01*
D12*
X12500000Y26250000D02*
X13750000Y26250000D01*
D11*
X24445000Y22550000D02*
X24445000Y21875000D01*
D16*
X17200000Y36175000D02*
X17625000Y35750000D01*
D14*
X6875000Y33750000D02*
X6875000Y32875000D01*
D12*
X10681610Y18549774D02*
X10681610Y16818390D01*
D12*
X16371610Y21421610D02*
X16371610Y20739774D01*
D14*
X16625000Y38608614D02*
X16625000Y40625000D01*
D10*
X7000000Y16000000D02*
X7000000Y19750000D01*
D12*
X16371610Y20739774D02*
X15950226Y20318390D01*
D11*
X29924774Y18818390D02*
X31568390Y17174774D01*
D11*
X20635000Y21875000D02*
X20635000Y22550000D01*
D14*
X6875000Y36875000D02*
X6875000Y36125000D01*
D12*
X14750000Y24000000D02*
X14750000Y25000000D01*
D10*
X29750000Y21875000D02*
X27375000Y21875000D01*
D12*
X18095000Y27450000D02*
X18095000Y26030000D01*
D12*
X12299774Y14931610D02*
X12568390Y15200226D01*
D12*
X19365000Y22550000D02*
X19365000Y21875000D01*
D11*
X15500000Y36192499D02*
X15431610Y36124109D01*
D13*
X23125000Y35000000D02*
X25500000Y35000000D01*
D10*
X27375000Y30875000D02*
X26250000Y32000000D01*
D11*
X15431610Y35793390D02*
X15600000Y35625000D01*
D13*
X6875000Y38625000D02*
X8875000Y40625000D01*
D14*
X12660010Y38393624D02*
X12660010Y40535010D01*
D11*
X21088390Y19904774D02*
X21088390Y21421610D01*
D12*
X10318390Y18700226D02*
X10318390Y16818390D01*
D12*
X12299774Y20681610D02*
X10318390Y18700226D01*
D12*
X16825000Y21875000D02*
X16371610Y21421610D01*
D12*
X10681610Y16818390D02*
X11500000Y16000000D01*
D11*
X24575226Y20556610D02*
X25950226Y20556610D01*
D14*
X25500000Y38500000D02*
X25500000Y35000000D01*
D12*
X18095000Y22550000D02*
X18095000Y21875000D01*
D12*
X10825226Y14568390D02*
X10681610Y14424774D01*
D11*
X23991610Y21140226D02*
X24575226Y20556610D01*
D12*
X17950226Y18568390D02*
X13825226Y18568390D01*
D14*
X6875000Y36125000D02*
X6875000Y35375000D01*
D12*
X18000000Y27545000D02*
X18095000Y27450000D01*
D11*
X23991610Y21421610D02*
X23991610Y21140226D01*
D14*
X12300000Y38033614D02*
X12660010Y38393624D01*
D11*
X29318390Y14198390D02*
X28500000Y13380000D01*
D11*
X14500000Y37855000D02*
X14431610Y37923390D01*
D12*
X14750000Y25000000D02*
X15500000Y25750000D01*
D12*
X15555000Y22550000D02*
X15555000Y21875000D01*
D10*
X3000000Y22125000D02*
X3000000Y30625000D01*
D12*
X12450226Y20318390D02*
X10681610Y18549774D01*
D10*
X7000000Y13380000D02*
X7000000Y16000000D01*
D11*
X15068390Y35793390D02*
X14900000Y35625000D01*
D10*
X27375000Y21875000D02*
X27375000Y23750000D01*
G75*
D17*
X11950000Y24850000D03*
D17*
X11950000Y22650000D03*
D17*
X13550000Y22650000D03*
D17*
X13550000Y24850000D03*
D18*
X33000000Y41750000D03*
D18*
X34500000Y41750000D03*
D19*
X33200000Y43250000D03*
D19*
X34800000Y43250000D03*
D20*
X22930000Y16350000D03*
D21*
X26000000Y13380000D03*
D21*
X33000000Y16000000D03*
D21*
X26000000Y16000000D03*
D20*
X36070000Y16350000D03*
D21*
X33000000Y13380000D03*
D21*
X30500000Y13380000D03*
D20*
X22930000Y10670000D03*
D21*
X28500000Y13380000D03*
D21*
X28500000Y16000000D03*
D20*
X36070000Y10670000D03*
D21*
X30500000Y16000000D03*
D22*
X18000000Y31250000D03*
D22*
X18000000Y29750000D03*
D23*
X25500000Y35000000D03*
D23*
X32000000Y35000000D03*
D24*
X29750000Y21875000D03*
D24*
X29750000Y28375000D03*
D22*
X19250000Y31250000D03*
D22*
X19250000Y29750000D03*
D22*
X20500000Y31250000D03*
D22*
X20500000Y29750000D03*
D25*
X15125000Y31375000D03*
D25*
X15125000Y29875000D03*
D26*
X21905000Y22550000D03*
D27*
X23175000Y27450000D03*
D26*
X19365000Y22550000D03*
D27*
X24445000Y27450000D03*
D27*
X16825000Y27450000D03*
D27*
X18095000Y27450000D03*
D26*
X16825000Y22550000D03*
D27*
X20635000Y27450000D03*
D27*
X21905000Y27450000D03*
D26*
X18095000Y22550000D03*
D27*
X15555000Y27450000D03*
D26*
X20635000Y22550000D03*
D26*
X23175000Y22550000D03*
D26*
X24445000Y22550000D03*
D26*
X15555000Y22550000D03*
D27*
X19365000Y27450000D03*
D20*
X3930000Y16350000D03*
D21*
X7000000Y13380000D03*
D21*
X14000000Y16000000D03*
D21*
X7000000Y16000000D03*
D20*
X17070000Y16350000D03*
D21*
X14000000Y13380000D03*
D21*
X11500000Y13380000D03*
D20*
X3930000Y10670000D03*
D21*
X9500000Y13380000D03*
D21*
X9500000Y16000000D03*
D20*
X17070000Y10670000D03*
D21*
X11500000Y16000000D03*
D28*
X13500000Y37280000D03*
D29*
X10430000Y42375000D03*
D28*
X15500000Y37280000D03*
D28*
X16500000Y37280000D03*
D28*
X15000000Y37280000D03*
D30*
X19070000Y38195001D03*
D29*
X19070000Y42375000D03*
D28*
X13000000Y37280000D03*
D30*
X10430000Y38195001D03*
D31*
X18000000Y37280000D03*
D31*
X17200000Y37280000D03*
D28*
X16000000Y37280000D03*
D31*
X12300000Y37280000D03*
D28*
X14500000Y37280000D03*
D31*
X11500000Y37280000D03*
D28*
X14000000Y37280000D03*
D25*
X16625000Y31375000D03*
D25*
X16625000Y29875000D03*
D24*
X6500000Y20250000D03*
D24*
X6500000Y26750000D03*
D32*
X6875000Y33750000D03*
D33*
X14125000Y34750000D03*
D33*
X14000000Y17500000D03*
D33*
X12000000Y44000000D03*
D33*
X20000000Y44000000D03*
D33*
X23125000Y25875000D03*
D32*
X6875000Y35375000D03*
D33*
X15375000Y38625000D03*
D33*
X11750000Y17500000D03*
D33*
X5500000Y30000000D03*
D33*
X26000000Y2000000D03*
D32*
X22375000Y36250000D03*
D33*
X8500000Y17000000D03*
D33*
X2000000Y36000000D03*
D33*
X5500000Y29000000D03*
D33*
X21375000Y32000000D03*
D33*
X32500000Y37500000D03*
D33*
X10000000Y30000000D03*
D33*
X2000000Y8000000D03*
D33*
X14000000Y36000000D03*
D33*
X19000000Y18000000D03*
D33*
X15500000Y24500000D03*
D33*
X29000000Y25500000D03*
D33*
X34000000Y8000000D03*
D33*
X27750000Y20000000D03*
D33*
X24500000Y24250000D03*
D33*
X31500000Y12000000D03*
D33*
X17875000Y33250000D03*
D33*
X30000000Y2000000D03*
D33*
X34000000Y22000000D03*
D32*
X6875000Y32875000D03*
D33*
X14900000Y35625000D03*
D33*
X7500000Y24000000D03*
D33*
X10000000Y32000000D03*
D33*
X34000000Y38000000D03*
D33*
X14375000Y19625000D03*
D33*
X14500000Y28750000D03*
D33*
X20749966Y28875000D03*
D33*
X2000000Y40000000D03*
D34*
X27375000Y23750000D03*
D33*
X20500000Y32125000D03*
D33*
X14000000Y30000000D03*
D33*
X30875000Y19375000D03*
D33*
X25250000Y27875000D03*
D33*
X12000000Y12000000D03*
D33*
X15000000Y34000000D03*
D33*
X38000000Y42000000D03*
D33*
X19750000Y34875000D03*
D33*
X12000000Y42000000D03*
D33*
X13500000Y21250000D03*
D33*
X22875000Y29000000D03*
D33*
X10250000Y22000000D03*
D33*
X21125000Y34875000D03*
D33*
X6000000Y40000000D03*
D32*
X22375000Y37125000D03*
D32*
X6875000Y36875000D03*
D33*
X24125000Y19625000D03*
D33*
X32625000Y17875000D03*
D33*
X18125000Y26000000D03*
D33*
X15600000Y35625000D03*
D33*
X7500000Y30000000D03*
D33*
X15500000Y33125000D03*
D33*
X24625000Y29000000D03*
D33*
X10000000Y27000000D03*
D33*
X18000000Y4000000D03*
D33*
X14000000Y32000000D03*
D33*
X8500000Y12500000D03*
D32*
X22375000Y39000000D03*
D32*
X25500000Y32750000D03*
D33*
X6000000Y44000000D03*
D33*
X10000000Y4000000D03*
D33*
X30000000Y8000000D03*
D33*
X31750000Y18875000D03*
D33*
X14750000Y23000000D03*
D33*
X22375000Y31000000D03*
D33*
X14000000Y27750000D03*
D33*
X32000000Y25500000D03*
D33*
X8500000Y15000000D03*
D33*
X25375000Y22875000D03*
D32*
X26250000Y32000000D03*
D33*
X16250004Y36124996D03*
D33*
X18375000Y34875000D03*
D33*
X19500000Y33250000D03*
D33*
X25250000Y21250000D03*
D33*
X30375000Y17250000D03*
D33*
X23125000Y33125000D03*
D33*
X27500000Y16875000D03*
D33*
X38000000Y8000000D03*
D33*
X18000000Y24500000D03*
D33*
X20375000Y33250000D03*
D33*
X19375000Y26000000D03*
D33*
X13375000Y38500000D03*
D32*
X6875000Y36125000D03*
D33*
X29500000Y37500000D03*
D33*
X38000000Y26000000D03*
D32*
X6875000Y34625000D03*
D33*
X16250000Y35125000D03*
D33*
X5500000Y24000000D03*
D33*
X13000000Y27000000D03*
D33*
X32500000Y33000000D03*
D33*
X29500000Y33000000D03*
D33*
X14750000Y21250000D03*
D33*
X9500000Y18000000D03*
D33*
X11500000Y27000000D03*
D33*
X14750000Y22250000D03*
D33*
X23250000Y24250000D03*
D33*
X20500000Y26000000D03*
D33*
X28250000Y12000000D03*
D33*
X34000000Y30000000D03*
D33*
X20000000Y21000000D03*
D33*
X26000000Y42000000D03*
D33*
X16500000Y24500000D03*
D35*
X27375000Y21875000D03*
D32*
X22375000Y38000000D03*
D33*
X21875000Y24250000D03*
D33*
X20000000Y19000000D03*
D33*
X22000000Y42000000D03*
D33*
X16000000Y44000000D03*
D33*
X29750000Y18250000D03*
D33*
X15375000Y39500000D03*
D33*
X29500000Y36000000D03*
D33*
X21000000Y18000000D03*
D33*
X13900000Y39125000D03*
D33*
X2000000Y32000000D03*
D33*
X10000000Y12000000D03*
D32*
X21875000Y29750000D03*
D33*
X2000000Y4000000D03*
D33*
X12375000Y18875000D03*
D33*
X38000000Y34000000D03*
D33*
X6000000Y4000000D03*
D33*
X20000000Y20000000D03*
D33*
X14000000Y4000000D03*
D33*
X14750000Y26000000D03*
D33*
X10000000Y19500000D03*
D33*
X38000000Y38000000D03*
D33*
X17250000Y20125000D03*
D33*
X10000000Y24000000D03*
D33*
X16250000Y32500000D03*
D33*
X18000000Y32125000D03*
D33*
X20625000Y24250000D03*
D33*
X38000000Y2000000D03*
D33*
X28500000Y14750000D03*
D33*
X19000000Y24500000D03*
D33*
X38000000Y30000000D03*
D33*
X33000000Y25500000D03*
D33*
X16000000Y42000000D03*
D33*
X6000000Y8000000D03*
D33*
X22500000Y20125000D03*
D33*
X12000000Y32000000D03*
D33*
X38000000Y18000000D03*
D33*
X22125000Y34000000D03*
D33*
X33000000Y28500000D03*
D33*
X32000000Y28500000D03*
D33*
X16250000Y19625000D03*
D33*
X19250000Y32125000D03*
D33*
X25375000Y29750000D03*
D33*
X14600000Y39125000D03*
D33*
X24500000Y25875000D03*
D33*
X12000000Y34000000D03*
D33*
X10000000Y25500000D03*
D33*
X34000000Y2000000D03*
D33*
X38000000Y22000000D03*
D33*
X11500000Y21000000D03*
D33*
X7500000Y29000000D03*
D33*
X22500000Y21000000D03*
D33*
X4000000Y36000000D03*
D32*
X11625000Y35374992D03*
M02*
