%FSLAX46Y46*%
%MOMM*%
%AMPS13*
1,1,3.516000,0.000000,0.000000*
%
%ADD13PS13*%
%AMPS14*
1,1,1.628000,0.000000,0.000000*
%
%ADD14PS14*%
%AMPS12*
21,1,1.000000,1.000000,0.000000,0.000000,0.000000*
%
%ADD12PS12*%
%AMPS25*
21,1,0.800000,1.650000,0.000000,0.000000,180.000000*
%
%ADD25PS25*%
%AMPS19*
21,1,0.800000,2.150000,0.000000,0.000000,0.000000*
%
%ADD19PS19*%
%AMPS20*
21,1,0.800000,2.150000,0.000000,0.000000,180.000000*
%
%ADD20PS20*%
%AMPS21*
21,1,0.500000,1.650000,0.000000,0.000000,180.000000*
%
%ADD21PS21*%
%AMPS10*
21,1,1.600000,1.400000,0.000000,0.000000,90.000000*
%
%ADD10PS10*%
%AMPS26*
1,1,0.600000,0.000000,0.000000*
%
%ADD26PS26*%
%AMPS28*
1,1,1.000000,0.000000,0.000000*
%
%ADD28PS28*%
%AMPS27*
1,1,0.500000,0.000000,0.000000*
%
%ADD27PS27*%
%AMPS23*
21,1,1.050000,1.250000,0.000000,0.000000,270.000000*
1,1,1.250000,0.000000,-0.525000*
1,1,1.250000,0.000000,0.525000*
%
%ADD23PS23*%
%AMPS22*
21,1,1.050000,1.250000,0.000000,0.000000,270.000000*
1,1,1.250000,0.000000,-0.525000*
1,1,1.250000,0.000000,0.525000*
%
%ADD22PS22*%
%AMPS24*
1,1,0.900000,0.000000,0.000000*
%
%ADD24PS24*%
%AMPS15*
1,1,0.560000,-0.195000,-0.220000*
1,1,0.560000,0.195000,0.220000*
1,1,0.560000,-0.195000,0.220000*
1,1,0.560000,0.195000,-0.220000*
21,1,1.000000,0.390000,0.000000,0.000000,90.000000*
21,1,0.440000,0.950000,0.000000,0.000000,90.000000*
%
%ADD15PS15*%
%AMPS11*
1,1,0.440000,-0.130000,0.330000*
1,1,0.440000,0.130000,-0.330000*
1,1,0.440000,0.130000,0.330000*
1,1,0.440000,-0.130000,-0.330000*
21,1,0.700000,0.660000,0.000000,0.000000,0.000000*
21,1,0.260000,1.100000,0.000000,0.000000,0.000000*
%
%ADD11PS11*%
%AMPS18*
1,1,0.440000,0.330000,0.130000*
1,1,0.440000,-0.330000,-0.130000*
1,1,0.440000,0.330000,-0.130000*
1,1,0.440000,-0.330000,0.130000*
21,1,0.700000,0.660000,0.000000,0.000000,270.000000*
21,1,0.260000,1.100000,0.000000,0.000000,270.000000*
%
%ADD18PS18*%
%AMPS16*
1,1,0.700000,-1.500000,1.000000*
1,1,0.700000,1.500000,-1.000000*
1,1,0.700000,1.500000,1.000000*
1,1,0.700000,-1.500000,-1.000000*
21,1,3.700000,2.000000,0.000000,0.000000,0.000000*
21,1,3.000000,2.700000,0.000000,0.000000,0.000000*
%
%ADD16PS16*%
%AMPS17*
1,1,0.700000,-1.000000,-1.500000*
1,1,0.700000,1.000000,1.500000*
1,1,0.700000,-1.000000,1.500000*
1,1,0.700000,1.000000,-1.500000*
21,1,3.700000,2.000000,0.000000,0.000000,90.000000*
21,1,3.000000,2.700000,0.000000,0.000000,90.000000*
%
%ADD17PS17*%
G01*
G01*
%LPD*%
G75*
D10*
X11950000Y24850000D03*
D10*
X11950000Y22650000D03*
D10*
X13550000Y22650000D03*
D10*
X13550000Y24850000D03*
D11*
X33000000Y41750000D03*
D11*
X34500000Y41750000D03*
D12*
X33200000Y43250000D03*
D12*
X34800000Y43250000D03*
D13*
X22930000Y16350000D03*
D14*
X26000000Y13380000D03*
D14*
X33000000Y16000000D03*
D14*
X26000000Y16000000D03*
D13*
X36070000Y16350000D03*
D14*
X33000000Y13380000D03*
D14*
X30500000Y13380000D03*
D13*
X22930000Y10670000D03*
D14*
X28500000Y13380000D03*
D14*
X28500000Y16000000D03*
D13*
X36070000Y10670000D03*
D14*
X30500000Y16000000D03*
D15*
X18000000Y31250000D03*
D15*
X18000000Y29750000D03*
D16*
X25500000Y35000000D03*
D16*
X32000000Y35000000D03*
D17*
X29750000Y21875000D03*
D17*
X29750000Y28375000D03*
D15*
X19250000Y31250000D03*
D15*
X19250000Y29750000D03*
D15*
X20500000Y31250000D03*
D15*
X20500000Y29750000D03*
D18*
X15125000Y31375000D03*
D18*
X15125000Y29875000D03*
D19*
X21905000Y22550000D03*
D20*
X23175000Y27450000D03*
D19*
X19365000Y22550000D03*
D20*
X24445000Y27450000D03*
D20*
X16825000Y27450000D03*
D20*
X18095000Y27450000D03*
D19*
X16825000Y22550000D03*
D20*
X20635000Y27450000D03*
D20*
X21905000Y27450000D03*
D19*
X18095000Y22550000D03*
D20*
X15555000Y27450000D03*
D19*
X20635000Y22550000D03*
D19*
X23175000Y22550000D03*
D19*
X24445000Y22550000D03*
D19*
X15555000Y22550000D03*
D20*
X19365000Y27450000D03*
D13*
X3930000Y16350000D03*
D14*
X7000000Y13380000D03*
D14*
X14000000Y16000000D03*
D14*
X7000000Y16000000D03*
D13*
X17070000Y16350000D03*
D14*
X14000000Y13380000D03*
D14*
X11500000Y13380000D03*
D13*
X3930000Y10670000D03*
D14*
X9500000Y13380000D03*
D14*
X9500000Y16000000D03*
D13*
X17070000Y10670000D03*
D14*
X11500000Y16000000D03*
D21*
X13500000Y37280000D03*
D22*
X10430000Y42375000D03*
D21*
X15500000Y37280000D03*
D21*
X16500000Y37280000D03*
D21*
X15000000Y37280000D03*
D23*
X19070000Y38195001D03*
D24*
X17640000Y38725000D03*
D22*
X19070000Y42375000D03*
D21*
X13000000Y37280000D03*
D23*
X10430000Y38195001D03*
D25*
X18000000Y37280000D03*
D25*
X17200000Y37280000D03*
D24*
X11860000Y38725000D03*
D21*
X16000000Y37280000D03*
D25*
X12300000Y37280000D03*
D21*
X14500000Y37280000D03*
D25*
X11500000Y37280000D03*
D21*
X14000000Y37280000D03*
D18*
X16625000Y31375000D03*
D18*
X16625000Y29875000D03*
D17*
X6500000Y20250000D03*
D17*
X6500000Y26750000D03*
D26*
X6875000Y33750000D03*
D27*
X14125000Y34750000D03*
D27*
X14000000Y17500000D03*
D27*
X12000000Y44000000D03*
D27*
X20000000Y44000000D03*
D27*
X23125000Y25875000D03*
D26*
X6875000Y35375000D03*
D27*
X15375000Y38625000D03*
D27*
X11750000Y17500000D03*
D27*
X5500000Y30000000D03*
D27*
X26000000Y2000000D03*
D26*
X22375000Y36250000D03*
D27*
X8500000Y17000000D03*
D27*
X2000000Y36000000D03*
D27*
X5500000Y29000000D03*
D27*
X21375000Y32000000D03*
D27*
X32500000Y37500000D03*
D27*
X10000000Y30000000D03*
D27*
X2000000Y8000000D03*
D27*
X14000000Y36000000D03*
D27*
X19000000Y18000000D03*
D27*
X15500000Y24500000D03*
D27*
X29000000Y25500000D03*
D27*
X34000000Y8000000D03*
D27*
X27750000Y20000000D03*
D27*
X24500000Y24250000D03*
D27*
X31500000Y12000000D03*
D27*
X17875000Y33250000D03*
D27*
X30000000Y2000000D03*
D27*
X34000000Y22000000D03*
D26*
X6875000Y32875000D03*
D27*
X14900000Y35625000D03*
D27*
X7500000Y24000000D03*
D27*
X10000000Y32000000D03*
D27*
X34000000Y38000000D03*
D27*
X14375000Y19625000D03*
D27*
X14500000Y28750000D03*
D27*
X20749966Y28875000D03*
D27*
X2000000Y40000000D03*
D27*
X20500000Y32125000D03*
D27*
X14000000Y30000000D03*
D27*
X30875000Y19375000D03*
D27*
X25250000Y27875000D03*
D27*
X12000000Y12000000D03*
D27*
X15000000Y34000000D03*
D27*
X38000000Y42000000D03*
D27*
X19750000Y34875000D03*
D27*
X12000000Y42000000D03*
D27*
X13500000Y21250000D03*
D27*
X22875000Y29000000D03*
D27*
X10250000Y22000000D03*
D27*
X21125000Y34875000D03*
D27*
X6000000Y40000000D03*
D26*
X22375000Y37125000D03*
D26*
X6875000Y36875000D03*
D27*
X24125000Y19625000D03*
D27*
X32625000Y17875000D03*
D27*
X18125000Y26000000D03*
D27*
X15600000Y35625000D03*
D27*
X7500000Y30000000D03*
D27*
X15500000Y33125000D03*
D27*
X24625000Y29000000D03*
D27*
X10000000Y27000000D03*
D27*
X18000000Y4000000D03*
D27*
X14000000Y32000000D03*
D27*
X8500000Y12500000D03*
D26*
X22375000Y39000000D03*
D26*
X25500000Y32750000D03*
D27*
X6000000Y44000000D03*
D27*
X10000000Y4000000D03*
D27*
X30000000Y8000000D03*
D27*
X31750000Y18875000D03*
D27*
X14750000Y23000000D03*
D27*
X22375000Y31000000D03*
D27*
X14000000Y27750000D03*
D27*
X32000000Y25500000D03*
D27*
X8500000Y15000000D03*
D27*
X25375000Y22875000D03*
D26*
X26250000Y32000000D03*
D27*
X16250004Y36124996D03*
D27*
X18375000Y34875000D03*
D27*
X19500000Y33250000D03*
D27*
X25250000Y21250000D03*
D27*
X30375000Y17250000D03*
D27*
X23125000Y33125000D03*
D27*
X27500000Y16875000D03*
D27*
X38000000Y8000000D03*
D27*
X18000000Y24500000D03*
D27*
X20375000Y33250000D03*
D27*
X19375000Y26000000D03*
D27*
X13375000Y38500000D03*
D26*
X6875000Y36125000D03*
D27*
X29500000Y37500000D03*
D27*
X38000000Y26000000D03*
D26*
X6875000Y34625000D03*
D27*
X16250000Y35125000D03*
D27*
X5500000Y24000000D03*
D27*
X13000000Y27000000D03*
D27*
X32500000Y33000000D03*
D27*
X29500000Y33000000D03*
D27*
X14750000Y21250000D03*
D27*
X9500000Y18000000D03*
D27*
X11500000Y27000000D03*
D27*
X14750000Y22250000D03*
D27*
X23250000Y24250000D03*
D27*
X20500000Y26000000D03*
D27*
X28250000Y12000000D03*
D27*
X34000000Y30000000D03*
D27*
X20000000Y21000000D03*
D27*
X26000000Y42000000D03*
D27*
X16500000Y24500000D03*
D28*
X27375000Y21875000D03*
D26*
X22375000Y38000000D03*
D27*
X21875000Y24250000D03*
D27*
X20000000Y19000000D03*
D27*
X22000000Y42000000D03*
D27*
X16000000Y44000000D03*
D27*
X29750000Y18250000D03*
D27*
X15375000Y39500000D03*
D27*
X29500000Y36000000D03*
D27*
X21000000Y18000000D03*
D27*
X13900000Y39125000D03*
D27*
X2000000Y32000000D03*
D27*
X10000000Y12000000D03*
D26*
X21875000Y29750000D03*
D27*
X2000000Y4000000D03*
D27*
X12375000Y18875000D03*
D27*
X38000000Y34000000D03*
D27*
X6000000Y4000000D03*
D27*
X20000000Y20000000D03*
D27*
X14000000Y4000000D03*
D27*
X14750000Y26000000D03*
D27*
X10000000Y19500000D03*
D27*
X38000000Y38000000D03*
D27*
X17250000Y20125000D03*
D27*
X10000000Y24000000D03*
D27*
X16250000Y32500000D03*
D27*
X18000000Y32125000D03*
D27*
X20625000Y24250000D03*
D27*
X38000000Y2000000D03*
D27*
X28500000Y14750000D03*
D27*
X19000000Y24500000D03*
D27*
X38000000Y30000000D03*
D27*
X33000000Y25500000D03*
D27*
X16000000Y42000000D03*
D27*
X6000000Y8000000D03*
D27*
X22500000Y20125000D03*
D27*
X12000000Y32000000D03*
D27*
X38000000Y18000000D03*
D27*
X22125000Y34000000D03*
D27*
X33000000Y28500000D03*
D27*
X32000000Y28500000D03*
D27*
X16250000Y19625000D03*
D27*
X19250000Y32125000D03*
D27*
X25375000Y29750000D03*
D27*
X14600000Y39125000D03*
D27*
X24500000Y25875000D03*
D27*
X12000000Y34000000D03*
D27*
X10000000Y25500000D03*
D27*
X34000000Y2000000D03*
D27*
X38000000Y22000000D03*
D27*
X11500000Y21000000D03*
D27*
X7500000Y29000000D03*
D27*
X22500000Y21000000D03*
D27*
X4000000Y36000000D03*
D26*
X11625000Y35374992D03*
M02*
