%FSLAX46Y46*%
%MOMM*%
%ADD10C,0.150000*%
G01*
%LPD*%
G36*
X25928807Y34761919D02*
X25866862Y35132278D01*
X25725134Y35132247D01*
X25725134Y36507573D01*
X25835937Y36507573D01*
X25872426Y36884926D01*
X25940089Y37265138D01*
X25911463Y37265138D01*
X25911463Y37743131D01*
X26096301Y37743131D01*
X26192341Y37923710D01*
X26307651Y38080078D01*
X26443940Y38207198D01*
X26602981Y38299975D01*
X26657590Y38320737D01*
X26657528Y38021646D01*
X26584302Y37973036D01*
X26517695Y37909413D01*
X26402976Y37743131D01*
X26657528Y37743131D01*
X26657528Y37265138D01*
X26232062Y37265138D01*
X26162192Y36885827D01*
X26122378Y36507573D01*
X26004861Y36227877D01*
X26004861Y35412037D01*
X26151718Y35132278D01*
X26215403Y34767110D01*
X26260532Y34595139D01*
X26315763Y34435974D01*
X26382089Y34293997D01*
X26460506Y34173559D01*
X26552040Y34078980D01*
X26657590Y34014611D01*
X26366673Y33870676D01*
X26261683Y33978029D01*
X26170833Y34106020D01*
X26093131Y34251572D01*
X26027488Y34411482D01*
X25928807Y34761919D01*
D02*
G37*
%LPD*%
G36*
X26004861Y35412037D02*
X26151718Y35132278D01*
X26412860Y35132247D01*
X26412860Y36507573D01*
X26122378Y36507573D01*
X26004861Y36227877D01*
X26133132Y36227877D01*
X26133132Y35412037D01*
X26004861Y35412037D01*
D02*
G37*
%LPD*%
G36*
X38790558Y40132439D02*
X36817048Y40132439D01*
X36817048Y32027985D01*
X38790558Y32027985D01*
X38790558Y40132439D01*
D02*
G37*
%LPD*%
G36*
X28093494Y37900026D02*
X26948880Y37998491D01*
X26948880Y34003640D01*
X26657590Y34014611D01*
X26657590Y38320737D01*
X26657590Y38617217D01*
X26937318Y38617217D01*
X26937318Y38280239D01*
X27768420Y38208752D01*
X24910691Y40922172D01*
X25229457Y40922172D01*
X28124078Y38178138D01*
X31738872Y37867205D01*
X34674116Y40751601D01*
X34835333Y40587463D01*
X32038243Y37841439D01*
X33324711Y37730760D01*
X33368876Y37717706D01*
X33407634Y37689516D01*
X33436602Y37650914D01*
X33451489Y37606623D01*
X33873443Y37606623D01*
X33873443Y37088288D01*
X33452546Y37088288D01*
X33452546Y35118075D01*
X33544266Y35061321D01*
X33627345Y34993161D01*
X33700571Y34914682D01*
X33762950Y34826971D01*
X33813239Y34731149D01*
X33850598Y34628209D01*
X33873785Y34519333D01*
X33881804Y34405546D01*
X33865424Y34243180D01*
X33818461Y34091940D01*
X33744178Y33955091D01*
X33645869Y33835866D01*
X33526580Y33737495D01*
X33389732Y33663180D01*
X33238461Y33616248D01*
X33076095Y33599900D01*
X32941826Y33611026D01*
X34806179Y31843583D01*
X34647760Y31676647D01*
X31997434Y34193140D01*
X28347332Y33852928D01*
X28095794Y33829556D01*
X27936598Y33814699D01*
X27623490Y33507341D01*
X27371952Y33260372D01*
X25192097Y31120363D01*
X24873145Y31120363D01*
X27371952Y33575905D01*
X27371952Y33762048D01*
X26940674Y33721861D01*
X26962276Y33652084D01*
X26969829Y33577211D01*
X26962276Y33502026D01*
X26940488Y33432032D01*
X26906144Y33368658D01*
X26860579Y33313458D01*
X26805349Y33267925D01*
X26742005Y33233550D01*
X26671950Y33211793D01*
X26596796Y33204240D01*
X26521674Y33211793D01*
X26451711Y33233550D01*
X26388275Y33267925D01*
X26333106Y33313458D01*
X26287573Y33368658D01*
X26253197Y33432032D01*
X26231441Y33502026D01*
X26223857Y33577211D01*
X26233927Y33663708D01*
X26262646Y33742996D01*
X26307651Y33812772D01*
X26366673Y33870676D01*
X26657590Y34014611D01*
X26948880Y34003640D01*
X27372046Y34043050D01*
X27372046Y34165011D01*
X27971409Y34165011D01*
X28659228Y34840865D01*
X28335707Y34840865D01*
X28335707Y36554226D01*
X28895163Y36554226D01*
X28895163Y35072790D01*
X29964468Y36123571D01*
X30129133Y35967204D01*
X28293313Y34165011D01*
X28347332Y34165011D01*
X28347332Y34133931D01*
X31728025Y34448997D01*
X30129133Y35967204D01*
X30289914Y36125000D01*
X32028359Y34476970D01*
X32275950Y34500063D01*
X32306781Y34645584D01*
X32362633Y34780102D01*
X32440771Y34901068D01*
X32538676Y35005842D01*
X32653737Y35091811D01*
X32783406Y35156459D01*
X32925073Y35197113D01*
X33076095Y35211255D01*
X33172818Y35205536D01*
X33172818Y37463123D01*
X31775330Y37583312D01*
X30289914Y36125000D01*
X30125000Y36281304D01*
X31476146Y37609047D01*
X28449805Y37869381D01*
X30125000Y36281304D01*
X29964468Y36123571D01*
X28093494Y37900026D01*
D02*
G37*
%LPD*%
G36*
X27371952Y33215833D02*
X28347332Y33215833D01*
X28347332Y33852928D01*
X28095794Y33829556D01*
X28095794Y33460657D01*
X27623490Y33460657D01*
X27623490Y33507341D01*
X27371952Y33260372D01*
X27371952Y33215833D01*
D02*
G37*
%LPD*%
G36*
X30289914Y36125000D02*
X30125000Y36281304D01*
X29964468Y36123571D01*
X30129133Y35967204D01*
X30289914Y36125000D01*
D02*
G37*
%LPD*%
G36*
X37728720Y17876751D02*
X35279662Y22127749D01*
X33390528Y20379847D01*
X37728720Y17876751D01*
D02*
G37*
%LPD*%
G36*
X31413314Y21837810D02*
X31344661Y21725737D01*
X31262138Y21617592D01*
X27258029Y23926776D01*
X32330864Y26888532D01*
X32410934Y26931853D01*
X32442907Y26947192D01*
X32443151Y26947208D01*
X32476703Y26922472D01*
X32533574Y26851391D01*
X32608384Y26741364D01*
X32695750Y26599781D01*
X32751640Y26504833D01*
X32829359Y26368206D01*
X32878338Y26273041D01*
X32901332Y26212961D01*
X32901100Y26181589D01*
X32880393Y26172549D01*
X32877016Y26171859D01*
X32835834Y26146020D01*
X32765801Y26090321D01*
X32679980Y26015026D01*
X32643118Y25980286D01*
X32543884Y25872560D01*
X32459066Y25753432D01*
X32386178Y25615822D01*
X32322733Y25452652D01*
X32266240Y25256841D01*
X32214215Y25021309D01*
X32164171Y24738977D01*
X32113622Y24402764D01*
X32056642Y24015791D01*
X31995455Y23641697D01*
X31934119Y23314589D01*
X31870867Y23027156D01*
X31803927Y22772082D01*
X31731530Y22542054D01*
X31651910Y22329761D01*
X31563294Y22127887D01*
X31490215Y21979524D01*
X31413314Y21837810D01*
D02*
G37*
%LPD*%
G36*
X38805249Y18464214D02*
X36152282Y23068429D01*
X36107806Y23148856D01*
X36091236Y23181099D01*
X36095344Y23202138D01*
X36132700Y23265523D01*
X36201907Y23355890D01*
X36295770Y23463312D01*
X36389730Y23560067D01*
X36517725Y23683302D01*
X36667156Y23821186D01*
X36829796Y23966654D01*
X36997415Y24112636D01*
X37161787Y24252064D01*
X37314685Y24377872D01*
X37447882Y24482989D01*
X37553149Y24560350D01*
X37622259Y24602882D01*
X37672732Y24631277D01*
X37777183Y24708391D01*
X37888304Y24807530D01*
X37991847Y24914557D01*
X38073554Y25015337D01*
X38119180Y25095734D01*
X38129725Y25184528D01*
X38100577Y25303014D01*
X38033745Y25415627D01*
X37937841Y25503020D01*
X37912959Y25518153D01*
X37872208Y25537421D01*
X37823168Y25549978D01*
X37755298Y25556632D01*
X37658067Y25558187D01*
X37520933Y25555448D01*
X37333362Y25549221D01*
X37224862Y25544758D01*
X37053271Y25535277D01*
X36903095Y25524087D01*
X36787533Y25512232D01*
X36719786Y25500754D01*
X36642394Y25472964D01*
X36489990Y25390577D01*
X36309408Y25262561D01*
X36098532Y25087346D01*
X35855237Y24863374D01*
X35752731Y24766178D01*
X35631809Y24653802D01*
X35529289Y24561049D01*
X35453629Y24495554D01*
X35413296Y24464945D01*
X35406892Y24461798D01*
X35379321Y24458025D01*
X35348753Y24476877D01*
X35308596Y24526077D01*
X35252268Y24613347D01*
X35173179Y24746410D01*
X35107152Y24859526D01*
X34986371Y25067686D01*
X34892554Y25231579D01*
X34822653Y25356711D01*
X34773622Y25448585D01*
X34742420Y25512709D01*
X34725995Y25554587D01*
X34707771Y25597921D01*
X34683297Y25623248D01*
X34677526Y25625618D01*
X34645421Y25662675D01*
X34604070Y25730404D01*
X34546362Y25837561D01*
X34620019Y25916681D01*
X34649858Y25944627D01*
X34730952Y26009645D01*
X34839228Y26089033D01*
X34959589Y26171465D01*
X35225506Y26347131D01*
X35914884Y26340237D01*
X36604262Y26333344D01*
X36701791Y26232962D01*
X36736560Y26199231D01*
X36892773Y26091062D01*
X37078529Y26027920D01*
X37302845Y26006407D01*
X37423036Y26011749D01*
X37635045Y26049458D01*
X37828545Y26118184D01*
X37983808Y26211976D01*
X38040420Y26277100D01*
X38083419Y26392869D01*
X38088379Y26523922D01*
X38057590Y26653483D01*
X37993340Y26764780D01*
X37897921Y26841037D01*
X37892749Y26843533D01*
X37798284Y26889626D01*
X37699563Y26938444D01*
X37606886Y26979886D01*
X37450682Y27039336D01*
X37258102Y27104926D01*
X37037727Y27174375D01*
X36798144Y27245407D01*
X36547929Y27315741D01*
X36295665Y27383098D01*
X36049933Y27445198D01*
X35819315Y27499763D01*
X35612395Y27544514D01*
X35437754Y27577171D01*
X35303972Y27595454D01*
X35219631Y27597088D01*
X35200469Y27593409D01*
X35103475Y27557570D01*
X34973711Y27491068D01*
X34822913Y27399738D01*
X34768570Y27364683D01*
X34546977Y27223837D01*
X34353192Y27104114D01*
X34191740Y27008151D01*
X34067160Y26938591D01*
X33983981Y26898077D01*
X33946735Y26889244D01*
X33945420Y26890266D01*
X33918594Y26926830D01*
X33869559Y27004969D01*
X33804847Y27113978D01*
X33730982Y27243151D01*
X33724850Y27254071D01*
X33647682Y27394323D01*
X33598471Y27492002D01*
X33573687Y27556088D01*
X33573687Y27556088D01*
X33569808Y27595567D01*
X33583307Y27619418D01*
X33600222Y27630757D01*
X38828679Y30655718D01*
X38805249Y18464214D01*
D02*
G37*
G01*
%LPD*%
D10*
X37761904Y648809D02*
X37761904Y1648809D01*
D10*
X37714284Y648809D02*
X37714284Y1648809D01*
D10*
X37571428Y1648809D02*
X37904760Y1648809D01*
D10*
X37190476Y648809D02*
X37904760Y648809D01*
D10*
X37190476Y934523D02*
X37190476Y648809D01*
D10*
X37238096Y648809D02*
X37190476Y934523D01*
D10*
X36904760Y648809D02*
X36904760Y1648809D01*
D10*
X36857144Y648809D02*
X36857144Y1648809D01*
D10*
X36714284Y1648809D02*
X37047620Y1648809D01*
D10*
X36714284Y648809D02*
X37047620Y648809D01*
D10*
X35761904Y1363095D02*
X35809524Y1505952D01*
D10*
X35761904Y1648809D02*
X35761904Y1363095D01*
D10*
X35809524Y1505952D02*
X35761904Y1648809D01*
D10*
X35904760Y1601190D02*
X35809524Y1505952D01*
D10*
X36047620Y1648809D02*
X35904760Y1601190D01*
D10*
X36142856Y1648809D02*
X36047620Y1648809D01*
D10*
X36285716Y1601190D02*
X36142856Y1648809D01*
D10*
X36380952Y1505952D02*
X36285716Y1601190D01*
D10*
X36428572Y1410714D02*
X36380952Y1505952D01*
D10*
X36476192Y1267857D02*
X36428572Y1410714D01*
D10*
X36476192Y1029761D02*
X36476192Y1267857D01*
D10*
X36428572Y886904D02*
X36476192Y1029761D01*
D10*
X36380952Y791666D02*
X36428572Y886904D01*
D10*
X36285716Y696428D02*
X36380952Y791666D01*
D10*
X36142856Y648809D02*
X36285716Y696428D01*
D10*
X36047620Y648809D02*
X36142856Y648809D01*
D10*
X35904760Y696428D02*
X36047620Y648809D01*
D10*
X35809524Y791666D02*
X35904760Y696428D01*
D10*
X35761904Y886904D02*
X35809524Y791666D01*
D10*
X36238096Y1601190D02*
X36142856Y1648809D01*
D10*
X36333332Y1505952D02*
X36238096Y1601190D01*
D10*
X36380952Y1410714D02*
X36333332Y1505952D01*
D10*
X36428572Y1267857D02*
X36380952Y1410714D01*
D10*
X36428572Y1029761D02*
X36428572Y1267857D01*
D10*
X36380952Y886904D02*
X36428572Y1029761D01*
D10*
X36333332Y791666D02*
X36380952Y886904D01*
D10*
X36238096Y696428D02*
X36333332Y791666D01*
D10*
X36142856Y648809D02*
X36238096Y696428D01*
D10*
X35380952Y648809D02*
X35380952Y1648809D01*
D10*
X35333332Y648809D02*
X35333332Y1648809D01*
D10*
X35047620Y982142D02*
X35047620Y1363095D01*
D10*
X34761904Y1648809D02*
X35523808Y1648809D01*
D10*
X34761904Y1363095D02*
X34761904Y1648809D01*
D10*
X34809524Y1648809D02*
X34761904Y1363095D01*
D10*
X35047620Y1172619D02*
X35333332Y1172619D01*
D10*
X34761904Y648809D02*
X35523808Y648809D01*
D10*
X34761904Y934523D02*
X34761904Y648809D01*
D10*
X34809524Y648809D02*
X34761904Y934523D01*
D10*
X34380952Y648809D02*
X34380952Y1648809D01*
D10*
X33761904Y744047D02*
X34333332Y1648809D01*
D10*
X33761904Y648809D02*
X34333332Y1553571D01*
D10*
X33761904Y648809D02*
X33761904Y1648809D01*
D10*
X34333332Y1648809D02*
X34523808Y1648809D01*
D10*
X33619048Y1648809D02*
X33904760Y1648809D01*
D10*
X34238096Y648809D02*
X34523808Y648809D01*
D10*
X32714286Y1648809D02*
X32761904Y1505952D01*
D10*
X32714286Y1363095D02*
X32714286Y1648809D01*
D10*
X32761904Y1505952D02*
X32714286Y1363095D01*
D10*
X32857144Y1601190D02*
X32761904Y1505952D01*
D10*
X33000000Y1648809D02*
X32857144Y1601190D01*
D10*
X33142856Y1648809D02*
X33000000Y1648809D01*
D10*
X33285714Y1601190D02*
X33142856Y1648809D01*
D10*
X33380952Y1505952D02*
X33285714Y1601190D01*
D10*
X33380952Y1410714D02*
X33380952Y1505952D01*
D10*
X33333334Y1315476D02*
X33380952Y1410714D01*
D10*
X33285714Y1267857D02*
X33333334Y1315476D01*
D10*
X33190476Y1220238D02*
X33285714Y1267857D01*
D10*
X32904762Y1125000D02*
X33190476Y1220238D01*
D10*
X32809524Y1077381D02*
X32904762Y1125000D01*
D10*
X32714286Y982142D02*
X32809524Y1077381D01*
D10*
X33285714Y1315476D02*
X33380952Y1410714D01*
D10*
X33190476Y1267857D02*
X33285714Y1315476D01*
D10*
X32904762Y1172619D02*
X33190476Y1267857D01*
D10*
X32809524Y1125000D02*
X32904762Y1172619D01*
D10*
X32761904Y1077381D02*
X32809524Y1125000D01*
D10*
X32714286Y982142D02*
X32761904Y1077381D01*
D10*
X32714286Y791666D02*
X32714286Y982142D01*
D10*
X32809524Y696428D02*
X32714286Y791666D01*
D10*
X32952380Y648809D02*
X32809524Y696428D01*
D10*
X33095238Y648809D02*
X32952380Y648809D01*
D10*
X33238096Y696428D02*
X33095238Y648809D01*
D10*
X33333334Y791666D02*
X33238096Y696428D01*
D10*
X33380952Y934523D02*
X33333334Y791666D01*
D10*
X33380952Y648809D02*
X33380952Y934523D01*
D10*
X33333334Y791666D02*
X33380952Y648809D01*
D10*
X32333334Y648809D02*
X32333334Y1648809D01*
D10*
X32285714Y648809D02*
X32285714Y1648809D01*
D10*
X32000000Y982142D02*
X32000000Y1363095D01*
D10*
X31714286Y1648809D02*
X32476190Y1648809D01*
D10*
X31714286Y1363095D02*
X31714286Y1648809D01*
D10*
X31761904Y1648809D02*
X31714286Y1363095D01*
D10*
X32000000Y1172619D02*
X32285714Y1172619D01*
D10*
X31714286Y648809D02*
X32476190Y648809D01*
D10*
X31714286Y934523D02*
X31714286Y648809D01*
D10*
X31761904Y648809D02*
X31714286Y934523D01*
D10*
X31333334Y648809D02*
X31333334Y1648809D01*
D10*
X31285714Y648809D02*
X31285714Y1648809D01*
D10*
X31000000Y1648809D02*
X31476190Y1648809D01*
D10*
X30857144Y1601190D02*
X31000000Y1648809D01*
D10*
X30761904Y1505952D02*
X30857144Y1601190D01*
D10*
X30714286Y1410714D02*
X30761904Y1505952D01*
D10*
X30666668Y1267857D02*
X30714286Y1410714D01*
D10*
X30666668Y1029761D02*
X30666668Y1267857D01*
D10*
X30714286Y886904D02*
X30666668Y1029761D01*
D10*
X30761904Y791666D02*
X30714286Y886904D01*
D10*
X30857144Y696428D02*
X30761904Y791666D01*
D10*
X31000000Y648809D02*
X30857144Y696428D01*
D10*
X31476190Y648809D02*
X31000000Y648809D01*
D10*
X30904762Y1601190D02*
X31000000Y1648809D01*
D10*
X30809524Y1505952D02*
X30904762Y1601190D01*
D10*
X30761904Y1410714D02*
X30809524Y1505952D01*
D10*
X30714286Y1267857D02*
X30761904Y1410714D01*
D10*
X30714286Y1029761D02*
X30714286Y1267857D01*
D10*
X30761904Y886904D02*
X30714286Y1029761D01*
D10*
X30809524Y791666D02*
X30761904Y886904D01*
D10*
X30904762Y696428D02*
X30809524Y791666D01*
D10*
X31000000Y648809D02*
X30904762Y696428D01*
D10*
X29714286Y648809D02*
X30476190Y648809D01*
D10*
X29714286Y696428D02*
X29714286Y648809D01*
D10*
X30476190Y696428D02*
X29714286Y696428D01*
D10*
X30476190Y648809D02*
X30476190Y696428D01*
D10*
X29428572Y648809D02*
X29428572Y1648809D01*
D10*
X29380952Y648809D02*
X29380952Y1648809D01*
D10*
X29238096Y1648809D02*
X29571428Y1648809D01*
D10*
X29238096Y648809D02*
X29571428Y648809D01*
D10*
X28904762Y648809D02*
X28904762Y1648809D01*
D10*
X28285714Y744047D02*
X28857144Y1648809D01*
D10*
X28285714Y648809D02*
X28857144Y1553571D01*
D10*
X28285714Y648809D02*
X28285714Y1648809D01*
D10*
X28857144Y1648809D02*
X29047620Y1648809D01*
D10*
X28142856Y1648809D02*
X28428572Y1648809D01*
D10*
X28761904Y648809D02*
X29047620Y648809D01*
D10*
X27238096Y648809D02*
X28000000Y648809D01*
D10*
X27238096Y696428D02*
X27238096Y648809D01*
D10*
X28000000Y696428D02*
X27238096Y696428D01*
D10*
X28000000Y648809D02*
X28000000Y696428D01*
D10*
X26333334Y1363095D02*
X26380952Y1505952D01*
D10*
X26333334Y1648809D02*
X26333334Y1363095D01*
D10*
X26380952Y1505952D02*
X26333334Y1648809D01*
D10*
X26476192Y1601190D02*
X26380952Y1505952D01*
D10*
X26619048Y1648809D02*
X26476192Y1601190D01*
D10*
X26714286Y1648809D02*
X26619048Y1648809D01*
D10*
X26857144Y1601190D02*
X26714286Y1648809D01*
D10*
X26952380Y1505952D02*
X26857144Y1601190D01*
D10*
X27000000Y1410714D02*
X26952380Y1505952D01*
D10*
X27047620Y1267857D02*
X27000000Y1410714D01*
D10*
X27047620Y1029761D02*
X27047620Y1267857D01*
D10*
X27000000Y886904D02*
X27047620Y1029761D01*
D10*
X26952380Y791666D02*
X27000000Y886904D01*
D10*
X26857144Y696428D02*
X26952380Y791666D01*
D10*
X26714286Y648809D02*
X26857144Y696428D01*
D10*
X26619048Y648809D02*
X26714286Y648809D01*
D10*
X26476192Y696428D02*
X26619048Y648809D01*
D10*
X26380952Y791666D02*
X26476192Y696428D01*
D10*
X26809524Y1601190D02*
X26714286Y1648809D01*
D10*
X26904762Y1505952D02*
X26809524Y1601190D01*
D10*
X26952380Y1410714D02*
X26904762Y1505952D01*
D10*
X27000000Y1267857D02*
X26952380Y1410714D01*
D10*
X27000000Y1029761D02*
X27000000Y1267857D01*
D10*
X26952380Y886904D02*
X27000000Y1029761D01*
D10*
X26904762Y791666D02*
X26952380Y886904D01*
D10*
X26809524Y696428D02*
X26904762Y791666D01*
D10*
X26714286Y648809D02*
X26809524Y696428D01*
D10*
X26380952Y648809D02*
X26380952Y1029761D01*
D10*
X26333334Y648809D02*
X26333334Y1029761D01*
D10*
X26190476Y1029761D02*
X26523810Y1029761D01*
D10*
X25857144Y648809D02*
X25857144Y1648809D01*
D10*
X25809524Y648809D02*
X25809524Y1648809D01*
D10*
X25428572Y1648809D02*
X26000000Y1648809D01*
D10*
X25285714Y1601190D02*
X25428572Y1648809D01*
D10*
X25238096Y1553571D02*
X25285714Y1601190D01*
D10*
X25190476Y1458333D02*
X25238096Y1553571D01*
D10*
X25190476Y1315476D02*
X25190476Y1458333D01*
D10*
X25238096Y1220238D02*
X25190476Y1315476D01*
D10*
X25285714Y1172619D02*
X25238096Y1220238D01*
D10*
X25428572Y1125000D02*
X25285714Y1172619D01*
D10*
X25809524Y1125000D02*
X25428572Y1125000D01*
D10*
X25333334Y1601190D02*
X25428572Y1648809D01*
D10*
X25285714Y1553571D02*
X25333334Y1601190D01*
D10*
X25238096Y1458333D02*
X25285714Y1553571D01*
D10*
X25238096Y1315476D02*
X25238096Y1458333D01*
D10*
X25285714Y1220238D02*
X25238096Y1315476D01*
D10*
X25333334Y1172619D02*
X25285714Y1220238D01*
D10*
X25428572Y1125000D02*
X25333334Y1172619D01*
D10*
X25666668Y648809D02*
X26000000Y648809D01*
D10*
X24809524Y648809D02*
X24809524Y1648809D01*
D10*
X24761904Y648809D02*
X24761904Y1648809D01*
D10*
X24619048Y1648809D02*
X24952380Y1648809D01*
D10*
X24238096Y648809D02*
X24952380Y648809D01*
D10*
X24238096Y934523D02*
X24238096Y648809D01*
D10*
X24285714Y648809D02*
X24238096Y934523D01*
D10*
X23142856Y1077381D02*
X24000000Y1077381D01*
D10*
X22714286Y1410714D02*
X22761904Y1458333D01*
D10*
X22761904Y1363095D02*
X22714286Y1410714D01*
D10*
X22809524Y1410714D02*
X22761904Y1363095D01*
D10*
X22809524Y1458333D02*
X22809524Y1410714D01*
D10*
X22761904Y1553571D02*
X22809524Y1458333D01*
D10*
X22714286Y1601190D02*
X22761904Y1553571D01*
D10*
X22571428Y1648809D02*
X22714286Y1601190D01*
D10*
X22380952Y1648809D02*
X22571428Y1648809D01*
D10*
X22238096Y1601190D02*
X22380952Y1648809D01*
D10*
X22190476Y1505952D02*
X22238096Y1601190D01*
D10*
X22190476Y1363095D02*
X22190476Y1505952D01*
D10*
X22238096Y1267857D02*
X22190476Y1363095D01*
D10*
X22380952Y1220238D02*
X22238096Y1267857D01*
D10*
X22523810Y1220238D02*
X22380952Y1220238D01*
D10*
X22285716Y1601190D02*
X22380952Y1648809D01*
D10*
X22238096Y1505952D02*
X22285716Y1601190D01*
D10*
X22238096Y1363095D02*
X22238096Y1505952D01*
D10*
X22285716Y1267857D02*
X22238096Y1363095D01*
D10*
X22380952Y1220238D02*
X22285716Y1267857D01*
D10*
X22285716Y1172619D02*
X22380952Y1220238D01*
D10*
X22190476Y1077381D02*
X22285716Y1172619D01*
D10*
X22142856Y982142D02*
X22190476Y1077381D01*
D10*
X22142856Y839285D02*
X22142856Y982142D01*
D10*
X22190476Y744047D02*
X22142856Y839285D01*
D10*
X22238096Y696428D02*
X22190476Y744047D01*
D10*
X22380952Y648809D02*
X22238096Y696428D01*
D10*
X22571428Y648809D02*
X22380952Y648809D01*
D10*
X22714286Y696428D02*
X22571428Y648809D01*
D10*
X22761904Y744047D02*
X22714286Y696428D01*
D10*
X22809524Y839285D02*
X22761904Y744047D01*
D10*
X22809524Y886904D02*
X22809524Y839285D01*
D10*
X22761904Y934523D02*
X22809524Y886904D01*
D10*
X22714286Y886904D02*
X22761904Y934523D01*
D10*
X22761904Y839285D02*
X22714286Y886904D01*
D10*
X22190476Y982142D02*
X22238096Y1125000D01*
D10*
X22190476Y839285D02*
X22190476Y982142D01*
D10*
X22238096Y744047D02*
X22190476Y839285D01*
D10*
X22285716Y696428D02*
X22238096Y744047D01*
D10*
X22380952Y648809D02*
X22285716Y696428D01*
D10*
X21809524Y696428D02*
X21761904Y744047D01*
D10*
X21761904Y648809D02*
X21809524Y696428D01*
D10*
X21714286Y696428D02*
X21761904Y648809D01*
D10*
X21761904Y744047D02*
X21714286Y696428D01*
D10*
X21238096Y1601190D02*
X21095238Y1648809D01*
D10*
X21333334Y1458333D02*
X21238096Y1601190D01*
D10*
X21380952Y1220238D02*
X21333334Y1458333D01*
D10*
X21380952Y1077381D02*
X21380952Y1220238D01*
D10*
X21333334Y839285D02*
X21380952Y1077381D01*
D10*
X21238096Y696428D02*
X21333334Y839285D01*
D10*
X21095238Y648809D02*
X21238096Y696428D01*
D10*
X21000000Y648809D02*
X21095238Y648809D01*
D10*
X20857144Y696428D02*
X21000000Y648809D01*
D10*
X20761906Y839285D02*
X20857144Y696428D01*
D10*
X20714286Y1077381D02*
X20761906Y839285D01*
D10*
X20714286Y1220238D02*
X20714286Y1077381D01*
D10*
X20761906Y1458333D02*
X20714286Y1220238D01*
D10*
X20857144Y1601190D02*
X20761906Y1458333D01*
D10*
X21000000Y1648809D02*
X20857144Y1601190D01*
D10*
X21095238Y1648809D02*
X21000000Y1648809D01*
D10*
X21190476Y1601190D02*
X21095238Y1648809D01*
D10*
X21238096Y1553571D02*
X21190476Y1601190D01*
D10*
X21285716Y1458333D02*
X21238096Y1553571D01*
D10*
X21333334Y1220238D02*
X21285716Y1458333D01*
D10*
X21333334Y1077381D02*
X21333334Y1220238D01*
D10*
X21285716Y839285D02*
X21333334Y1077381D01*
D10*
X21238096Y744047D02*
X21285716Y839285D01*
D10*
X21190476Y696428D02*
X21238096Y744047D01*
D10*
X21095238Y648809D02*
X21190476Y696428D01*
D10*
X20904762Y696428D02*
X21000000Y648809D01*
D10*
X20857144Y744047D02*
X20904762Y696428D01*
D10*
X20809524Y839285D02*
X20857144Y744047D01*
D10*
X20761906Y1077381D02*
X20809524Y839285D01*
D10*
X20761906Y1220238D02*
X20761906Y1077381D01*
D10*
X20809524Y1458333D02*
X20761906Y1220238D01*
D10*
X20857144Y1553571D02*
X20809524Y1458333D01*
D10*
X20904762Y1601190D02*
X20857144Y1553571D01*
D10*
X21000000Y1648809D02*
X20904762Y1601190D01*
G75*
M02*
