M48
FMAT,2
METRIC,TZ
T5C0.300
T4C0.400
T3C0.650
T6C0.800
T2C0.920
T1C2.300
%
G90
G05
M71
T5
X14.125Y34.750
X14.000Y17.500
X12.000Y44.000
X20.000Y44.000
X23.125Y25.875
X15.375Y38.625
X11.750Y17.500
X5.500Y30.000
X26.000Y2.000
X8.500Y17.000
X2.000Y36.000
X5.500Y29.000
X21.375Y32.000
X32.500Y37.500
X10.000Y30.000
X2.000Y8.000
X14.000Y36.000
X19.000Y18.000
X15.500Y24.500
X29.000Y25.500
X34.000Y8.000
X27.750Y20.000
X24.500Y24.250
X31.500Y12.000
X17.875Y33.250
X30.000Y2.000
X34.000Y22.000
X14.900Y35.625
X7.500Y24.000
X10.000Y32.000
X34.000Y38.000
X14.375Y19.625
X14.500Y28.750
X20.750Y28.875
X2.000Y40.000
X20.500Y32.125
X14.000Y30.000
X30.875Y19.375
X25.250Y27.875
X12.000Y12.000
X15.000Y34.000
X38.000Y42.000
X19.750Y34.875
X12.000Y42.000
X13.500Y21.250
X22.875Y29.000
X10.250Y22.000
X21.125Y34.875
X6.000Y40.000
X24.125Y19.625
X32.625Y17.875
X18.125Y26.000
X15.600Y35.625
X7.500Y30.000
X15.500Y33.125
X24.625Y29.000
X10.000Y27.000
X18.000Y4.000
X14.000Y32.000
X8.500Y12.500
X6.000Y44.000
X10.000Y4.000
X30.000Y8.000
X31.750Y18.875
X14.750Y23.000
X22.375Y31.000
X14.000Y27.750
X32.000Y25.500
X8.500Y15.000
X25.375Y22.875
X16.250Y36.125
X18.375Y34.875
X19.500Y33.250
X25.250Y21.250
X30.375Y17.250
X23.125Y33.125
X27.500Y16.875
X38.000Y8.000
X18.000Y24.500
X20.375Y33.250
X19.375Y26.000
X13.375Y38.500
X29.500Y37.500
X38.000Y26.000
X16.250Y35.125
X5.500Y24.000
X13.000Y27.000
X32.500Y33.000
X29.500Y33.000
X14.750Y21.250
X9.500Y18.000
X11.500Y27.000
X14.750Y22.250
X23.250Y24.250
X20.500Y26.000
X28.250Y12.000
X34.000Y30.000
X20.000Y21.000
X26.000Y42.000
X16.500Y24.500
X21.875Y24.250
X20.000Y19.000
X22.000Y42.000
X16.000Y44.000
X29.750Y18.250
X15.375Y39.500
X29.500Y36.000
X21.000Y18.000
X13.900Y39.125
X2.000Y32.000
X10.000Y12.000
X2.000Y4.000
X12.375Y18.875
X38.000Y34.000
X6.000Y4.000
X20.000Y20.000
X14.000Y4.000
X14.750Y26.000
X10.000Y19.500
X38.000Y38.000
X17.250Y20.125
X10.000Y24.000
X16.250Y32.500
X18.000Y32.125
X20.625Y24.250
X38.000Y2.000
X28.500Y14.750
X19.000Y24.500
X38.000Y30.000
X33.000Y25.500
X16.000Y42.000
X6.000Y8.000
X22.500Y20.125
X12.000Y32.000
X38.000Y18.000
X22.125Y34.000
X33.000Y28.500
X32.000Y28.500
X16.250Y19.625
X19.250Y32.125
X25.375Y29.750
X14.600Y39.125
X24.500Y25.875
X12.000Y34.000
X10.000Y25.500
X34.000Y2.000
X38.000Y22.000
X11.500Y21.000
X7.500Y29.000
X22.500Y21.000
X4.000Y36.000
T4
X6.875Y33.750
X6.875Y35.375
X22.375Y36.250
X6.875Y32.875
X22.375Y37.125
X6.875Y36.875
X22.375Y39.000
X25.500Y32.750
X26.250Y32.000
X6.875Y36.125
X6.875Y34.625
X22.375Y38.000
X21.875Y29.750
X11.625Y35.375
T3
X10.430Y42.675G85X10.430Y42.075
X19.070Y38.745G85X19.070Y37.645
X19.070Y42.675G85X19.070Y42.075
X10.430Y38.745G85X10.430Y37.645
T6
X27.375Y23.750
X27.375Y21.875
T2
X26.000Y13.380
X33.000Y16.000
X26.000Y16.000
X33.000Y13.380
X30.500Y13.380
X28.500Y13.380
X28.500Y16.000
X30.500Y16.000
X7.000Y13.380
X14.000Y16.000
X7.000Y16.000
X14.000Y13.380
X11.500Y13.380
X9.500Y13.380
X9.500Y16.000
X11.500Y16.000
T1
X22.930Y16.350
X36.070Y16.350
X22.930Y10.670
X36.070Y10.670
X3.930Y16.350
X17.070Y16.350
X3.930Y10.670
X17.070Y10.670
M30
