%FSLAX46Y46*%
%MOMM*%
%ADD10C,0.200000*%
%AMPS11*
1,1,3.516000,0.000000,0.000000*
%
%ADD11PS11*%
%AMPS12*
1,1,1.628000,0.000000,0.000000*
%
%ADD12PS12*%
%AMPS16*
1,1,0.600000,0.000000,0.000000*
%
%ADD16PS16*%
%AMPS14*
21,1,1.050000,1.250000,0.000000,0.000000,270.000000*
1,1,1.250000,0.000000,-0.525000*
1,1,1.250000,0.000000,0.525000*
%
%ADD14PS14*%
%AMPS13*
21,1,1.050000,1.250000,0.000000,0.000000,270.000000*
1,1,1.250000,0.000000,-0.525000*
1,1,1.250000,0.000000,0.525000*
%
%ADD13PS13*%
%AMPS15*
1,1,0.900000,0.000000,0.000000*
%
%ADD15PS15*%
G01*
G01*
%LPD*%
D10*
X37761904Y5292262D02*
X37761904Y6542262D01*
D10*
X37702380Y5351786D02*
X37702380Y6482738D01*
D10*
X37345240Y6542262D02*
X37761904Y6542262D01*
D10*
X37166668Y6482738D02*
X37345240Y6542262D01*
D10*
X37047620Y6363690D02*
X37166668Y6482738D01*
D10*
X36988096Y6244643D02*
X37047620Y6363690D01*
D10*
X36928572Y6066071D02*
X36988096Y6244643D01*
D10*
X36928572Y5768452D02*
X36928572Y6066071D01*
D10*
X36988096Y5589881D02*
X36928572Y5768452D01*
D10*
X37047620Y5470833D02*
X36988096Y5589881D01*
D10*
X37166668Y5351786D02*
X37047620Y5470833D01*
D10*
X37345240Y5292262D02*
X37166668Y5351786D01*
D10*
X37761904Y5292262D02*
X37345240Y5292262D01*
D10*
X37345240Y6482738D02*
X37702380Y6482738D01*
D10*
X37166668Y6423214D02*
X37345240Y6482738D01*
D10*
X37107144Y6363690D02*
X37166668Y6423214D01*
D10*
X37047620Y6244643D02*
X37107144Y6363690D01*
D10*
X36988096Y6066071D02*
X37047620Y6244643D01*
D10*
X36988096Y5768452D02*
X36988096Y6066071D01*
D10*
X37047620Y5589881D02*
X36988096Y5768452D01*
D10*
X37107144Y5470833D02*
X37047620Y5589881D01*
D10*
X37166668Y5411309D02*
X37107144Y5470833D01*
D10*
X37345240Y5351786D02*
X37166668Y5411309D01*
D10*
X37702380Y5351786D02*
X37345240Y5351786D01*
D10*
X36511904Y5292262D02*
X36511904Y6542262D01*
D10*
X36452380Y5292262D02*
X36452380Y6482738D01*
D10*
X36511904Y5292262D02*
X36452380Y5292262D01*
D10*
X36035716Y6542262D02*
X36511904Y6542262D01*
D10*
X35857144Y6482738D02*
X36035716Y6542262D01*
D10*
X35797620Y6423214D02*
X35857144Y6482738D01*
D10*
X35738096Y6304166D02*
X35797620Y6423214D01*
D10*
X35738096Y6125595D02*
X35738096Y6304166D01*
D10*
X35797620Y6006547D02*
X35738096Y6125595D01*
D10*
X35857144Y5947024D02*
X35797620Y6006547D01*
D10*
X36035716Y5887500D02*
X35857144Y5947024D01*
D10*
X36452380Y5887500D02*
X36035716Y5887500D01*
D10*
X36035716Y6482738D02*
X36452380Y6482738D01*
D10*
X35857144Y6423214D02*
X36035716Y6482738D01*
D10*
X35797620Y6304166D02*
X35857144Y6423214D01*
D10*
X35797620Y6125595D02*
X35797620Y6304166D01*
D10*
X35857144Y6006547D02*
X35797620Y6125595D01*
D10*
X36035716Y5947024D02*
X35857144Y6006547D01*
D10*
X36452380Y5947024D02*
X36035716Y5947024D01*
D10*
X35797620Y5292262D02*
X36154760Y5887500D01*
D10*
X35738096Y5292262D02*
X35797620Y5292262D01*
D10*
X35738096Y5292262D02*
X36095240Y5887500D01*
D10*
X35440476Y5292262D02*
X34964284Y6542262D01*
D10*
X35380952Y5292262D02*
X34964284Y6363690D01*
D10*
X35440476Y5292262D02*
X35380952Y5292262D01*
D10*
X34547620Y5292262D02*
X34964284Y6363690D01*
D10*
X34488096Y5292262D02*
X34547620Y5292262D01*
D10*
X34488096Y5292262D02*
X34964284Y6542262D01*
D10*
X34666668Y5649405D02*
X35261904Y5649405D01*
D10*
X34607144Y5589881D02*
X35321428Y5589881D01*
D10*
X33892856Y5292262D02*
X34250000Y6542262D01*
D10*
X34190476Y6542262D02*
X34250000Y6542262D01*
D10*
X33892856Y5470833D02*
X34190476Y6542262D01*
D10*
X33892856Y5470833D02*
X33595240Y6542262D01*
D10*
X33892856Y5292262D02*
X33595240Y6363690D01*
D10*
X33297620Y5292262D02*
X33595240Y6363690D01*
D10*
X33297620Y5470833D02*
X33595240Y6542262D01*
D10*
X33000000Y6542262D02*
X32940476Y6542262D01*
D10*
X33297620Y5470833D02*
X33000000Y6542262D01*
D10*
X33297620Y5292262D02*
X32940476Y6542262D01*
D10*
X32583334Y5292262D02*
X32583334Y6542262D01*
D10*
X32523810Y5292262D02*
X32523810Y6363690D01*
D10*
X32583334Y5292262D02*
X32523810Y5292262D01*
D10*
X31750000Y5292262D02*
X32523810Y6363690D01*
D10*
X31809524Y5470833D02*
X32583334Y6542262D01*
D10*
X31809524Y5470833D02*
X31809524Y6542262D01*
D10*
X31750000Y6542262D02*
X31809524Y6542262D01*
D10*
X31750000Y5292262D02*
X31750000Y6542262D01*
D10*
X30500000Y5292262D02*
X31452380Y5292262D01*
D10*
X30500000Y5351786D02*
X30500000Y5292262D01*
D10*
X31452380Y5351786D02*
X30500000Y5351786D01*
D10*
X31452380Y5292262D02*
X31452380Y5351786D01*
D10*
X30202380Y5292262D02*
X30202380Y6542262D01*
D10*
X30142858Y5351786D02*
X30142858Y6482738D01*
D10*
X29726190Y6542262D02*
X30202380Y6542262D01*
D10*
X29547620Y6482738D02*
X29726190Y6542262D01*
D10*
X29488096Y6423214D02*
X29547620Y6482738D01*
D10*
X29428572Y6304166D02*
X29488096Y6423214D01*
D10*
X29428572Y6125595D02*
X29428572Y6304166D01*
D10*
X29488096Y6006547D02*
X29428572Y6125595D01*
D10*
X29547620Y5947024D02*
X29488096Y6006547D01*
D10*
X29726190Y5887500D02*
X29547620Y5947024D01*
D10*
X29726190Y6482738D02*
X30142858Y6482738D01*
D10*
X29547620Y6423214D02*
X29726190Y6482738D01*
D10*
X29488096Y6304166D02*
X29547620Y6423214D01*
D10*
X29488096Y6125595D02*
X29488096Y6304166D01*
D10*
X29547620Y6006547D02*
X29488096Y6125595D01*
D10*
X29726190Y5947024D02*
X29547620Y6006547D01*
D10*
X29726190Y5947024D02*
X30142858Y5947024D01*
D10*
X29547620Y5887500D02*
X29726190Y5947024D01*
D10*
X29488096Y5827976D02*
X29547620Y5887500D01*
D10*
X29428572Y5708928D02*
X29488096Y5827976D01*
D10*
X29428572Y5530357D02*
X29428572Y5708928D01*
D10*
X29488096Y5411309D02*
X29428572Y5530357D01*
D10*
X29547620Y5351786D02*
X29488096Y5411309D01*
D10*
X29726190Y5292262D02*
X29547620Y5351786D01*
D10*
X30202380Y5292262D02*
X29726190Y5292262D01*
D10*
X29726190Y5887500D02*
X30142858Y5887500D01*
D10*
X29547620Y5827976D02*
X29726190Y5887500D01*
D10*
X29488096Y5708928D02*
X29547620Y5827976D01*
D10*
X29488096Y5530357D02*
X29488096Y5708928D01*
D10*
X29547620Y5411309D02*
X29488096Y5530357D01*
D10*
X29726190Y5351786D02*
X29547620Y5411309D01*
D10*
X30142858Y5351786D02*
X29726190Y5351786D01*
D10*
X28714286Y5947024D02*
X29130952Y6542262D01*
D10*
X28714286Y5292262D02*
X28714286Y5947024D01*
D10*
X28654762Y5292262D02*
X28714286Y5292262D01*
D10*
X29071428Y6542262D02*
X29130952Y6542262D01*
D10*
X28654762Y5947024D02*
X29071428Y6542262D01*
D10*
X28297620Y6542262D02*
X28238096Y6542262D01*
D10*
X28714286Y5947024D02*
X28297620Y6542262D01*
D10*
X28654762Y5947024D02*
X28238096Y6542262D01*
D10*
X28654762Y5292262D02*
X28654762Y5947024D01*
D10*
X27880952Y6066071D02*
X27821428Y6125595D01*
D10*
X27880952Y6006547D02*
X27880952Y6066071D01*
D10*
X27821428Y5947024D02*
X27880952Y6006547D01*
D10*
X27761904Y5947024D02*
X27821428Y5947024D01*
D10*
X27702380Y6006547D02*
X27761904Y5947024D01*
D10*
X27702380Y6066071D02*
X27702380Y6006547D01*
D10*
X27761904Y6125595D02*
X27702380Y6066071D01*
D10*
X27821428Y6125595D02*
X27761904Y6125595D01*
D10*
X27821428Y6006547D02*
X27821428Y6066071D01*
D10*
X27761904Y6006547D02*
X27821428Y6006547D01*
D10*
X27761904Y6066071D02*
X27761904Y6006547D01*
D10*
X27821428Y6066071D02*
X27761904Y6066071D01*
D10*
X27880952Y5411309D02*
X27821428Y5470833D01*
D10*
X27880952Y5351786D02*
X27880952Y5411309D01*
D10*
X27821428Y5292262D02*
X27880952Y5351786D01*
D10*
X27761904Y5292262D02*
X27821428Y5292262D01*
D10*
X27702380Y5351786D02*
X27761904Y5292262D01*
D10*
X27702380Y5411309D02*
X27702380Y5351786D01*
D10*
X27761904Y5470833D02*
X27702380Y5411309D01*
D10*
X27821428Y5470833D02*
X27761904Y5470833D01*
D10*
X27821428Y5351786D02*
X27821428Y5411309D01*
D10*
X27761904Y5351786D02*
X27821428Y5351786D01*
D10*
X27761904Y5411309D02*
X27761904Y5351786D01*
D10*
X27821428Y5411309D02*
X27761904Y5411309D01*
D10*
X37761904Y3761904D02*
X37761904Y4654762D01*
D10*
X37702380Y3583333D02*
X37761904Y3761904D01*
D10*
X37583332Y3464285D02*
X37702380Y3583333D01*
D10*
X37404760Y3404762D02*
X37583332Y3464285D01*
D10*
X37285716Y3404762D02*
X37404760Y3404762D01*
D10*
X37107144Y3464285D02*
X37285716Y3404762D01*
D10*
X36988096Y3583333D02*
X37107144Y3464285D01*
D10*
X36928572Y3761904D02*
X36988096Y3583333D01*
D10*
X36928572Y4654762D02*
X36928572Y3761904D01*
D10*
X37702380Y4654762D02*
X37761904Y4654762D01*
D10*
X37702380Y3761904D02*
X37702380Y4654762D01*
D10*
X37642856Y3583333D02*
X37702380Y3761904D01*
D10*
X37583332Y3523809D02*
X37642856Y3583333D01*
D10*
X37404760Y3464285D02*
X37583332Y3523809D01*
D10*
X37285716Y3464285D02*
X37404760Y3464285D01*
D10*
X37107144Y3523809D02*
X37285716Y3464285D01*
D10*
X37047620Y3583333D02*
X37107144Y3523809D01*
D10*
X36988096Y3761904D02*
X37047620Y3583333D01*
D10*
X36988096Y4654762D02*
X36988096Y3761904D01*
D10*
X36928572Y4654762D02*
X36988096Y4654762D01*
D10*
X36452380Y3404762D02*
X36452380Y4654762D01*
D10*
X36392856Y3404762D02*
X36392856Y4476190D01*
D10*
X36452380Y3404762D02*
X36392856Y3404762D01*
D10*
X35619048Y3404762D02*
X36392856Y4476190D01*
D10*
X35678572Y3583333D02*
X36452380Y4654762D01*
D10*
X35678572Y3583333D02*
X35678572Y4654762D01*
D10*
X35619048Y4654762D02*
X35678572Y4654762D01*
D10*
X35619048Y3404762D02*
X35619048Y4654762D01*
D10*
X34369048Y4476190D02*
X34309524Y4357143D01*
D10*
X34488096Y4595238D02*
X34369048Y4476190D01*
D10*
X34607144Y4654762D02*
X34488096Y4595238D01*
D10*
X34845240Y4654762D02*
X34607144Y4654762D01*
D10*
X34964284Y4595238D02*
X34845240Y4654762D01*
D10*
X35083332Y4476190D02*
X34964284Y4595238D01*
D10*
X35142856Y4357143D02*
X35083332Y4476190D01*
D10*
X35202380Y4178571D02*
X35142856Y4357143D01*
D10*
X35202380Y3880952D02*
X35202380Y4178571D01*
D10*
X35142856Y3702381D02*
X35202380Y3880952D01*
D10*
X35083332Y3583333D02*
X35142856Y3702381D01*
D10*
X34964284Y3464285D02*
X35083332Y3583333D01*
D10*
X34845240Y3404762D02*
X34964284Y3464285D01*
D10*
X34607144Y3404762D02*
X34845240Y3404762D01*
D10*
X34488096Y3464285D02*
X34607144Y3404762D01*
D10*
X34369048Y3583333D02*
X34488096Y3464285D01*
D10*
X34309524Y3702381D02*
X34369048Y3583333D01*
D10*
X34369048Y4357143D02*
X34309524Y4357143D01*
D10*
X34428572Y4476190D02*
X34369048Y4357143D01*
D10*
X34488096Y4535714D02*
X34428572Y4476190D01*
D10*
X34607144Y4595238D02*
X34488096Y4535714D01*
D10*
X34845240Y4595238D02*
X34607144Y4595238D01*
D10*
X34964284Y4535714D02*
X34845240Y4595238D01*
D10*
X35083332Y4357143D02*
X34964284Y4535714D01*
D10*
X35142856Y4178571D02*
X35083332Y4357143D01*
D10*
X35142856Y3880952D02*
X35142856Y4178571D01*
D10*
X35083332Y3702381D02*
X35142856Y3880952D01*
D10*
X34964284Y3523809D02*
X35083332Y3702381D01*
D10*
X34845240Y3464285D02*
X34964284Y3523809D01*
D10*
X34607144Y3464285D02*
X34845240Y3464285D01*
D10*
X34488096Y3523809D02*
X34607144Y3464285D01*
D10*
X34428572Y3583333D02*
X34488096Y3523809D01*
D10*
X34369048Y3702381D02*
X34428572Y3583333D01*
D10*
X34309524Y3702381D02*
X34369048Y3702381D01*
D10*
X33892856Y3404762D02*
X33892856Y4654762D01*
D10*
X33833332Y4654762D02*
X33892856Y4654762D01*
D10*
X33833332Y3464285D02*
X33833332Y4654762D01*
D10*
X33178572Y3464285D02*
X33833332Y3464285D01*
D10*
X33178572Y3404762D02*
X33178572Y3464285D01*
D10*
X33178572Y3404762D02*
X33892856Y3404762D01*
D10*
X32880952Y3404762D02*
X32880952Y4654762D01*
D10*
X32821428Y3464285D02*
X32821428Y4595238D01*
D10*
X32166668Y4654762D02*
X32880952Y4654762D01*
D10*
X32166668Y4595238D02*
X32821428Y4595238D01*
D10*
X32166668Y4654762D02*
X32166668Y4595238D01*
D10*
X32464286Y4059523D02*
X32821428Y4059523D01*
D10*
X32464286Y4000000D02*
X32464286Y4059523D01*
D10*
X32464286Y4000000D02*
X32821428Y4000000D01*
D10*
X32166668Y3464285D02*
X32821428Y3464285D01*
D10*
X32166668Y3404762D02*
X32166668Y3464285D01*
D10*
X32166668Y3404762D02*
X32880952Y3404762D01*
D10*
X30976190Y3404762D02*
X31928572Y3404762D01*
D10*
X30976190Y3464285D02*
X30976190Y3404762D01*
D10*
X31928572Y3464285D02*
X30976190Y3464285D01*
D10*
X31928572Y3404762D02*
X31928572Y3464285D01*
D10*
X30678572Y3404762D02*
X30678572Y4654762D01*
D10*
X30619048Y3404762D02*
X30619048Y4357143D01*
D10*
X30678572Y3404762D02*
X30619048Y3404762D01*
D10*
X30202380Y3404762D02*
X30619048Y4357143D01*
D10*
X30202380Y3583333D02*
X30678572Y4654762D01*
D10*
X30202380Y3583333D02*
X29726190Y4654762D01*
D10*
X30202380Y3404762D02*
X29785714Y4357143D01*
D10*
X29785714Y3404762D02*
X29785714Y4357143D01*
D10*
X29726190Y3404762D02*
X29785714Y3404762D01*
D10*
X29726190Y3404762D02*
X29726190Y4654762D01*
D10*
X29250000Y3404762D02*
X29250000Y4654762D01*
D10*
X29190476Y3404762D02*
X29250000Y3404762D01*
D10*
X29190476Y4654762D02*
X29250000Y4654762D01*
D10*
X29190476Y3404762D02*
X29190476Y4654762D01*
D10*
X28714286Y3404762D02*
X28714286Y4654762D01*
D10*
X28654762Y3404762D02*
X28654762Y4476190D01*
D10*
X28714286Y3404762D02*
X28654762Y3404762D01*
D10*
X27880952Y3404762D02*
X28654762Y4476190D01*
D10*
X27940476Y3583333D02*
X28714286Y4654762D01*
D10*
X27940476Y3583333D02*
X27940476Y4654762D01*
D10*
X27880952Y4654762D02*
X27940476Y4654762D01*
D10*
X27880952Y3404762D02*
X27880952Y4654762D01*
D10*
X26630952Y4476190D02*
X26571428Y4357143D01*
D10*
X26750000Y4595238D02*
X26630952Y4476190D01*
D10*
X26869048Y4654762D02*
X26750000Y4595238D01*
D10*
X27107144Y4654762D02*
X26869048Y4654762D01*
D10*
X27226192Y4595238D02*
X27107144Y4654762D01*
D10*
X27345238Y4476190D02*
X27226192Y4595238D01*
D10*
X27404762Y4357143D02*
X27345238Y4476190D01*
D10*
X27464286Y4178571D02*
X27404762Y4357143D01*
D10*
X27464286Y3880952D02*
X27464286Y4178571D01*
D10*
X27404762Y3702381D02*
X27464286Y3880952D01*
D10*
X27345238Y3583333D02*
X27404762Y3702381D01*
D10*
X27226192Y3464285D02*
X27345238Y3583333D01*
D10*
X27107144Y3404762D02*
X27226192Y3464285D01*
D10*
X26869048Y3404762D02*
X27107144Y3404762D01*
D10*
X26750000Y3464285D02*
X26869048Y3404762D01*
D10*
X26630952Y3583333D02*
X26750000Y3464285D01*
D10*
X26571428Y3702381D02*
X26630952Y3583333D01*
D10*
X26571428Y3940476D02*
X26571428Y3702381D01*
D10*
X26869048Y3940476D02*
X26571428Y3940476D01*
D10*
X26630952Y4357143D02*
X26571428Y4357143D01*
D10*
X26690476Y4476190D02*
X26630952Y4357143D01*
D10*
X26750000Y4535714D02*
X26690476Y4476190D01*
D10*
X26869048Y4595238D02*
X26750000Y4535714D01*
D10*
X27107144Y4595238D02*
X26869048Y4595238D01*
D10*
X27226192Y4535714D02*
X27107144Y4595238D01*
D10*
X27285714Y4476190D02*
X27226192Y4535714D01*
D10*
X27345238Y4357143D02*
X27285714Y4476190D01*
D10*
X27404762Y4178571D02*
X27345238Y4357143D01*
D10*
X27404762Y3880952D02*
X27404762Y4178571D01*
D10*
X27345238Y3702381D02*
X27404762Y3880952D01*
D10*
X27285714Y3583333D02*
X27345238Y3702381D01*
D10*
X27226192Y3523809D02*
X27285714Y3583333D01*
D10*
X27107144Y3464285D02*
X27226192Y3523809D01*
D10*
X26869048Y3464285D02*
X27107144Y3464285D01*
D10*
X26750000Y3523809D02*
X26869048Y3464285D01*
D10*
X26690476Y3583333D02*
X26750000Y3523809D01*
D10*
X26630952Y3702381D02*
X26690476Y3583333D01*
D10*
X26630952Y3880952D02*
X26630952Y3702381D01*
D10*
X26869048Y3880952D02*
X26630952Y3880952D01*
D10*
X26869048Y3940476D02*
X26869048Y3880952D01*
D10*
X25380952Y3404762D02*
X26333334Y3404762D01*
D10*
X25380952Y3464285D02*
X25380952Y3404762D01*
D10*
X26333334Y3464285D02*
X25380952Y3464285D01*
D10*
X26333334Y3404762D02*
X26333334Y3464285D01*
D10*
X24428572Y4595238D02*
X24309524Y4476190D01*
D10*
X24607144Y4654762D02*
X24428572Y4595238D01*
D10*
X24845238Y4654762D02*
X24607144Y4654762D01*
D10*
X25023810Y4595238D02*
X24845238Y4654762D01*
D10*
X25142856Y4476190D02*
X25023810Y4595238D01*
D10*
X25142856Y4357143D02*
X25142856Y4476190D01*
D10*
X25083334Y4238095D02*
X25142856Y4357143D01*
D10*
X25023810Y4178571D02*
X25083334Y4238095D01*
D10*
X24904762Y4119047D02*
X25023810Y4178571D01*
D10*
X24607144Y4000000D02*
X24904762Y4119047D01*
D10*
X24488096Y3940476D02*
X24607144Y4000000D01*
D10*
X24428572Y3880952D02*
X24488096Y3940476D01*
D10*
X24369048Y3761904D02*
X24428572Y3880952D01*
D10*
X24369048Y3583333D02*
X24369048Y3761904D01*
D10*
X24428572Y3523809D02*
X24369048Y3583333D01*
D10*
X24607144Y3464285D02*
X24428572Y3523809D01*
D10*
X24845238Y3464285D02*
X24607144Y3464285D01*
D10*
X24964286Y3523809D02*
X24845238Y3464285D01*
D10*
X25023810Y3583333D02*
X24964286Y3523809D01*
D10*
X25142856Y3583333D02*
X25023810Y3583333D01*
D10*
X24428572Y4476190D02*
X24309524Y4476190D01*
D10*
X24488096Y4535714D02*
X24428572Y4476190D01*
D10*
X24607144Y4595238D02*
X24488096Y4535714D01*
D10*
X24845238Y4595238D02*
X24607144Y4595238D01*
D10*
X25023810Y4535714D02*
X24845238Y4595238D01*
D10*
X25083334Y4476190D02*
X25023810Y4535714D01*
D10*
X25083334Y4357143D02*
X25083334Y4476190D01*
D10*
X25023810Y4238095D02*
X25083334Y4357143D01*
D10*
X24904762Y4178571D02*
X25023810Y4238095D01*
D10*
X24607144Y4059523D02*
X24904762Y4178571D01*
D10*
X24488096Y4000000D02*
X24607144Y4059523D01*
D10*
X24369048Y3880952D02*
X24488096Y4000000D01*
D10*
X24309524Y3761904D02*
X24369048Y3880952D01*
D10*
X24309524Y3583333D02*
X24309524Y3761904D01*
D10*
X24428572Y3464285D02*
X24309524Y3583333D01*
D10*
X24607144Y3404762D02*
X24428572Y3464285D01*
D10*
X24845238Y3404762D02*
X24607144Y3404762D01*
D10*
X25023810Y3464285D02*
X24845238Y3404762D01*
D10*
X25142856Y3583333D02*
X25023810Y3464285D01*
D10*
X23892856Y3404762D02*
X23892856Y4654762D01*
D10*
X23833334Y4654762D02*
X23892856Y4654762D01*
D10*
X23833334Y3404762D02*
X23833334Y4654762D01*
D10*
X23892856Y3404762D02*
X23833334Y3404762D01*
D10*
X23119048Y4654762D02*
X23059524Y4654762D01*
D10*
X23119048Y3404762D02*
X23119048Y4654762D01*
D10*
X23059524Y3404762D02*
X23119048Y3404762D01*
D10*
X23059524Y3404762D02*
X23059524Y4654762D01*
D10*
X23119048Y4059523D02*
X23833334Y4059523D01*
D10*
X23119048Y4000000D02*
X23833334Y4000000D01*
D10*
X22583334Y3761904D02*
X22583334Y4654762D01*
D10*
X22523810Y3583333D02*
X22583334Y3761904D01*
D10*
X22404762Y3464285D02*
X22523810Y3583333D01*
D10*
X22226192Y3404762D02*
X22404762Y3464285D01*
D10*
X22107144Y3404762D02*
X22226192Y3404762D01*
D10*
X21928572Y3464285D02*
X22107144Y3404762D01*
D10*
X21809524Y3583333D02*
X21928572Y3464285D01*
D10*
X21750000Y3761904D02*
X21809524Y3583333D01*
D10*
X21750000Y4654762D02*
X21750000Y3761904D01*
D10*
X22523810Y4654762D02*
X22583334Y4654762D01*
D10*
X22523810Y3761904D02*
X22523810Y4654762D01*
D10*
X22464286Y3583333D02*
X22523810Y3761904D01*
D10*
X22404762Y3523809D02*
X22464286Y3583333D01*
D10*
X22226192Y3464285D02*
X22404762Y3523809D01*
D10*
X22107144Y3464285D02*
X22226192Y3464285D01*
D10*
X21928572Y3523809D02*
X22107144Y3464285D01*
D10*
X21869048Y3583333D02*
X21928572Y3523809D01*
D10*
X21809524Y3761904D02*
X21869048Y3583333D01*
D10*
X21809524Y4654762D02*
X21809524Y3761904D01*
D10*
X21750000Y4654762D02*
X21809524Y4654762D01*
G75*
D11*
X22930000Y16350000D03*
D12*
X26000000Y13380000D03*
D12*
X33000000Y16000000D03*
D12*
X26000000Y16000000D03*
D11*
X36070000Y16350000D03*
D12*
X33000000Y13380000D03*
D12*
X30500000Y13380000D03*
D11*
X22930000Y10670000D03*
D12*
X28500000Y13380000D03*
D12*
X28500000Y16000000D03*
D11*
X36070000Y10670000D03*
D12*
X30500000Y16000000D03*
D11*
X3930000Y16350000D03*
D12*
X7000000Y13380000D03*
D12*
X14000000Y16000000D03*
D12*
X7000000Y16000000D03*
D11*
X17070000Y16350000D03*
D12*
X14000000Y13380000D03*
D12*
X11500000Y13380000D03*
D11*
X3930000Y10670000D03*
D12*
X9500000Y13380000D03*
D12*
X9500000Y16000000D03*
D11*
X17070000Y10670000D03*
D12*
X11500000Y16000000D03*
D13*
X10430000Y42375000D03*
D14*
X19070000Y38195001D03*
D15*
X17640000Y38725000D03*
D13*
X19070000Y42375000D03*
D14*
X10430000Y38195001D03*
D15*
X11860000Y38725000D03*
D16*
X6875000Y33750000D03*
D16*
X6875000Y35375000D03*
D16*
X22375000Y36250000D03*
D16*
X6875000Y32875000D03*
D16*
X22375000Y37125000D03*
D16*
X6875000Y36875000D03*
D16*
X22375000Y39000000D03*
D16*
X25500000Y32750000D03*
D16*
X26250000Y32000000D03*
D16*
X6875000Y36125000D03*
D16*
X6875000Y34625000D03*
D16*
X22375000Y38000000D03*
D16*
X21875000Y29750000D03*
D16*
X11625000Y35374992D03*
M02*
